<?xml version="1.0" encoding="UTF-8"?>
<svg id="Layer_1" xmlns="http://www.w3.org/2000/svg" xmlns:xlink="http://www.w3.org/1999/xlink" version="1.1" viewBox="0 0 350 350">
  <!-- Generator: Adobe Illustrator 29.5.0, SVG Export Plug-In . SVG Version: 2.1.0 Build 137)  -->
  <defs>
    <style>
      .st0, .st1 {
        fill: none;
      }

      .st2, .st3, .st4, .st5, .st6, .st7, .st8, .st9 {
        isolation: isolate;
      }

      .st2, .st10 {
        opacity: .49;
      }

      .st11 {
        fill: url(#linear-gradient2);
      }

      .st12 {
        fill: url(#linear-gradient1);
      }

      .st13 {
        fill: url(#linear-gradient3);
      }

      .st14 {
        fill: url(#linear-gradient5);
      }

      .st15 {
        fill: url(#linear-gradient4);
      }

      .st3 {
        fill: url(#linear-gradient24);
        mix-blend-mode: darken;
      }

      .st3, .st7, .st8 {
        opacity: .44;
      }

      .st16 {
        fill: url(#linear-gradient18);
      }

      .st17 {
        fill: url(#linear-gradient13);
      }

      .st18 {
        fill: url(#linear-gradient12);
      }

      .st19 {
        fill: url(#linear-gradient15);
      }

      .st20 {
        fill: url(#linear-gradient16);
      }

      .st21 {
        fill: url(#linear-gradient17);
      }

      .st22 {
        fill: url(#linear-gradient14);
      }

      .st23 {
        fill: url(#linear-gradient19);
      }

      .st24 {
        fill: url(#linear-gradient22);
      }

      .st25 {
        fill: url(#linear-gradient20);
      }

      .st26 {
        fill: #efefef;
      }

      .st27 {
        fill: url(#linear-gradient);
      }

      .st28 {
        fill: #666;
      }

      .st29, .st5, .st10, .st30, .st31, .st9 {
        mix-blend-mode: overlay;
      }

      .st1 {
        stroke: #000;
        stroke-width: .57px;
      }

      .st1, .st32, .st9 {
        stroke-miterlimit: 10;
      }

      .st5 {
        fill: url(#linear-gradient23);
      }

      .st33 {
        opacity: .22;
      }

      .st34 {
        opacity: .32;
      }

      .st6 {
        fill: url(#linear-gradient10);
        fill-opacity: .68;
        mix-blend-mode: color;
      }

      .st30 {
        opacity: .54;
      }

      .st31 {
        opacity: .68;
      }

      .st7 {
        fill: url(#linear-gradient11);
      }

      .st7, .st8 {
        mix-blend-mode: multiply;
      }

      .st8 {
        fill: url(#linear-gradient21);
      }

      .st32 {
        fill: url(#linear-gradient6);
        fill-opacity: .42;
        stroke: url(#linear-gradient7);
      }

      .st32, .st9 {
        stroke-width: 1.54px;
      }

      .st9 {
        fill: url(#linear-gradient8);
        fill-opacity: 0;
        stroke: url(#linear-gradient9);
      }

      .st35 {
        clip-path: url(#clippath);
      }
    </style>
    <linearGradient id="linear-gradient" x1="109.9" y1="205.93" x2="132.57" y2="205.93" gradientTransform="translate(0 350) scale(1 -1)" gradientUnits="userSpaceOnUse">
      <stop offset="0" stop-color="#4d4d4d"/>
      <stop offset=".1" stop-color="#747474"/>
      <stop offset=".21" stop-color="#9a9a9a"/>
      <stop offset=".32" stop-color="#b5b5b5"/>
      <stop offset=".41" stop-color="#c6c6c6"/>
      <stop offset=".48" stop-color="#ccc"/>
      <stop offset=".54" stop-color="#c5c5c5"/>
      <stop offset=".64" stop-color="#b2b2b2"/>
      <stop offset=".75" stop-color="#939393"/>
      <stop offset=".87" stop-color="#686868"/>
      <stop offset="1" stop-color="#333"/>
    </linearGradient>
    <linearGradient id="linear-gradient1" x1="121.24" y1="172.66" x2="121.24" y2="180.11" gradientTransform="translate(0 350) scale(1 -1)" gradientUnits="userSpaceOnUse">
      <stop offset="0" stop-color="#ccc"/>
      <stop offset=".19" stop-color="#a5a5a5"/>
      <stop offset=".45" stop-color="#747474"/>
      <stop offset=".69" stop-color="#505050"/>
      <stop offset=".88" stop-color="#3a3a3a"/>
      <stop offset="1" stop-color="#333"/>
    </linearGradient>
    <linearGradient id="linear-gradient2" x1="121.24" y1="181.47" x2="121.24" y2="187.25" gradientTransform="translate(0 350) scale(1 -1)" gradientUnits="userSpaceOnUse">
      <stop offset="0" stop-color="#ccc"/>
      <stop offset=".19" stop-color="#a5a5a5"/>
      <stop offset=".45" stop-color="#747474"/>
      <stop offset=".69" stop-color="#505050"/>
      <stop offset=".88" stop-color="#3a3a3a"/>
      <stop offset="1" stop-color="#333"/>
    </linearGradient>
    <linearGradient id="linear-gradient3" x1="121.57" y1="189.03" x2="121.57" y2="194.81" gradientTransform="translate(0 350) scale(1 -1)" gradientUnits="userSpaceOnUse">
      <stop offset="0" stop-color="#ccc"/>
      <stop offset=".19" stop-color="#a5a5a5"/>
      <stop offset=".45" stop-color="#747474"/>
      <stop offset=".69" stop-color="#505050"/>
      <stop offset=".88" stop-color="#3a3a3a"/>
      <stop offset="1" stop-color="#333"/>
    </linearGradient>
    <linearGradient id="linear-gradient4" x1="121.57" y1="196.59" x2="121.57" y2="202.37" gradientTransform="translate(0 350) scale(1 -1)" gradientUnits="userSpaceOnUse">
      <stop offset="0" stop-color="#ccc"/>
      <stop offset=".19" stop-color="#a5a5a5"/>
      <stop offset=".45" stop-color="#747474"/>
      <stop offset=".69" stop-color="#505050"/>
      <stop offset=".88" stop-color="#3a3a3a"/>
      <stop offset="1" stop-color="#333"/>
    </linearGradient>
    <linearGradient id="linear-gradient5" x1="121.57" y1="204.99" x2="121.57" y2="210.76" gradientTransform="translate(0 350) scale(1 -1)" gradientUnits="userSpaceOnUse">
      <stop offset="0" stop-color="#ccc"/>
      <stop offset=".19" stop-color="#a5a5a5"/>
      <stop offset=".45" stop-color="#747474"/>
      <stop offset=".69" stop-color="#505050"/>
      <stop offset=".88" stop-color="#3a3a3a"/>
      <stop offset="1" stop-color="#333"/>
    </linearGradient>
    <clipPath id="clippath">
      <rect class="st0" x="34.17" width="155.01" height="307.18"/>
    </clipPath>
    <linearGradient id="linear-gradient6" x1="10.74" y1="275.51" x2="131.15" y2="275.51" gradientTransform="translate(48.61 485.57) rotate(.08) scale(1 -1)" gradientUnits="userSpaceOnUse">
      <stop offset="0" stop-color="#fff"/>
      <stop offset="1" stop-color="#a7a9ac"/>
    </linearGradient>
    <linearGradient id="linear-gradient7" x1="9.89" y1="275.13" x2="132.01" y2="275.13" gradientTransform="translate(48.61 485.57) rotate(.08) scale(1 -1)" gradientUnits="userSpaceOnUse">
      <stop offset="0" stop-color="#fff"/>
      <stop offset="1" stop-color="#231f20" stop-opacity=".7"/>
    </linearGradient>
    <linearGradient id="linear-gradient8" x1="10.74" y1="275.51" x2="131.15" y2="275.51" gradientTransform="translate(48.61 485.57) rotate(.08) scale(1 -1)" gradientUnits="userSpaceOnUse">
      <stop offset="0" stop-color="#fff"/>
      <stop offset=".5" stop-color="#a7a9ac"/>
      <stop offset=".96" stop-color="#fff"/>
    </linearGradient>
    <linearGradient id="linear-gradient9" x1="9.89" y1="275.13" x2="132.01" y2="275.13" gradientTransform="translate(48.61 485.57) rotate(.08) scale(1 -1)" gradientUnits="userSpaceOnUse">
      <stop offset=".24" stop-color="#808285"/>
      <stop offset="1" stop-color="#fff"/>
    </linearGradient>
    <linearGradient id="linear-gradient10" x1="10.74" y1="275.51" x2="93.66" y2="275.51" gradientTransform="translate(48.61 485.57) rotate(.08) scale(1 -1)" gradientUnits="userSpaceOnUse">
      <stop offset="0" stop-color="#fff" stop-opacity=".3"/>
      <stop offset="1" stop-color="#231f20" stop-opacity=".1"/>
    </linearGradient>
    <linearGradient id="linear-gradient11" x1="10.74" y1="275.51" x2="93.66" y2="275.51" gradientTransform="translate(48.61 485.57) rotate(.08) scale(1 -1)" gradientUnits="userSpaceOnUse">
      <stop offset="0" stop-color="#fff" stop-opacity=".1"/>
      <stop offset=".4" stop-color="#818781" stop-opacity=".22"/>
      <stop offset="1" stop-color="#2d372d" stop-opacity=".3"/>
    </linearGradient>
    <linearGradient id="linear-gradient12" x1="77.78" y1="149.46" x2="96.53" y2="149.43" gradientTransform="translate(0 350) scale(1 -1)" gradientUnits="userSpaceOnUse">
      <stop offset="0" stop-color="#231f20"/>
      <stop offset="1" stop-color="#fff"/>
    </linearGradient>
    <linearGradient id="linear-gradient13" x1="68.12" y1="71.48" x2="169.78" y2="71.34" gradientTransform="translate(0 350) scale(1 -1)" gradientUnits="userSpaceOnUse">
      <stop offset="0" stop-color="#fff"/>
      <stop offset="1" stop-color="#231f20"/>
    </linearGradient>
    <linearGradient id="linear-gradient14" x1="143.39" y1="149.69" x2="162.14" y2="149.66" gradientTransform="translate(0 350) scale(1 -1)" gradientUnits="userSpaceOnUse">
      <stop offset="0" stop-color="#231f20"/>
      <stop offset="1" stop-color="#fff"/>
    </linearGradient>
    <linearGradient id="linear-gradient15" x1="101.35" y1="197.46" x2="139.18" y2="197.41" gradientTransform="translate(0 350) scale(1 -1)" gradientUnits="userSpaceOnUse">
      <stop offset="0" stop-color="#fff"/>
      <stop offset="1" stop-color="#231f20"/>
    </linearGradient>
    <linearGradient id="linear-gradient16" x1="93.06" y1="166.28" x2="146.51" y2="166.2" gradientTransform="translate(0 350) scale(1 -1)" gradientUnits="userSpaceOnUse">
      <stop offset="0" stop-color="#fff"/>
      <stop offset="1" stop-color="#231f20"/>
    </linearGradient>
    <linearGradient id="linear-gradient17" x1="98.04" y1="142.84" x2="141.47" y2="142.78" gradientTransform="translate(0 350) scale(1 -1)" gradientUnits="userSpaceOnUse">
      <stop offset="0" stop-color="#fff"/>
      <stop offset="1" stop-color="#231f20"/>
    </linearGradient>
    <linearGradient id="linear-gradient18" x1="88.71" y1="114.58" x2="150.72" y2="114.49" gradientTransform="translate(0 350) scale(1 -1)" gradientUnits="userSpaceOnUse">
      <stop offset="0" stop-color="#fff"/>
      <stop offset="1" stop-color="#231f20"/>
    </linearGradient>
    <linearGradient id="linear-gradient19" x1="106.77" y1="143.43" x2="132.74" y2="143.4" gradientTransform="translate(0 350) scale(1 -1)" gradientUnits="userSpaceOnUse">
      <stop offset="0" stop-color="#231f20"/>
      <stop offset=".29" stop-color="#242021"/>
      <stop offset=".39" stop-color="#2b2728"/>
      <stop offset=".46" stop-color="#373334"/>
      <stop offset=".52" stop-color="#474445"/>
      <stop offset=".58" stop-color="#5d5a5b"/>
      <stop offset=".62" stop-color="#787576"/>
      <stop offset=".66" stop-color="#979696"/>
      <stop offset=".7" stop-color="#bcbbbc"/>
      <stop offset=".73" stop-color="#e5e4e5"/>
      <stop offset=".75" stop-color="#fff"/>
    </linearGradient>
    <linearGradient id="linear-gradient20" x1="94.33" y1="119.77" x2="146.32" y2="119.7" gradientTransform="translate(0 350) scale(1 -1)" gradientUnits="userSpaceOnUse">
      <stop offset="0" stop-color="#fff"/>
      <stop offset="1" stop-color="#231f20"/>
    </linearGradient>
    <linearGradient id="linear-gradient21" x1="40.7" y1="275.47" x2="100.81" y2="275.47" gradientTransform="translate(48.61 485.57) rotate(.08) scale(1 -1)" gradientUnits="userSpaceOnUse">
      <stop offset="0" stop-color="#fff" stop-opacity=".1"/>
      <stop offset=".4" stop-color="#818781" stop-opacity=".22"/>
      <stop offset="1" stop-color="#2d372d" stop-opacity=".3"/>
    </linearGradient>
    <linearGradient id="linear-gradient22" x1="81.75" y1="227.6" x2="112.44" y2="227.6" gradientTransform="translate(48.61 485.57) rotate(.08) scale(1 -1)" gradientUnits="userSpaceOnUse">
      <stop offset="0" stop-color="#fff" stop-opacity=".1"/>
      <stop offset=".4" stop-color="#818781" stop-opacity=".22"/>
      <stop offset="1" stop-color="#2d372d" stop-opacity=".3"/>
    </linearGradient>
    <linearGradient id="linear-gradient23" x1="30.33" y1="502.48" x2="111.58" y2="502.48" gradientTransform="translate(48.61 485.57) rotate(.08) scale(1 -1)" gradientUnits="userSpaceOnUse">
      <stop offset="0" stop-color="#f1f2f2"/>
      <stop offset=".05" stop-color="#f0f1f1" stop-opacity=".95"/>
      <stop offset=".15" stop-color="#f0f1f1" stop-opacity=".81"/>
      <stop offset=".28" stop-color="#f0f0f0" stop-opacity=".58"/>
      <stop offset=".43" stop-color="#efefef" stop-opacity=".27"/>
      <stop offset=".51" stop-color="#efefef" stop-opacity=".1"/>
      <stop offset="1" stop-color="#231f20"/>
    </linearGradient>
    <linearGradient id="linear-gradient24" x1="30.33" y1="502.48" x2="111.58" y2="502.48" gradientTransform="translate(48.61 485.57) rotate(.08) scale(1 -1)" gradientUnits="userSpaceOnUse">
      <stop offset="0" stop-color="#000" stop-opacity=".1"/>
      <stop offset=".33" stop-color="#040304" stop-opacity=".21"/>
      <stop offset=".69" stop-color="#110f0f" stop-opacity=".55"/>
      <stop offset="1" stop-color="#231f20"/>
    </linearGradient>
  </defs>
  <g class="st4">
    <g id="Layer_11" data-name="Layer_1">
      <g>
        <g>
          <rect class="st28" x="109.9" y="114.89" width="22.67" height="58.36"/>
          <rect class="st27" x="109.9" y="114.89" width="22.67" height="58.36"/>
          <g>
            <path class="st28" d="M136.77,169.89h-31.07v1.2c0,.32.14.62.38.83,4.12,3.4,9.4,5.43,15.15,5.43s11.03-2.03,15.15-5.43c.25-.2.38-.51.38-.83v-1.2h0Z"/>
            <path class="st12" d="M136.77,169.89h-31.07v1.2c0,.32.14.62.38.83,4.12,3.4,9.4,5.43,15.15,5.43s11.03-2.03,15.15-5.43c.25-.2.38-.51.38-.83v-1.2h0Z"/>
          </g>
          <g>
            <path class="st28" d="M136.77,162.75l-14.18.75c-1.18.06-2.36.06-3.54,0l-13.35-.74v1.52c0,.4.2.77.54.98,4.1,2.51,9.32,3.27,15,3.27s10.9-.76,15-3.27c.34-.21.54-.58.54-.98v-1.52h0Z"/>
            <path class="st11" d="M136.77,162.75l-14.18.75c-1.18.06-2.36.06-3.54,0l-13.35-.74v1.52c0,.4.2.77.54.98,4.1,2.51,9.32,3.27,15,3.27s10.9-.76,15-3.27c.34-.21.54-.58.54-.98v-1.52h0Z"/>
          </g>
          <g>
            <path class="st28" d="M137.1,155.19l-14.18.75c-1.18.06-2.36.06-3.54,0l-13.35-.74v1.52c0,.4.2.77.54.98,4.1,2.51,9.32,3.27,15,3.27s10.9-.76,15-3.27c.34-.21.54-.58.54-.98v-1.52h0Z"/>
            <path class="st13" d="M137.1,155.19l-14.18.75c-1.18.06-2.36.06-3.54,0l-13.35-.74v1.52c0,.4.2.77.54.98,4.1,2.51,9.32,3.27,15,3.27s10.9-.76,15-3.27c.34-.21.54-.58.54-.98v-1.52h0Z"/>
          </g>
          <g>
            <path class="st28" d="M137.1,147.63l-14.18.75c-1.18.06-2.36.06-3.54,0l-13.35-.74v1.52c0,.4.2.77.54.98,4.1,2.51,9.32,3.27,15,3.27s10.9-.76,15-3.27c.34-.21.54-.58.54-.98v-1.52h0Z"/>
            <path class="st15" d="M137.1,147.63l-14.18.75c-1.18.06-2.36.06-3.54,0l-13.35-.74v1.52c0,.4.2.77.54.98,4.1,2.51,9.32,3.27,15,3.27s10.9-.76,15-3.27c.34-.21.54-.58.54-.98v-1.52h0Z"/>
          </g>
          <g>
            <path class="st28" d="M137.1,139.24l-14.18.75c-1.18.06-2.36.06-3.54,0l-13.35-.74v1.52c0,.4.2.77.54.98,4.1,2.51,9.32,3.27,15,3.27s10.9-.76,15-3.27c.34-.21.54-.58.54-.98v-1.52h0Z"/>
            <path class="st14" d="M137.1,139.24l-14.18.75c-1.18.06-2.36.06-3.54,0l-13.35-.74v1.52c0,.4.2.77.54.98,4.1,2.51,9.32,3.27,15,3.27s10.9-.76,15-3.27c.34-.21.54-.58.54-.98v-1.52h0Z"/>
          </g>
        </g>
        <path class="st2" d="M136.56,141.74c.34-.21.54-.58.54-.98v-1.52l-4.52.24v-24.59h-22.67v24.57l-3.88-.22v1.52c0,.4.2.77.54.98,1.04.64,2.16,1.16,3.34,1.59v4.52l-3.88-.22v1.52c0,.4.2.77.54.98,1.04.64,2.16,1.16,3.34,1.59v3.68l-3.88-.22v1.52c0,.4.2.77.54.98,1.04.64,2.16,1.16,3.34,1.59v3.7l-4.2-.23v1.52c0,.4.2.77.54.98,1.14.7,2.37,1.25,3.66,1.69v2.94h-4.2v1.2c0,.32.14.62.38.83,4.12,3.4,9.4,5.43,15.15,5.43s11.03-2.03,15.15-5.43c.25-.2.38-.51.38-.83v-1.2h-4.2v-2.94c1.29-.45,2.52-1,3.66-1.69.34-.21.54-.58.54-.98v-1.52l-4.2.22v-3.48c1.41-.47,2.75-1.04,3.98-1.8.34-.21.54-.58.54-.98v-1.52l-4.52.24v-3.49c1.41-.47,2.75-1.04,3.98-1.8.34-.21.54-.58.54-.98v-1.52l-4.52.24v-4.33c1.41-.47,2.75-1.04,3.98-1.8h.01Z"/>
      </g>
      <g class="st4">
        <g class="st4">
          <path d="M222.14,151.02v.23h-1.33v-.14c0-1.16-.83-2.33-2.71-2.33-2.04,0-3.17,1.46-3.17,3.49v1.41c0,2.13,1.2,3.51,3.08,3.51s2.9-1.16,2.9-2.71v-.52h-2.8v-1.03h4.11v5.15h-.72l-.21-1.72c-.58,1.09-1.64,1.93-3.46,1.93-2.57,0-4.24-1.81-4.24-4.67v-1.27c0-2.71,1.67-4.7,4.55-4.7s4.03,1.65,4.03,3.37Z"/>
          <path d="M225.79,150.83l.11,1.84c.44-1.04,1.23-1.95,2.59-1.95.2,0,.37.02.57.05v1.24c-.2-.03-.37-.06-.63-.06-1.33,0-2.42,1.06-2.42,2.25v3.88h-1.29v-7.25h1.07Z"/>
          <path d="M232.01,158.22c-1.35,0-2.13-.7-2.13-1.93,0-.8.32-1.39,1.18-1.82.7-.35,1.84-.6,3.72-.72v-.46c0-1.04-.54-1.61-1.7-1.61-1.09,0-1.76.52-1.76,1.39v.11h-1.16v-.15c0-1.32.97-2.39,2.96-2.39s2.91.98,2.91,2.67v2.96c0,.86.18,1,.92,1.01v.86h-.49c-.95,0-1.52-.28-1.64-1.39-.63.93-1.53,1.49-2.8,1.49ZM232.37,157.3c1.23,0,2.41-1,2.41-1.95v-.84c-1.42.11-2.36.28-2.9.55-.58.29-.75.66-.75,1.15,0,.67.37,1.09,1.24,1.09Z"/>
          <path d="M238.96,150.83l2.28,5.91h.02l2.22-5.91h1.3l-2.87,7.15c-.75,1.78-1.36,2.5-3.03,2.5h-.55v-1.01h.31c1,0,1.46-.32,1.76-1.07l.15-.35-2.94-7.22h1.35Z"/>
          <path d="M254.19,147.88c2.25,0,3.37,1.1,3.37,2.88v.54c0,1.82-1.13,2.91-3.4,2.91h-2.74v3.88h-1.35v-10.2h4.12ZM251.42,153.09h2.59c1.59,0,2.21-.69,2.21-1.84v-.44c0-1.12-.63-1.82-2.21-1.82h-2.59v4.11Z"/>
          <path d="M260.78,147.48v10.6h-1.29v-10.6h1.29Z"/>
          <path d="M264.55,150.83v4.75c0,.95.55,1.59,1.55,1.59,1.29,0,2.27-1.1,2.27-2.08v-4.26h1.27v7.25h-1.07l-.12-1.52c-.66,1.03-1.5,1.69-2.77,1.69-1.49,0-2.41-.98-2.41-2.48v-4.93h1.29Z"/>
          <path d="M273.22,150.83l.12,1.52c.67-1.03,1.5-1.69,2.79-1.69,1.47,0,2.39.97,2.39,2.48v4.93h-1.29v-4.75c0-.95-.54-1.59-1.53-1.59-1.29,0-2.27,1.09-2.27,2.08v4.26h-1.29v-7.25h1.07Z"/>
          <path d="M283.83,160.59c-2.44,0-3.65-.6-3.65-1.64,0-.69.58-1.13,1.73-1.35v-.03c-.77-.23-1.27-.54-1.27-1.09,0-.52.46-.87,1.27-1.15-.77-.41-1.18-1.13-1.18-1.98v-.28c0-1.41,1.21-2.41,3.03-2.41.43,0,.81.08,1.15.18,1.39-.15,1.58-.58,1.58-1.3h.96c.06.2.09.35.09.54,0,.78-.6,1.09-1.75,1.23.64.43,1.01.98,1.01,1.81v.25c0,1.38-1.13,2.39-3.05,2.39-.43,0-.83-.05-1.17-.15-.69.18-.87.41-.87.63,0,.41,1.04.63,2.14.63h.18c2.45,0,3.46.67,3.46,1.82s-1.3,1.9-3.69,1.9ZM286.39,158.82c0-.6-.78-.9-2.54-.9h-.21c-1.56,0-2.3.41-2.3.93,0,.55.78.92,2.53.92s2.53-.35,2.53-.95ZM285.58,153.39v-.34c0-.84-.63-1.47-1.81-1.47s-1.81.63-1.81,1.47v.32c0,.87.64,1.49,1.81,1.49s1.81-.61,1.81-1.47Z"/>
          <path d="M292.08,158.29c-2.37,0-3.46-1.49-3.46-3.51v-.55c0-2.04,1.23-3.62,3.36-3.62s3.22,1.55,3.22,3.54v.57h-5.35v.17c0,1.35.63,2.36,2.27,2.36,1.24,0,1.92-.64,1.92-1.41v-.05h1.15v.09c0,1.38-1.18,2.41-3.09,2.41ZM289.84,153.93h4.14c-.05-1.33-.63-2.28-2.02-2.28-1.32,0-2.05.93-2.11,2.28Z"/>
          <path d="M298.26,150.83l.11,1.84c.44-1.04,1.23-1.95,2.59-1.95.2,0,.37.02.57.05v1.24c-.2-.03-.37-.06-.63-.06-1.33,0-2.42,1.06-2.42,2.25v3.88h-1.29v-7.25h1.07Z"/>
        </g>
      </g>
      <line class="st1" x1="136.77" y1="158.08" x2="212.52" y2="158.08"/>
      <circle cx="136.77" cy="158.08" r="2.55"/>
      <g class="st35">
        <g>
          <g>
            <path class="st32" d="M159.54,121.94l2.29,123.66c.08,4.19,1.89,8.15,5,10.95l8.86,7.98c1.38,1.24,2.38,2.86,2.87,4.66l1.5,5.49s-21.92,23.8-57.95,23.75h-4.58c-36.03-.05-57.88-23.91-57.88-23.91l1.52-5.49c.5-1.79,1.5-3.41,2.88-4.65l8.88-7.95c3.12-2.79,4.94-6.75,5.03-10.94l2.63-123.66"/>
            <path class="st9" d="M159.54,121.94l2.29,123.66c.08,4.19,1.89,8.15,5,10.95l8.86,7.98c1.38,1.24,2.38,2.86,2.87,4.66l1.5,5.49s-21.92,23.8-57.95,23.75h-4.58c-36.03-.05-57.88-23.91-57.88-23.91l1.52-5.49c.5-1.79,1.5-3.41,2.88-4.65l8.88-7.95c3.12-2.79,4.94-6.75,5.03-10.94l2.63-123.66"/>
            <path class="st6" d="M142.54,295.83c-6.17,1.61-12.99,2.62-20.42,2.61h-4.58c-36.02-.05-57.89-23.92-57.89-23.92l1.52-5.48c.5-1.8,1.5-3.42,2.89-4.65l8.87-7.95c3.13-2.8,4.94-6.76,5.04-10.95l2.62-123.65h10.86c-1.79,13.96-7.78,66.66.33,88.29,9.38,25.04,18.83,7.41,13.64,30.33-5.19,22.94-.96,45.5,14.85,45.84,9.78.23,17.68,5.54,22.27,9.54h0Z"/>
            <path class="st7" d="M142.54,295.83c-6.17,1.61-12.99,2.62-20.42,2.61h-4.58c-36.02-.05-57.89-23.92-57.89-23.92l1.52-5.48c.5-1.8,1.5-3.42,2.89-4.65l8.87-7.95c3.13-2.8,4.94-6.76,5.04-10.95l2.62-123.65h10.86c-1.79,13.96-7.78,66.66.33,88.29,9.38,25.04,22.72,17.79,9.37,37.13-23.68,34.3,3.31,38.7,19.12,39.04,9.78.23,17.68,5.54,22.27,9.54h0Z"/>
            <g class="st29">
              <path class="st18" d="M95.86,125.06l-.22,12.69-.28,12.69c-.24,8.46-.41,16.92-.71,25.38l-.85,25.37c-.28,8.46-.67,16.91-1,25.36v.12l-.05.11-2.45,6.12.05-.23c-.16,4.35-.34,8.7-.56,13.05l-.3,6.52-.15,3.26c-.03,1.07-.12,2.25-.41,3.33-.58,2.18-1.77,4.21-3.45,5.71-1.72,1.42-3.44,2.7-5.16,4.05l-1.28,1c-.35.29-.47.82-.27,1.24.09.2.27.38.47.58.19.19.39.37.59.55.41.35.84.68,1.28.99,1.78,1.23,3.73,2.22,5.73,3.09-2.03-.78-4.04-1.66-5.89-2.85-.46-.3-.91-.61-1.34-.96-.22-.17-.43-.35-.63-.54-.19-.18-.42-.38-.57-.67-.29-.57-.16-1.32.33-1.75l1.26-1.06c1.65-1.4,3.39-2.78,4.97-4.19,1.53-1.45,2.6-3.35,3.09-5.39.25-1.03.31-2.04.32-3.15l.08-3.26.16-6.53c.1-4.35.23-8.71.37-13.06v-.12l.05-.11,2.41-6.13-.05.23c.3-8.46.54-16.91.88-25.37l1.03-25.36c.33-8.45.79-16.91,1.18-25.36l.66-12.68.72-12.67h-.01Z"/>
            </g>
            <g class="st33">
              <path class="st17" d="M169.35,271.41c-3.6,2.65-7.44,5-11.44,7.04-4.02,2.01-8.2,3.7-12.5,5.05-8.59,2.72-17.72,3.73-26.67,3.56-4.49-.03-9.02-.31-13.47-1.02-4.45-.72-8.85-1.78-13.1-3.27-4.26-1.47-8.39-3.29-12.35-5.4-3.94-2.16-7.71-4.61-11.24-7.36,3.73,2.47,7.56,4.78,11.58,6.69,4,1.96,8.13,3.63,12.37,4.95,4.24,1.29,8.56,2.37,12.95,3.01,4.39.65,8.81.87,13.26.87,4.49.08,8.89,0,13.3-.55,4.4-.51,8.75-1.43,13.03-2.61,4.28-1.19,8.46-2.74,12.51-4.59,4.08-1.8,7.97-4,11.77-6.37h0Z"/>
            </g>
            <g class="st29">
              <path class="st22" d="M144.27,125.12l.69,12.62.62,12.63c.36,8.42.8,16.84,1.11,25.26l.96,25.26c.32,8.42.54,16.84.81,25.27l-.05-.23,2.39,6.11.04.11v.12c.14,4.34.26,8.68.34,13.02l.15,6.51.07,3.25c0,1.11.07,2.1.32,3.13.49,2.03,1.56,3.92,3.09,5.36,1.59,1.4,3.31,2.79,4.96,4.18l1.26,1.06c.48.44.6,1.19.3,1.75-.15.29-.38.48-.57.66-.2.19-.41.37-.63.54-.43.34-.88.65-1.34.95-1.85,1.17-3.86,2.04-5.88,2.81,1.99-.86,3.94-1.84,5.72-3.05.44-.31.87-.63,1.28-.98.2-.17.4-.35.59-.54s.38-.37.47-.57c.2-.41.09-.94-.25-1.23l-1.27-.99c-1.71-1.35-3.43-2.63-5.14-4.04-1.68-1.49-2.87-3.51-3.45-5.69-.29-1.08-.39-2.26-.41-3.32l-.14-3.25-.28-6.51c-.2-4.34-.37-8.67-.52-13.01l.05.23-2.43-6.1-.04-.11v-.12c-.31-8.42-.68-16.84-.94-25.26l-.78-25.27c-.27-8.42-.42-16.85-.64-25.27l-.25-12.64-.19-12.64h-.02Z"/>
            </g>
            <g class="st30">
              <path class="st19" d="M102.16,126.03c.17,5.61.23,11.23.35,16.84l.19,16.84c.03,2.81.06,5.61.06,8.42v3.14c.01.32.05.63.1.95.21,1.25.8,2.43,1.67,3.35.87.92,2,1.58,3.24,1.86.64.15,1.2.18,1.93.16h2.1l8.42-.03,8.42.04h2.1c.73.03,1.29,0,1.93-.14,1.22-.28,2.38-.94,3.25-1.85.87-.92,1.47-2.1,1.68-3.35.05-.31.08-.63.09-.95v-1.04l.02-2.1c0-2.81.04-5.61.08-8.42l.24-16.84c.14-5.61.22-11.23.4-16.84.17,5.61.23,11.23.35,16.84l.19,16.84c.04,2.81.06,5.61.06,8.42v3.16c0,.38-.04.77-.1,1.15-.24,1.52-.96,2.96-2.01,4.08-1.05,1.13-2.43,1.93-3.94,2.29-.73.19-1.58.22-2.25.21h-2.1l-8.42.03-8.42-.05h-2.1c-.67,0-1.52-.04-2.25-.23-1.5-.35-2.9-1.17-3.94-2.3-1.05-1.13-1.76-2.57-1.99-4.09-.06-.38-.09-.76-.1-1.15v-3.16c.01-2.81.05-5.61.1-8.42l.24-16.84c.13-5.61.22-11.23.4-16.84v.02Z"/>
            </g>
            <g class="st29">
              <path class="st20" d="M145.64,179.85c.04.59-.21,1.18-.57,1.66-.37.48-.82.88-1.31,1.23-.97.7-2.04,1.23-3.14,1.7-2.2.89-4.49,1.51-6.81,1.97-4.63.93-9.34,1.27-14.05,1.29-4.7-.03-9.42-.38-14.04-1.33-2.31-.47-4.6-1.09-6.8-1.99-1.09-.47-2.16-1.01-3.13-1.71-.48-.35-.94-.76-1.3-1.24-.36-.48-.6-1.07-.56-1.66.05.59.37,1.1.76,1.49.39.41.86.74,1.35,1.02,1,.56,2.07.96,3.17,1.29,2.19.68,4.46,1.1,6.74,1.45,4.57.65,9.19.92,13.81.92,4.62,0,9.24-.25,13.81-.88,2.28-.34,4.55-.75,6.75-1.43,1.1-.33,2.18-.73,3.17-1.28.49-.28.96-.61,1.36-1.02.4-.4.71-.9.77-1.49h.02Z"/>
            </g>
            <g class="st31">
              <path class="st21" d="M98.85,182.96c.17,5.29.23,10.59.35,15.88l.19,15.88.07,7.93c.03,1.04.77,2.03,1.72,2.79.94.78,2.08,1.37,3.27,1.86,2.37.98,4.91,1.59,7.49,1.98,2.57.39,5.19.56,7.8.56s5.22-.16,7.8-.54c2.57-.38,5.12-.98,7.49-1.96,1.18-.48,2.33-1.07,3.27-1.85.95-.76,1.69-1.74,1.72-2.78,0-2.63.04-5.29.09-7.93l.24-15.88c.14-5.29.22-10.58.4-15.88.17,5.29.24,10.59.36,15.88l.19,15.88c.04,2.65.07,5.29.06,7.94-.05.8-.28,1.59-.71,2.21-.21.32-.42.63-.69.88-.25.27-.5.53-.79.74-1.1.91-2.34,1.55-3.59,2.08-2.52,1.06-5.16,1.7-7.81,2.12-2.66.42-5.34.61-8.02.62-2.68-.02-5.36-.22-8.02-.65-2.65-.43-5.29-1.07-7.81-2.14-1.26-.53-2.49-1.17-3.59-2.09-.29-.21-.54-.47-.79-.74-.27-.25-.48-.56-.68-.88-.43-.62-.66-1.41-.71-2.21,0-2.66.04-5.3.08-7.94l.24-15.88c.13-5.29.22-10.58.4-15.88h-.02Z"/>
            </g>
            <g class="st29">
              <path class="st16" d="M149.78,230.64c.04.69-.21,1.39-.59,1.97-.39.59-.91,1.09-1.46,1.52-1.1.88-2.34,1.53-3.61,2.12-2.55,1.12-5.23,1.88-7.94,2.46-5.42,1.16-10.95,1.59-16.47,1.61-5.52-.04-11.05-.48-16.47-1.65-2.7-.59-5.38-1.35-7.93-2.48-1.26-.59-2.5-1.25-3.6-2.13-.55-.43-1.06-.94-1.45-1.52-.38-.59-.63-1.29-.59-1.98.05.69.38,1.31.82,1.8.43.51.95.93,1.52,1.29,1.12.73,2.38,1.24,3.65,1.68,2.54.89,5.2,1.44,7.87,1.89,5.34.86,10.77,1.21,16.2,1.21,5.42,0,10.85-.33,16.2-1.17,2.67-.44,5.33-.99,7.87-1.87,1.27-.44,2.53-.95,3.65-1.67.57-.36,1.09-.78,1.52-1.28.44-.5.77-1.11.82-1.8h0Z"/>
            </g>
            <g class="st10">
              <path class="st23" d="M107.57,185.54c.25,8.43.4,16.86.5,25.28l.08,6.32.03,3.16v1.58c0,.3,0,.45.05.61.05.17.14.33.25.5.48.67,1.37,1.19,2.26,1.58.91.4,1.89.68,2.88.9,1.99.44,4.06.61,6.11.6,2.06,0,4.12-.15,6.11-.59.99-.22,1.97-.5,2.88-.89.9-.39,1.78-.9,2.26-1.57.11-.16.2-.33.25-.5.04-.16.05-.31.05-.61v-1.58l.05-3.16.1-6.32c.12-8.43.29-16.85.57-25.28.26,8.43.41,16.86.5,25.28l.08,6.32.03,3.16v1.58c0,.22.02.61-.08.96-.09.34-.25.65-.43.92-.77,1.06-1.8,1.61-2.81,2.08-1.02.46-2.07.77-3.13,1.03-2.12.49-4.28.7-6.44.71-2.16-.03-4.31-.23-6.43-.73-1.06-.25-2.11-.57-3.13-1.03-1-.48-2.04-1.03-2.8-2.08-.18-.27-.34-.58-.43-.92-.09-.35-.08-.74-.08-.96v-1.58l.05-3.16.1-6.32c.12-8.43.29-16.85.57-25.28h0Z"/>
            </g>
            <g class="st34">
              <path class="st25" d="M145.57,230.3c0,.28-.23.49-.45.64-.22.16-.46.28-.71.39-.5.22-1.01.37-1.53.52-1.04.28-2.1.49-3.17.66-2.13.35-4.28.61-6.43.81-4.3.42-8.62.65-12.95.74-4.32.08-8.66.05-12.99-.23-2.16-.16-4.33-.35-6.49-.68-1.08-.17-2.16-.37-3.25-.66-.54-.15-1.08-.3-1.64-.54-.28-.12-.56-.25-.86-.47-.15-.1-.3-.24-.45-.42-.15-.19-.3-.48-.31-.84.01-.36.16-.65.31-.84.15-.18.31-.32.45-.42.3-.21.58-.34.86-.46.56-.24,1.1-.39,1.64-.54,1.09-.28,2.17-.48,3.25-.65,2.16-.33,4.33-.51,6.5-.67,4.33-.27,8.67-.28,12.99-.19,4.32.1,8.64.35,12.94.78,2.15.21,4.3.47,6.42.83,1.06.18,2.13.39,3.17.67.52.15,1.04.3,1.53.52.25.11.49.23.71.39.22.15.43.37.44.64l.02.02ZM145.57,230.3c0-.28-.23-.49-.45-.64-.22-.16-.46-.27-.71-.38-.5-.21-1.01-.36-1.53-.5-1.04-.27-2.1-.47-3.17-.64-2.13-.33-4.28-.52-6.43-.67-4.3-.27-8.62-.3-12.93-.22-4.31.09-8.61.33-12.88.74-2.14.2-4.27.46-6.37.81-1.05.17-2.09.38-3.09.65-.5.14-.99.29-1.43.48-.21.1-.42.2-.56.31-.18.1-.15.22-.13.02-.03-.2-.05-.08.13.02.14.11.35.21.56.31.44.19.93.34,1.43.48,1,.27,2.04.48,3.09.66,2.1.36,4.23.62,6.36.83,4.27.43,8.57.67,12.88.78,4.31.09,8.62.07,12.93-.19,2.15-.15,4.3-.33,6.43-.66,1.07-.17,2.13-.36,3.17-.64.52-.14,1.04-.29,1.54-.5.25-.11.49-.22.71-.38.22-.15.43-.36.45-.64v-.03Z"/>
            </g>
            <path class="st8" d="M89.67,230.56c0,3.21,13.44,9.05,30.04,9.07s30.06-5.78,30.07-8.99l-2.02-5.33-1.55-44.5-5.48,2.2-.05,39.66c0,4.39-9.39,7.93-20.95,7.92-11.57-.02-20.94-3.59-20.93-7.97l.05-39.66-5.1-1.57-1.59,42.37-2.48,6.8h-.01Z"/>
            <path class="st24" d="M149.78,231.55s1.69,1.16-4.21,3.3l-.04,28.25s-4.38,19.78-14.89,21.55c0,0,16.75-4.38,28.64-12.49,0,0,3.36-1.79,1.53-3.27-1.83-1.48-9.72-4.52-10.21-14.91-.49-10.38-.82-22.44-.82-22.44h0Z"/>
          </g>
          <path class="st26" d="M155.37-168.84l-69.79-.09c-3.16,0-5.73,2.55-5.73,5.72l-.39,284.88c-.01,7.48,18.17,13.57,40.6,13.6s40.63-6.01,40.64-13.49l.39-284.88c0-3.16-2.55-5.73-5.72-5.73h0Z"/>
          <path class="st5" d="M155.37-168.84l-69.79-.09c-3.16,0-5.73,2.55-5.73,5.72l-.39,284.88c-.01,7.48,18.17,13.57,40.6,13.6s40.63-6.01,40.64-13.49l.39-284.88c0-3.16-2.55-5.73-5.72-5.73h0Z"/>
          <path class="st3" d="M155.37-168.84l-69.79-.09c-3.16,0-5.73,2.55-5.73,5.72l-.39,284.88c-.01,7.48,18.17,13.57,40.6,13.6s40.63-6.01,40.64-13.49l.39-284.88c0-3.16-2.55-5.73-5.72-5.73h0Z"/>
        </g>
      </g>
    </g>
  </g>
</svg>