<?xml version="1.0" encoding="UTF-8"?>
<svg xmlns="http://www.w3.org/2000/svg" xmlns:xlink="http://www.w3.org/1999/xlink" version="1.1" viewBox="0 0 350 550">
  <!-- Generator: Adobe Illustrator 29.5.0, SVG Export Plug-In . SVG Version: 2.1.0 Build 137)  -->
  <defs>
    <style>
      .st0 {
        fill: url(#linear-gradient6);
      }

      .st0, .st1, .st2, .st3, .st4, .st5, .st6, .st7, .st8, .st9, .st10, .st11 {
        opacity: .44;
      }

      .st0, .st1, .st2, .st3, .st4, .st5, .st6, .st7, .st10, .st11 {
        mix-blend-mode: darken;
      }

      .st1 {
        fill: url(#linear-gradient4);
      }

      .st2 {
        fill: url(#linear-gradient5);
      }

      .st3 {
        fill: url(#linear-gradient7);
      }

      .st4 {
        fill: url(#linear-gradient3);
      }

      .st5 {
        fill: url(#linear-gradient1);
      }

      .st6 {
        fill: url(#linear-gradient2);
      }

      .st12 {
        fill: #58595b;
      }

      .st13 {
        fill: #414042;
      }

      .st14 {
        fill: #6d6e71;
      }

      .st15 {
        fill: url(#linear-gradient18);
      }

      .st16 {
        fill: url(#linear-gradient15);
      }

      .st17 {
        fill: url(#linear-gradient16);
      }

      .st18 {
        fill: url(#linear-gradient17);
      }

      .st19 {
        fill: url(#linear-gradient14);
      }

      .st20 {
        fill: url(#linear-gradient19);
      }

      .st21 {
        fill: url(#linear-gradient23);
      }

      .st22 {
        fill: url(#linear-gradient25);
      }

      .st23 {
        fill: url(#linear-gradient21);
      }

      .st24 {
        fill: url(#linear-gradient20);
      }

      .st7 {
        fill: url(#linear-gradient);
      }

      .st25 {
        fill: #efefef;
      }

      .st26 {
        fill: #55555e;
      }

      .st27 {
        fill: #4d4d4d;
      }

      .st28 {
        isolation: isolate;
      }

      .st29 {
        fill: #aeadb1;
      }

      .st30 {
        fill: url(#linear-gradient10);
        fill-opacity: 0;
        stroke: url(#linear-gradient11);
        stroke-opacity: .45;
      }

      .st30, .st31, .st32, .st33, .st34, .st35, .st36 {
        mix-blend-mode: overlay;
      }

      .st30, .st37, .st38, .st39, .st40, .st41, .st42, .st43, .st44, .st45, .st46, .st47, .st48, .st49, .st50, .st51, .st52, .st53, .st54, .st55, .st56, .st57, .st58, .st59, .st60, .st61, .st62, .st63, .st64, .st65, .st66, .st67, .st68, .st69, .st70, .st71, .st72 {
        stroke-miterlimit: 10;
      }

      .st30, .st72 {
        stroke-width: .99px;
      }

      .st73 {
        clip-path: url(#clippath-1);
      }

      .st74 {
        fill: url(#White_Black_2);
      }

      .st31 {
        fill: url(#linear-gradient24);
      }

      .st8 {
        fill: url(#linear-gradient22);
      }

      .st8, .st9 {
        mix-blend-mode: multiply;
      }

      .st9 {
        fill: url(#linear-gradient13);
      }

      .st75 {
        fill: url(#linear-gradient12);
        fill-opacity: .68;
        mix-blend-mode: color;
      }

      .st76 {
        fill: #fff;
      }

      .st37 {
        stroke: #000;
        stroke-width: .57px;
      }

      .st37, .st38, .st39, .st40, .st41, .st42, .st43, .st44, .st45, .st46, .st47, .st48, .st49, .st50, .st51, .st52, .st53, .st54, .st55, .st56, .st57, .st58, .st59, .st60, .st61, .st62, .st63, .st64, .st65, .st66, .st67, .st68, .st69, .st70, .st71 {
        fill: none;
      }

      .st77 {
        opacity: .22;
      }

      .st78 {
        opacity: .32;
      }

      .st33 {
        opacity: .49;
      }

      .st34 {
        opacity: .54;
      }

      .st35 {
        opacity: .58;
      }

      .st36 {
        opacity: .68;
      }

      .st79 {
        fill: #f2f2f2;
      }

      .st80 {
        fill: #b3b3b3;
      }

      .st10 {
        fill: url(#linear-gradient61);
      }

      .st11 {
        fill: url(#linear-gradient26);
      }

      .st38 {
        stroke: url(#linear-gradient53);
      }

      .st38, .st39, .st40, .st41, .st42, .st43, .st44, .st45, .st46, .st47, .st48, .st49, .st50, .st51, .st52, .st53, .st54, .st55, .st56, .st57, .st58, .st59, .st60, .st61, .st62, .st63, .st64, .st65, .st66, .st67, .st68, .st69, .st70, .st71 {
        opacity: .57;
        stroke-linecap: round;
        stroke-width: 1.35px;
      }

      .st39 {
        stroke: url(#linear-gradient58);
      }

      .st40 {
        stroke: url(#linear-gradient59);
      }

      .st41 {
        stroke: url(#linear-gradient52);
      }

      .st42 {
        stroke: url(#linear-gradient50);
      }

      .st43 {
        stroke: url(#linear-gradient51);
      }

      .st44 {
        stroke: url(#linear-gradient57);
      }

      .st45 {
        stroke: url(#linear-gradient54);
      }

      .st46 {
        stroke: url(#linear-gradient55);
      }

      .st47 {
        stroke: url(#linear-gradient56);
      }

      .st48 {
        stroke: url(#linear-gradient29);
      }

      .st49 {
        stroke: url(#linear-gradient27);
      }

      .st50 {
        stroke: url(#linear-gradient28);
      }

      .st51 {
        stroke: url(#linear-gradient40);
      }

      .st52 {
        stroke: url(#linear-gradient46);
      }

      .st53 {
        stroke: url(#linear-gradient44);
      }

      .st54 {
        stroke: url(#linear-gradient38);
      }

      .st55 {
        stroke: url(#linear-gradient32);
      }

      .st56 {
        stroke: url(#linear-gradient30);
      }

      .st57 {
        stroke: url(#linear-gradient31);
      }

      .st58 {
        stroke: url(#linear-gradient34);
      }

      .st59 {
        stroke: url(#linear-gradient36);
      }

      .st60 {
        stroke: url(#linear-gradient35);
      }

      .st61 {
        stroke: url(#linear-gradient39);
      }

      .st62 {
        stroke: url(#linear-gradient37);
      }

      .st63 {
        stroke: url(#linear-gradient33);
      }

      .st64 {
        stroke: url(#linear-gradient60);
      }

      .st65 {
        stroke: url(#linear-gradient49);
      }

      .st66 {
        stroke: url(#linear-gradient47);
      }

      .st67 {
        stroke: url(#linear-gradient42);
      }

      .st68 {
        stroke: url(#linear-gradient48);
      }

      .st69 {
        stroke: url(#linear-gradient43);
      }

      .st70 {
        stroke: url(#linear-gradient45);
      }

      .st71 {
        stroke: url(#linear-gradient41);
      }

      .st72 {
        fill: url(#linear-gradient8);
        fill-opacity: .42;
        stroke: url(#linear-gradient9);
      }

      .st81 {
        fill: #333;
      }

      .st82 {
        fill: #87888a;
      }

      .st83 {
        clip-path: url(#clippath);
      }
    </style>
    <linearGradient id="linear-gradient" x1="-2627.8" y1="-1660.83" x2="-2532.55" y2="-1660.83" gradientTransform="translate(2826.87 2117.66)" gradientUnits="userSpaceOnUse">
      <stop offset=".02" stop-color="#231f20"/>
      <stop offset=".06" stop-color="#2d292a"/>
      <stop offset=".12" stop-color="#494647"/>
      <stop offset=".21" stop-color="#777475"/>
      <stop offset=".31" stop-color="#b6b4b5"/>
      <stop offset=".42" stop-color="#fff"/>
      <stop offset=".43" stop-color="#f6f6f6"/>
      <stop offset=".54" stop-color="#b6b5b5"/>
      <stop offset=".64" stop-color="#827f80"/>
      <stop offset=".74" stop-color="#585556"/>
      <stop offset=".82" stop-color="#3b3738"/>
      <stop offset=".9" stop-color="#292526"/>
      <stop offset=".95" stop-color="#231f20"/>
    </linearGradient>
    <linearGradient id="linear-gradient1" x1="-2619.3" y1="-1701.73" x2="-2541.57" y2="-1701.73" xlink:href="#linear-gradient"/>
    <linearGradient id="linear-gradient2" x1="-2589.5" y1="-1707.52" x2="-2571.31" y2="-1707.52" xlink:href="#linear-gradient"/>
    <linearGradient id="linear-gradient3" x1="-2589.49" y1="-1696.58" x2="-2571.31" y2="-1696.58" xlink:href="#linear-gradient"/>
    <linearGradient id="linear-gradient4" x1="-2587.77" y1="-1725.34" x2="-2573.04" y2="-1725.34" xlink:href="#linear-gradient"/>
    <linearGradient id="linear-gradient5" x1="-2592.12" y1="-1740.4" x2="-2568.69" y2="-1740.4" xlink:href="#linear-gradient"/>
    <linearGradient id="linear-gradient6" x1="-2589.34" y1="-1744.61" x2="-2571.24" y2="-1744.61" xlink:href="#linear-gradient"/>
    <linearGradient id="linear-gradient7" x1="-2606.9" y1="-1682.44" x2="-2553.46" y2="-1682.44" xlink:href="#linear-gradient"/>
    <linearGradient id="linear-gradient8" x1="-2619.3" y1="-1721.35" x2="-2541.6" y2="-1721.35" gradientTransform="translate(2826.87 2117.66)" gradientUnits="userSpaceOnUse">
      <stop offset="0" stop-color="#fff"/>
      <stop offset="1" stop-color="#a7a9ac"/>
    </linearGradient>
    <linearGradient id="linear-gradient9" x1="-2619.85" y1="-1721.1" x2="-2541.05" y2="-1721.1" gradientTransform="translate(2826.87 2117.66)" gradientUnits="userSpaceOnUse">
      <stop offset="0" stop-color="#fff"/>
      <stop offset="1" stop-color="#231f20" stop-opacity=".2"/>
    </linearGradient>
    <linearGradient id="linear-gradient10" x1="-2618.78" y1="-1721.35" x2="-2541.09" y2="-1721.35" gradientTransform="translate(2826.87 2117.66)" gradientUnits="userSpaceOnUse">
      <stop offset="0" stop-color="#fff"/>
      <stop offset=".5" stop-color="#a7a9ac"/>
      <stop offset=".96" stop-color="#fff"/>
    </linearGradient>
    <linearGradient id="linear-gradient11" x1="-2619.33" y1="-1721.1" x2="-2540.53" y2="-1721.1" gradientTransform="translate(2826.87 2117.66)" gradientUnits="userSpaceOnUse">
      <stop offset=".24" stop-color="#808285" stop-opacity=".5"/>
      <stop offset="1" stop-color="#fff"/>
    </linearGradient>
    <linearGradient id="linear-gradient12" x1="-2619.29" y1="-1721.34" x2="-2565.8" y2="-1721.34" gradientTransform="translate(2826.87 2117.66)" gradientUnits="userSpaceOnUse">
      <stop offset="0" stop-color="#fff" stop-opacity=".3"/>
      <stop offset="1" stop-color="#231f20" stop-opacity=".1"/>
    </linearGradient>
    <linearGradient id="linear-gradient13" x1="-2619.29" y1="-1721.34" x2="-2565.8" y2="-1721.34" gradientTransform="translate(2826.87 2117.66)" gradientUnits="userSpaceOnUse">
      <stop offset="0" stop-color="#fff" stop-opacity=".1"/>
      <stop offset=".4" stop-color="#818781" stop-opacity=".22"/>
      <stop offset="1" stop-color="#2d372d" stop-opacity=".3"/>
    </linearGradient>
    <linearGradient id="linear-gradient14" x1="219.2" y1="390.13" x2="231.3" y2="390.13" gradientUnits="userSpaceOnUse">
      <stop offset="0" stop-color="#231f20"/>
      <stop offset="1" stop-color="#fff"/>
    </linearGradient>
    <linearGradient id="linear-gradient15" x1="213.04" y1="440.46" x2="278.64" y2="440.46" gradientUnits="userSpaceOnUse">
      <stop offset="0" stop-color="#fff"/>
      <stop offset="1" stop-color="#231f20"/>
    </linearGradient>
    <linearGradient id="linear-gradient16" x1="261.54" y1="389.93" x2="273.64" y2="389.93" xlink:href="#linear-gradient14"/>
    <linearGradient id="linear-gradient17" x1="234.37" y1="359.15" x2="258.78" y2="359.15" xlink:href="#linear-gradient15"/>
    <linearGradient id="linear-gradient18" x1="229.05" y1="379.28" x2="263.54" y2="379.28" xlink:href="#linear-gradient15"/>
    <linearGradient id="linear-gradient19" x1="232.28" y1="394.39" x2="260.3" y2="394.39" xlink:href="#linear-gradient15"/>
    <linearGradient id="linear-gradient20" x1="226.29" y1="412.64" x2="266.3" y2="412.64" xlink:href="#linear-gradient15"/>
    <linearGradient id="linear-gradient21" x1="237.91" y1="394.01" x2="254.67" y2="394.01" gradientUnits="userSpaceOnUse">
      <stop offset="0" stop-color="#231f20"/>
      <stop offset=".29" stop-color="#242021"/>
      <stop offset=".39" stop-color="#2b2728"/>
      <stop offset=".46" stop-color="#373334"/>
      <stop offset=".52" stop-color="#474445"/>
      <stop offset=".58" stop-color="#5d5a5b"/>
      <stop offset=".62" stop-color="#787576"/>
      <stop offset=".66" stop-color="#979696"/>
      <stop offset=".7" stop-color="#bcbbbc"/>
      <stop offset=".73" stop-color="#e5e4e5"/>
      <stop offset=".75" stop-color="#fff"/>
    </linearGradient>
    <linearGradient id="White_Black_2" data-name="White, Black 2" x1="229.92" y1="409.28" x2="263.47" y2="409.28" gradientUnits="userSpaceOnUse">
      <stop offset="0" stop-color="#fff"/>
      <stop offset="1" stop-color="#231f20"/>
    </linearGradient>
    <linearGradient id="linear-gradient22" x1="-2599.97" y1="-1721.32" x2="-2561.19" y2="-1721.32" xlink:href="#linear-gradient13"/>
    <linearGradient id="linear-gradient23" x1="-2573.49" y1="-1690.43" x2="-2553.68" y2="-1690.43" xlink:href="#linear-gradient13"/>
    <linearGradient id="linear-gradient24" x1="-2606.89" y1="-1867.76" x2="-2554.47" y2="-1867.76" gradientTransform="translate(2826.87 2117.66)" gradientUnits="userSpaceOnUse">
      <stop offset="0" stop-color="#f1f2f2"/>
      <stop offset=".05" stop-color="#f0f1f1" stop-opacity=".95"/>
      <stop offset=".15" stop-color="#f0f1f1" stop-opacity=".81"/>
      <stop offset=".28" stop-color="#f0f0f0" stop-opacity=".58"/>
      <stop offset=".43" stop-color="#efefef" stop-opacity=".27"/>
      <stop offset=".51" stop-color="#efefef" stop-opacity=".1"/>
      <stop offset="1" stop-color="#231f20"/>
    </linearGradient>
    <clipPath id="clippath">
      <path class="st27" d="M224.01,73.48v-7.94c0-2.74,1.51-5.26,3.94-6.54h0c1.86-.99,4.04-1.17,6.05-.5,5.02,1.68,15.26,4.6,23.27,3.58,3.39-.43,5.79-.82,7.49-1.14,2.14-.4,4.11,1.24,4.11,3.41v9.12c0,.27-.22.48-.48.48h-43.89c-.27,0-.48-.22-.48-.48Z"/>
    </clipPath>
    <linearGradient id="linear-gradient25" x1="-2602.86" y1="-2051.62" x2="-2558.01" y2="-2051.62" gradientTransform="translate(2826.87 2117.66)" gradientUnits="userSpaceOnUse">
      <stop offset="0" stop-color="#fff" stop-opacity=".3"/>
      <stop offset="1" stop-color="#2484c6" stop-opacity="0"/>
    </linearGradient>
    <linearGradient id="linear-gradient26" x1="-2606.4" y1="-2005.7" x2="-2554.47" y2="-2005.7" gradientTransform="translate(2826.87 2117.66)" gradientUnits="userSpaceOnUse">
      <stop offset="0" stop-color="#fff" stop-opacity=".1"/>
      <stop offset="1" stop-color="#231f20" stop-opacity=".6"/>
    </linearGradient>
    <clipPath id="clippath-1">
      <rect class="st11" x="220.47" y="73.97" width="51.93" height="75.98" rx="2.87" ry="2.87"/>
    </clipPath>
    <linearGradient id="linear-gradient27" x1="-2602.4" x2="-2601.05" xlink:href="#linear-gradient26"/>
    <linearGradient id="linear-gradient28" x1="-2605.21" x2="-2603.85" xlink:href="#linear-gradient26"/>
    <linearGradient id="linear-gradient29" x1="-2560.28" x2="-2558.93" xlink:href="#linear-gradient26"/>
    <linearGradient id="linear-gradient30" x1="-2557.47" x2="-2556.12" xlink:href="#linear-gradient26"/>
    <linearGradient id="linear-gradient31" x1="-2563.09" x2="-2561.74" xlink:href="#linear-gradient26"/>
    <linearGradient id="linear-gradient32" x1="-2565.9" x2="-2564.54" xlink:href="#linear-gradient26"/>
    <linearGradient id="linear-gradient33" x1="-2568.7" x2="-2567.35" xlink:href="#linear-gradient26"/>
    <linearGradient id="linear-gradient34" x1="-2571.51" x2="-2570.16" xlink:href="#linear-gradient26"/>
    <linearGradient id="linear-gradient35" x1="-2574.32" x2="-2572.97" xlink:href="#linear-gradient26"/>
    <linearGradient id="linear-gradient36" x1="-2582.74" x2="-2581.39" xlink:href="#linear-gradient26"/>
    <linearGradient id="linear-gradient37" x1="-2577.13" x2="-2575.77" xlink:href="#linear-gradient26"/>
    <linearGradient id="linear-gradient38" x1="-2579.94" x2="-2578.58" xlink:href="#linear-gradient26"/>
    <linearGradient id="linear-gradient39" x1="-2585.55" x2="-2584.2" xlink:href="#linear-gradient26"/>
    <linearGradient id="linear-gradient40" x1="-2588.36" x2="-2587.01" xlink:href="#linear-gradient26"/>
    <linearGradient id="linear-gradient41" x1="-2591.17" x2="-2589.81" xlink:href="#linear-gradient26"/>
    <linearGradient id="linear-gradient42" x1="-2593.98" x2="-2592.62" xlink:href="#linear-gradient26"/>
    <linearGradient id="linear-gradient43" x1="-2596.78" x2="-2595.43" xlink:href="#linear-gradient26"/>
    <linearGradient id="linear-gradient44" x1="-2599.59" x2="-2598.24" xlink:href="#linear-gradient26"/>
    <linearGradient id="linear-gradient45" x1="-2650.13" x2="-2648.78" xlink:href="#linear-gradient26"/>
    <linearGradient id="linear-gradient46" x1="-2608.01" x2="-2606.66" xlink:href="#linear-gradient26"/>
    <linearGradient id="linear-gradient47" x1="-2610.82" x2="-2609.47" xlink:href="#linear-gradient26"/>
    <linearGradient id="linear-gradient48" x1="-2613.63" x2="-2612.28" xlink:href="#linear-gradient26"/>
    <linearGradient id="linear-gradient49" x1="-2616.44" x2="-2615.08" xlink:href="#linear-gradient26"/>
    <linearGradient id="linear-gradient50" x1="-2619.25" x2="-2617.89" xlink:href="#linear-gradient26"/>
    <linearGradient id="linear-gradient51" x1="-2622.05" x2="-2620.7" xlink:href="#linear-gradient26"/>
    <linearGradient id="linear-gradient52" x1="-2630.48" x2="-2629.12" xlink:href="#linear-gradient26"/>
    <linearGradient id="linear-gradient53" x1="-2624.86" x2="-2623.51" xlink:href="#linear-gradient26"/>
    <linearGradient id="linear-gradient54" x1="-2627.67" x2="-2626.32" xlink:href="#linear-gradient26"/>
    <linearGradient id="linear-gradient55" x1="-2633.29" x2="-2631.93" xlink:href="#linear-gradient26"/>
    <linearGradient id="linear-gradient56" x1="-2636.09" x2="-2634.74" xlink:href="#linear-gradient26"/>
    <linearGradient id="linear-gradient57" x1="-2638.9" x2="-2637.55" xlink:href="#linear-gradient26"/>
    <linearGradient id="linear-gradient58" x1="-2641.71" x2="-2640.36" xlink:href="#linear-gradient26"/>
    <linearGradient id="linear-gradient59" x1="-2644.52" x2="-2643.16" xlink:href="#linear-gradient26"/>
    <linearGradient id="linear-gradient60" x1="-2647.32" x2="-2645.97" xlink:href="#linear-gradient26"/>
    <linearGradient id="linear-gradient61" x1="-2606.89" y1="-1867.76" x2="-2554.47" y2="-1867.76" gradientTransform="translate(2826.87 2117.66)" gradientUnits="userSpaceOnUse">
      <stop offset="0" stop-color="#000" stop-opacity=".2"/>
      <stop offset=".33" stop-color="#040304" stop-opacity=".3"/>
      <stop offset=".69" stop-color="#110f0f" stop-opacity=".6"/>
      <stop offset="1" stop-color="#231f20"/>
    </linearGradient>
  </defs>
  <g class="st28">
    <g id="Layer_1">
      <rect class="st79" width="350" height="550.46"/>
      <g>
        <g>
          <g>
            <path class="st12" d="M291.11,461.47c-3.15,3.55-8.02,5.58-11.65,7.43-1.69.86-3.4,1.69-5.17,2.38-8.32,3.25-17.22,4.9-26.15,4.9h-4.9c-12.31,0-24.32-3.51-34.89-9.83-2.89-1.73-6.02-3.32-7.73-6.37-1.91-3.43-2.43-8.34.68-11.24l.76-.73c.66-.64,1.19-1.39,1.58-2.22l3.79-8.2c.06-.13.22-.16.32-.06,1.79,1.84,15.53,15.17,37.17,15.17h2.95c21.72,0,35.47-13.42,37.19-15.18.09-.1.25-.07.32.05l4.7,8.43c.43.77,1,1.45,1.69,2l.09.08c3.3,2.64,2.88,7.34,1.07,10.79-.5.95-1.12,1.82-1.82,2.61Z"/>
            <path class="st7" d="M291.11,461.47c-3.15,3.55-8.02,5.58-11.65,7.43-1.69.86-3.4,1.69-5.17,2.38-8.32,3.25-17.22,4.9-26.15,4.9h-4.9c-12.31,0-24.32-3.51-34.89-9.83-2.89-1.73-6.02-3.32-7.73-6.37-1.91-3.43-2.43-8.34.68-11.24l.76-.73c.66-.64,1.19-1.39,1.58-2.22l3.79-8.2c.06-.13.22-.16.32-.06,1.79,1.84,15.53,15.17,37.17,15.17h2.95c21.72,0,35.47-13.42,37.19-15.18.09-.1.25-.07.32.05l4.7,8.43c.43.77,1,1.45,1.69,2l.09.08c3.3,2.64,2.88,7.34,1.07,10.79-.5.95-1.12,1.82-1.82,2.61Z"/>
            <path class="st14" d="M253.83,379.15v27.38s1.73,5.55,1.73,5.55v17.03s5.58,0,5.58,0c3.06,0,6.1.5,9,1.47l6.57,2.21c2.7,1.19,5.33,2.55,7.88,4.07l.72.64-.25.02c-1.72,1.77-15.47,15.18-37.19,15.18h-2.95c-21.64,0-35.38-13.33-37.17-15.17l-.17-.08c2.55-1.52,5.95-3.48,8.65-4.66l6.57-2.21c2.9-.98,5.94-1.47,9-1.47h5.58v-17.03l1.73-5.55v-27.38h14.73Z"/>
            <path class="st5" d="M253.83,379.15v27.38s1.73,5.55,1.73,5.55v17.03s5.58,0,5.58,0c3.06,0,6.1.5,9,1.47l6.57,2.21c2.7,1.19,5.33,2.55,7.88,4.07l.72.64-.25.02c-1.72,1.77-15.47,15.18-37.19,15.18h-2.95c-21.64,0-35.38-13.33-37.17-15.17l-.17-.08c2.55-1.52,5.95-3.48,8.65-4.66l6.57-2.21c2.9-.98,5.94-1.47,9-1.47h5.58v-17.03l1.73-5.55v-27.38h14.73Z"/>
            <path class="st13" d="M269.45,429.9c.22,1.29-10,3.36-22.51,3.36s-23.08-2.05-23-3.36c.06-1,10.27-2.24,22.78-2.24s22.54,1.12,22.73,2.24Z"/>
            <path class="st13" d="M291.26,453.86c-21.19,17.79-54.34,19.73-78.66,7.35-3.5-1.85-6.89-3.94-9.98-6.41,6.47,4.54,13.69,7.93,21.22,10.14,22.51,6.25,48.54,3.25,67.42-11.08h0Z"/>
            <path class="st13" d="M280.25,447.79c1.23,2.86,1.97,5.86,2.21,8.96-1.24-2.86-1.97-5.86-2.21-8.96h0Z"/>
            <path class="st13" d="M215.51,447.79c-.24,3.11-.97,6.1-2.21,8.96.24-3.11.98-6.1,2.21-8.96h0Z"/>
            <path class="st12" d="M269.45,429.9l3.66,2.91c.37.3.41.85.08,1.19-.66.69-2.01,2.04-5.18,3.04-25,7.83-42.63,0-42.63,0-3.08-1.23-4.52-2.35-5.18-3.04-.33-.35-.3-.89.08-1.19l3.66-2.91s21.9,7.56,45.52,0Z"/>
            <path class="st12" d="M237.38,412.24c0,.85,4.07,1.55,9.09,1.55s9.09-.69,9.09-1.55v16.11c0,.85-4.07,1.55-9.09,1.55s-9.09-.69-9.09-1.55v-16.11Z"/>
            <path class="st12" d="M253.83,406.49c0,.61-3.3,1.11-7.36,1.11s-7.36-.5-7.36-1.11v-29.46h14.73v29.46Z"/>
            <path class="st6" d="M237.38,412.25v-.16l1.73-5.56v-.04c0,.62,3.29,1.11,7.36,1.11s7.37-.5,7.37-1.11v.04l1.73,5.56v.16c0,.85-4.08,1.54-9.1,1.54s-9.09-.69-9.09-1.54Z"/>
            <path class="st4" d="M237.38,412.24c0,.85,4.07,1.55,9.09,1.55s9.09-.69,9.09-1.55v16.11c0,.85-4.07,1.55-9.09,1.55s-9.09-.69-9.09-1.55v-16.11Z"/>
            <path class="st1" d="M253.83,406.49c0,.61-3.3,1.11-7.36,1.11s-7.36-.5-7.36-1.11v-29.46h14.73v29.46Z"/>
            <path class="st12" d="M238.04,374.63s-2.69,1.2-3.28,3.94c0,0,7.17,2.96,22.94-.04.16-.03.32-.06.49-.09,0,0,.27-1.51-2.93-3.81h-17.21Z"/>
            <path class="st12" d="M255.64,374.71c-.62.32-1.32.5-2.07.5h-14.21c-.65,0-1.27-.14-1.83-.38,1.32-2.3,4.89-3.95,9.09-3.95s7.65,1.59,9.02,3.83Z"/>
            <path class="st2" d="M238.04,374.63s-2.69,1.2-3.28,3.94c0,0,7.17,2.96,22.94-.04.16-.03.32-.06.49-.09,0,0,.27-1.51-2.93-3.81h-17.21Z"/>
            <path class="st0" d="M255.64,374.71c-.62.32-1.32.5-2.07.5h-14.21c-.65,0-1.27-.14-1.83-.38,1.32-2.3,4.89-3.95,9.09-3.95s7.65,1.59,9.02,3.83Z"/>
            <path class="st3" d="M269.45,429.9l3.66,2.91c.37.3.41.85.08,1.19-.66.69-2.01,2.04-5.18,3.04-25,7.83-42.63,0-42.63,0-3.08-1.23-4.52-2.35-5.18-3.04-.33-.35-.3-.89.08-1.19l3.66-2.91s21.9,7.56,45.52,0Z"/>
          </g>
          <g>
            <path class="st72" d="M271.89,339.35l1.59,79.79c.05,2.7,1.22,5.26,3.23,7.06l5.72,5.14c.89.8,1.54,1.84,1.86,3l.98,3.54s-14.12,15.38-37.37,15.38h-2.95c-23.25,0-37.37-15.38-37.37-15.38l.98-3.54c.32-1.16.96-2.2,1.86-3l5.72-5.14c2.01-1.8,3.18-4.36,3.23-7.06l1.59-79.79"/>
            <path class="st30" d="M272.41,339.35l1.59,79.79c.05,2.7,1.22,5.26,3.23,7.06l5.72,5.14c.89.8,1.54,1.84,1.86,3l.98,3.54s-14.12,15.38-37.37,15.38h-2.95c-23.25,0-37.37-15.38-37.37-15.38l.98-3.54c.32-1.16.96-2.2,1.86-3l5.72-5.14c2.01-1.8,3.18-4.36,3.23-7.06l1.59-79.79"/>
            <path class="st75" d="M261.07,451.57c-3.98,1.04-8.38,1.7-13.17,1.7h-2.95c-23.24,0-37.37-15.38-37.37-15.38l.97-3.54c.32-1.16.96-2.21,1.86-3l5.72-5.14c2.02-1.81,3.18-4.36,3.24-7.07l1.58-79.78h7.01c-1.14,9-4.96,43.01.29,56.96,6.07,16.15,12.16,4.76,8.83,19.56-3.33,14.8-.58,29.36,9.62,29.57,6.31.14,11.41,3.56,14.38,6.13Z"/>
            <path class="st9" d="M261.07,451.57c-3.98,1.04-8.38,1.7-13.17,1.7h-2.95c-23.24,0-37.37-15.38-37.37-15.38l.97-3.54c.32-1.16.96-2.21,1.86-3l5.72-5.14c2.02-1.81,3.18-4.36,3.24-7.07l1.58-79.78h7.01c-1.14,9-4.96,43.01.29,56.96,6.07,16.15,14.68,11.46,6.08,23.95-15.25,22.15,2.17,24.97,12.37,25.18,6.31.14,11.41,3.56,14.38,6.13Z"/>
            <g class="st32">
              <path class="st19" d="M230.8,341.42c-.07,5.46-.17,10.92-.3,16.38l-.44,16.37-.53,16.37-.62,16.37v.08s-.03.07-.03.07l-1.58,3.95.03-.15c-.1,2.81-.21,5.61-.35,8.42l-.19,4.21-.09,2.1c-.02.69-.08,1.45-.26,2.15-.37,1.41-1.14,2.72-2.22,3.69-1.11.92-2.22,1.74-3.32,2.62l-.82.64c-.22.18-.3.53-.17.8.35.51.96.96,1.51,1.36,1.15.79,2.41,1.43,3.7,1.99-1.31-.5-2.61-1.07-3.8-1.83-.59-.41-1.18-.76-1.64-1.4-.19-.36-.1-.85.21-1.13l.81-.68c1.07-.9,2.18-1.8,3.21-2.71.98-.94,1.67-2.17,1.99-3.48.16-.67.2-1.31.2-2.03l.05-2.11.1-4.21c.06-2.81.14-5.62.23-8.43v-.07s.03-.07.03-.07l1.55-3.96-.03.15.55-16.37.64-16.37.74-16.36c.26-5.45.55-10.91.87-16.36Z"/>
            </g>
            <g class="st77">
              <path class="st16" d="M278.35,435.79c-2.32,1.71-4.8,3.24-7.38,4.56-2.59,1.3-5.29,2.39-8.06,3.27-5.54,1.76-11.43,2.42-17.21,2.32-5.81.01-11.66-.83-17.15-2.74-2.75-.95-5.41-2.11-7.97-3.48-2.54-1.39-4.98-2.97-7.26-4.74,4.79,3.21,9.99,5.79,15.47,7.49,2.74.83,5.52,1.52,8.36,1.93,2.83.42,5.69.55,8.56.55,2.9.05,5.73,0,8.58-.36,2.84-.33,5.65-.93,8.41-1.69,5.52-1.56,10.78-4,15.65-7.09Z"/>
            </g>
            <g class="st35">
              <path class="st17" d="M262.04,341.42c.32,5.43.61,10.86.87,16.29l.74,16.3.64,16.3.55,16.3-.03-.15,1.55,3.94.03.07v.07s.23,8.4.23,8.4l.1,4.2.05,2.1c0,.71.05,1.36.21,2.02.32,1.31,1.01,2.53,2,3.46,1.03.9,2.14,1.8,3.2,2.69l.81.68c.31.28.39.77.19,1.13-.47.63-1.05.99-1.64,1.39-1.19.76-2.49,1.32-3.79,1.82,1.28-.56,2.54-1.19,3.69-1.97.55-.39,1.16-.84,1.51-1.35.13-.27.06-.61-.16-.8l-.82-.64c-1.11-.87-2.21-1.69-3.32-2.6-1.08-.96-1.85-2.26-2.23-3.67-.19-.7-.25-1.46-.27-2.14l-.09-2.1-.19-4.2-.35-8.4.03.15-1.58-3.93-.03-.07v-.08s-.63-16.3-.63-16.3l-.53-16.3-.44-16.31c-.13-5.44-.23-10.87-.3-16.31Z"/>
            </g>
            <g class="st34">
              <path class="st18" d="M234.87,342.04c.2,7.24.3,14.49.38,21.73l.05,5.43v1.36c.01.47,0,.89.07,1.28.13.81.52,1.57,1.08,2.16.56.59,1.29,1.02,2.09,1.2.41.09.78.11,1.24.1h1.36s5.43-.03,5.43-.03l5.43.02h1.36c.47.02.83,0,1.24-.09.79-.18,1.53-.61,2.09-1.2.56-.59.95-1.35,1.08-2.16.07-.39.06-.82.06-1.28v-1.36s.05-5.43.05-5.43l.14-10.87.24-10.87.24,10.87.14,10.87.05,5.43v1.36c0,.44.03.93-.06,1.43-.16.98-.62,1.91-1.29,2.64-.68.73-1.57,1.25-2.54,1.48-.47.12-1.02.14-1.45.14h-1.36s-5.43.03-5.43.03l-5.43-.02h-1.36c-.44,0-.98-.02-1.45-.14-.97-.22-1.87-.75-2.54-1.48-.68-.73-1.14-1.66-1.29-2.64-.08-.5-.06-.99-.06-1.43v-1.36s.05-5.43.05-5.43c.08-7.24.18-14.49.38-21.73Z"/>
            </g>
            <g class="st32">
              <path class="st15" d="M262.97,376.73c.04.79-.6,1.43-1.21,1.87-.63.45-1.32.8-2.02,1.1-1.42.57-2.9.95-4.39,1.27-2.98.62-6.03.83-9.06.85-3.03-.02-6.08-.23-9.06-.85-1.49-.31-2.97-.7-4.39-1.27-.7-.3-1.39-.65-2.02-1.1-.6-.44-1.24-1.08-1.2-1.87.09.78.76,1.25,1.37,1.62.64.36,1.34.62,2.05.83,1.41.45,2.88.73,4.35.93,2.95.4,5.93.58,8.91.58,2.98,0,5.96-.17,8.91-.58,1.47-.2,2.94-.49,4.35-.93.71-.21,1.4-.47,2.05-.83.61-.37,1.28-.84,1.37-1.62Z"/>
            </g>
            <g class="st36">
              <path class="st20" d="M232.78,378.78c.21,6.83.3,13.66.38,20.49l.05,5.12c.02.67.5,1.31,1.11,1.8.61.5,1.35.88,2.11,1.19,3.08,1.25,6.51,1.61,9.86,1.62,3.35-.02,6.78-.38,9.86-1.62.76-.31,1.5-.69,2.11-1.19.61-.49,1.09-1.12,1.11-1.8l.05-5.12.14-10.24c.08-3.41.13-6.83.24-10.24.11,3.41.16,6.83.24,10.24l.14,10.24c.03,1.71.05,3.41.04,5.13-.03,1.07-.72,1.9-1.41,2.47-.71.59-1.51,1-2.32,1.35-3.26,1.35-6.76,1.74-10.21,1.78-3.45-.05-6.95-.44-10.21-1.78-.81-.34-1.61-.76-2.32-1.35-.69-.57-1.38-1.4-1.41-2.47l.05-5.13c.08-6.83.18-13.66.38-20.49Z"/>
            </g>
            <g class="st32">
              <path class="st24" d="M265.69,409.5c.05.92-.63,1.72-1.32,2.25-.71.57-1.51.99-2.32,1.37-1.65.73-3.38,1.22-5.12,1.6-3.5.75-7.07,1.03-10.63,1.05-3.56-.02-7.13-.3-10.63-1.05-1.74-.38-3.48-.87-5.12-1.6-.81-.38-1.62-.81-2.32-1.37-.69-.54-1.37-1.33-1.32-2.26.09.91.81,1.53,1.51,1.99.73.47,1.54.8,2.36,1.08,1.64.57,3.36.93,5.08,1.22,3.45.55,6.95.77,10.45.77,3.5,0,7-.22,10.45-.77,1.72-.29,3.44-.64,5.08-1.22.82-.28,1.63-.61,2.36-1.08.7-.46,1.42-1.09,1.51-1.99Z"/>
            </g>
            <g class="st33">
              <path class="st23" d="M238.41,380.44c.17,5.44.28,10.88.34,16.31l.06,4.08.02,2.04v1.02c0,.2,0,.29.03.39.03.11.09.21.16.32.31.43.88.76,1.46,1.02.59.25,1.22.44,1.86.58,1.29.28,2.62.39,3.94.38,1.33,0,2.66-.1,3.94-.38.64-.14,1.27-.32,1.86-.58.58-.25,1.15-.59,1.46-1.02.07-.11.13-.21.16-.32.03-.1.03-.2.03-.39v-1.02s.02-2.04.02-2.04l.06-4.08c.07-5.44.17-10.88.34-16.31.17,5.44.28,10.88.34,16.31l.06,4.08.02,2.04v1.02c0,.14.01.39-.05.62-.06.22-.16.42-.28.59-.49.68-1.16,1.04-1.81,1.34-.66.3-1.33.5-2.02.66-1.37.32-2.76.45-4.15.47-1.39-.01-2.78-.15-4.15-.47-.68-.16-1.36-.37-2.02-.66-.65-.31-1.31-.66-1.81-1.34-.12-.17-.22-.37-.28-.59-.06-.23-.05-.48-.05-.62v-1.02s.03-2.04.03-2.04l.06-4.08c.07-5.44.17-10.88.34-16.31Z"/>
            </g>
            <g class="st78">
              <path class="st74" d="M262.97,409.28c-.05.37-.45.52-.74.67-.32.14-.65.24-.99.34-.67.19-1.36.32-2.04.44-1.37.23-2.76.39-4.15.52-2.78.27-5.56.43-8.35.49-2.79.05-5.59.04-8.38-.14-1.4-.1-2.79-.24-4.19-.45-.7-.11-1.4-.23-2.1-.41-.35-.09-.7-.19-1.06-.34-.18-.08-.36-.16-.55-.3-.16-.12-.46-.32-.5-.81.03-.49.33-.69.5-.81.19-.14.37-.22.55-.3.36-.15.71-.25,1.06-.34.7-.18,1.4-.31,2.1-.41,1.4-.21,2.79-.35,4.19-.45,2.79-.18,5.59-.19,8.38-.14,2.79.06,5.58.22,8.35.49,1.39.13,2.77.28,4.15.52.69.12,1.37.25,2.04.44.34.1.67.2.99.34.29.15.69.3.74.67ZM262.97,409.28c-.06-.36-.46-.51-.75-.65-.32-.14-.66-.23-.99-.32-.67-.17-1.36-.3-2.05-.4-1.38-.21-2.76-.34-4.15-.44-2.78-.18-5.56-.19-8.34-.13-2.78.06-5.55.22-8.31.49-1.38.13-2.75.28-4.11.51-.68.12-1.35.25-1.99.43-.32.09-.64.19-.92.31-.14.06-.27.13-.36.2-.12.07-.1.15-.08.01-.02-.13-.04-.05.08.01.09.07.23.14.36.2.28.13.6.22.92.31.65.18,1.32.31,1.99.43,1.35.23,2.73.39,4.11.51,2.76.27,5.53.43,8.31.49,2.78.05,5.56.04,8.34-.14,1.39-.1,2.77-.23,4.15-.44.69-.11,1.37-.23,2.05-.4.34-.09.67-.18.99-.32.29-.14.69-.29.75-.65Z"/>
            </g>
            <path class="st8" d="M226.9,409.5c0,2.07,8.68,5.82,19.39,5.82s19.39-3.76,19.39-5.82l-1.31-3.44-1.04-28.71-3.53,1.42v25.59c0,2.83-6.05,5.13-13.51,5.13s-13.51-2.3-13.51-5.13v-25.59l-3.29-1.01-.99,27.34-1.6,4.39Z"/>
            <path class="st21" d="M265.69,410.09s1.09.75-2.71,2.13v18.23s-2.81,12.77-9.59,13.92c0,0,10.81-2.84,18.47-8.08,0,0,2.17-1.16.98-2.11s-6.28-2.91-6.6-9.61c-.33-6.7-.55-14.48-.55-14.48Z"/>
          </g>
          <path class="st25" d="M268.7,151.77h-45.03c-2.04,0-3.69,1.65-3.69,3.69v183.82c0,4.83,11.73,8.74,26.21,8.74s26.21-3.91,26.21-8.74v-183.82c0-2.04-1.65-3.69-3.69-3.69Z"/>
          <path class="st31" d="M268.7,151.77h-45.03c-2.04,0-3.69,1.65-3.69,3.69v183.82c0,4.83,11.73,8.74,26.21,8.74s26.21-3.91,26.21-8.74v-183.82c0-2.04-1.65-3.69-3.69-3.69Z"/>
          <rect class="st29" x="223.57" y="148.12" width="45.72" height="3.64"/>
          <path class="st26" d="M260.66,242.8l-12.47,8.93c-.72.52-1.68.53-2.42.04l-13.51-8.97c-.59-.4-.95-1.06-.95-1.78v-62.11c0-.51.42-.93.93-.93h28.38c.51,0,.93.42.93.93v62.16c0,.69-.33,1.33-.89,1.73Z"/>
          <g>
            <rect class="st82" x="231.82" y="164.05" width="12.04" height="7.46"/>
            <path class="st82" d="M238.79,156.88h-1.88c-2.81,0-5.08,2.28-5.08,5.08v2.09h2.03v-2.08c0-1.69,1.37-3.06,3.04-3.06h1.88c1.69,0,3.06,1.37,3.06,3.06v2.08h2.03v-2.09c0-2.81-2.28-5.08-5.08-5.08Z"/>
          </g>
          <g>
            <rect class="st80" x="250.11" y="164.05" width="10.58" height="7.46"/>
            <path class="st80" d="M264.27,156.88h-.53c-2.81,0-5.08,2.28-5.08,5.08v2.09h2.03v-2.08c0-1.69,1.37-3.06,3.04-3.06h.53c1.69,0,3.06,1.37,3.06,3.06v2.08h2.03v-2.09c0-2.81-2.28-5.08-5.08-5.08Z"/>
          </g>
          <g>
            <path class="st81" d="M268.86,73.97v-8.71c0-2.56-1.42-4.92-3.68-6.12l-.44-.23c-1.75-.93-3.79-1.1-5.67-.47-4.94,1.67-15.35,4.68-23.47,3.64-.11-.01-.22-.03-.33-.04-5.98-.78-11.27,3.87-11.27,9.9v2.02s44.85,0,44.85,0Z"/>
            <g>
              <path class="st27" d="M224.01,73.48v-7.94c0-2.74,1.51-5.26,3.94-6.54h0c1.86-.99,4.04-1.17,6.05-.5,5.02,1.68,15.26,4.6,23.27,3.58,3.39-.43,5.79-.82,7.49-1.14,2.14-.4,4.11,1.24,4.11,3.41v9.12c0,.27-.22.48-.48.48h-43.89c-.27,0-.48-.22-.48-.48Z"/>
              <g class="st83">
                <rect class="st81" x="232.98" y="56.97" width="5.98" height="19.78"/>
                <rect class="st81" x="255.2" y="56.97" width="5.98" height="19.78"/>
                <path class="st22" d="M224.01,73.48v-7.94c0-2.74,1.51-5.26,3.94-6.54h0c1.86-.99,4.04-1.17,6.05-.5,5.02,1.68,15.26,4.6,23.27,3.58,3.39-.43,5.79-.82,7.49-1.14,2.14-.4,4.11,1.24,4.11,3.41v9.12c0,.27-.22.48-.48.48h-43.89c-.27,0-.48-.22-.48-.48Z"/>
              </g>
            </g>
          </g>
          <g>
            <rect class="st25" x="220.47" y="73.97" width="51.93" height="75.98" rx="2.87" ry="2.87"/>
            <g>
              <rect class="st11" x="220.47" y="73.97" width="51.93" height="75.98" rx="2.87" ry="2.87"/>
              <g class="st73">
                <line class="st49" x1="225.15" y1="76.33" x2="225.15" y2="147.58"/>
                <line class="st50" x1="222.34" y1="76.33" x2="222.34" y2="147.58"/>
                <line class="st48" x1="267.27" y1="76.33" x2="267.27" y2="147.58"/>
                <line class="st56" x1="270.08" y1="76.33" x2="270.08" y2="147.58"/>
                <line class="st57" x1="264.46" y1="76.33" x2="264.46" y2="147.58"/>
                <line class="st55" x1="261.65" y1="76.33" x2="261.65" y2="147.58"/>
                <line class="st63" x1="258.84" y1="76.33" x2="258.84" y2="147.58"/>
                <line class="st58" x1="256.04" y1="76.33" x2="256.04" y2="147.58"/>
                <line class="st60" x1="253.23" y1="76.33" x2="253.23" y2="147.58"/>
                <line class="st59" x1="244.8" y1="76.33" x2="244.8" y2="147.58"/>
                <line class="st62" x1="250.42" y1="76.33" x2="250.42" y2="147.58"/>
                <line class="st54" x1="247.61" y1="76.33" x2="247.61" y2="147.58"/>
                <line class="st61" x1="242" y1="76.33" x2="242" y2="147.58"/>
                <line class="st51" x1="239.19" y1="76.33" x2="239.19" y2="147.58"/>
                <line class="st71" x1="236.38" y1="76.33" x2="236.38" y2="147.58"/>
                <line class="st67" x1="233.57" y1="76.33" x2="233.57" y2="147.58"/>
                <line class="st69" x1="230.77" y1="76.33" x2="230.77" y2="147.58"/>
                <line class="st53" x1="227.96" y1="76.33" x2="227.96" y2="147.58"/>
                <line class="st70" x1="177.42" y1="76.33" x2="177.42" y2="147.58"/>
                <line class="st52" x1="219.53" y1="76.33" x2="219.53" y2="147.58"/>
                <line class="st66" x1="216.73" y1="76.33" x2="216.73" y2="147.58"/>
                <line class="st68" x1="213.92" y1="76.33" x2="213.92" y2="147.58"/>
                <line class="st65" x1="211.11" y1="76.33" x2="211.11" y2="147.58"/>
                <line class="st42" x1="208.3" y1="76.33" x2="208.3" y2="147.58"/>
                <line class="st43" x1="205.49" y1="76.33" x2="205.49" y2="147.58"/>
                <line class="st41" x1="197.07" y1="76.33" x2="197.07" y2="147.58"/>
                <line class="st38" x1="202.69" y1="76.33" x2="202.69" y2="147.58"/>
                <line class="st45" x1="199.88" y1="76.33" x2="199.88" y2="147.58"/>
                <line class="st46" x1="194.26" y1="76.33" x2="194.26" y2="147.58"/>
                <line class="st47" x1="191.46" y1="76.33" x2="191.46" y2="147.58"/>
                <line class="st44" x1="188.65" y1="76.33" x2="188.65" y2="147.58"/>
                <line class="st39" x1="185.84" y1="76.33" x2="185.84" y2="147.58"/>
                <line class="st40" x1="183.03" y1="76.33" x2="183.03" y2="147.58"/>
                <line class="st64" x1="180.22" y1="76.33" x2="180.22" y2="147.58"/>
              </g>
            </g>
          </g>
          <path class="st10" d="M268.7,151.77h-45.03c-2.04,0-3.69,1.65-3.69,3.69v183.82c0,4.83,11.73,8.74,26.21,8.74s26.21-3.91,26.21-8.74v-183.82c0-2.04-1.65-3.69-3.69-3.69Z"/>
        </g>
        <rect class="st82" x="236.23" y="125.18" width="3.24" height="19.74" rx="1.62" ry="1.62"/>
        <rect class="st82" x="228.04" y="268.49" width="6.24" height="68.71"/>
        <rect class="st82" x="239.23" y="285.58" width="3.12" height="51.62"/>
        <rect class="st76" x="237.51" y="194.97" width="6.83" height="38.44"/>
        <rect class="st76" x="249.96" y="203.96" width="3.42" height="26.63"/>
      </g>
      <g>
        <path d="M50.6,53.79v10.2h-1.36v-10.2h1.36Z"/>
        <path d="M54.52,56.75l.12,1.52c.67-1.03,1.5-1.69,2.79-1.69,1.47,0,2.39.97,2.39,2.48v4.93h-1.29v-4.75c0-.95-.54-1.59-1.53-1.59-1.29,0-2.27,1.09-2.27,2.08v4.26h-1.29v-7.25h1.07Z"/>
        <path d="M63.65,56.75v7.22c0,1.62-.78,2.42-2.59,2.42h-.32v-.96h.12c1.23,0,1.5-.57,1.5-1.47v-7.2h1.29ZM63.73,53.87v1.33h-1.44v-1.33h1.44Z"/>
        <path d="M69.18,64.21c-2.38,0-3.46-1.49-3.46-3.51v-.55c0-2.04,1.23-3.62,3.36-3.62s3.22,1.55,3.22,3.54v.57h-5.35v.17c0,1.35.63,2.36,2.27,2.36,1.24,0,1.92-.64,1.92-1.41v-.05h1.15v.09c0,1.38-1.18,2.41-3.09,2.41ZM66.94,59.85h4.14c-.05-1.33-.63-2.28-2.02-2.28-1.32,0-2.05.93-2.11,2.28Z"/>
        <path d="M79.06,61.52v-.03h1.2v.12c0,1.33-1.04,2.6-3.05,2.6-2.21,0-3.4-1.39-3.4-3.58v-.48c0-2.16,1.24-3.62,3.43-3.62,1.99,0,3.02,1.24,3.02,2.6v.12h-1.2v-.03c0-.8-.5-1.65-1.84-1.65-1.44,0-2.15,1.01-2.15,2.51v.6c0,1.5.71,2.47,2.13,2.47,1.32,0,1.85-.84,1.85-1.64Z"/>
        <path d="M82.71,56.75v-1.59l1.27-.35v1.95h2.36v1h-2.36v3.77c0,1.15.38,1.49,1.46,1.49h.51v1.01h-.78c-1.65,0-2.45-.64-2.45-2.27v-4h-1.32v-1h1.32Z"/>
        <path d="M89.54,53.87v1.33h-1.46v-1.33h1.46ZM89.45,56.75v7.25h-1.29v-7.25h1.29Z"/>
        <path d="M98.4,60.06v.66c0,2.07-1.38,3.51-3.45,3.51s-3.45-1.44-3.45-3.49v-.67c0-2.07,1.32-3.54,3.46-3.54s3.43,1.46,3.43,3.54ZM92.77,59.94v.89c0,1.36.86,2.34,2.17,2.34s2.18-.98,2.18-2.34v-.89c0-1.35-.81-2.38-2.18-2.38s-2.17,1.03-2.17,2.38Z"/>
        <path d="M101.48,56.75l.12,1.52c.67-1.03,1.5-1.69,2.79-1.69,1.47,0,2.39.97,2.39,2.48v4.93h-1.29v-4.75c0-.95-.54-1.59-1.53-1.59-1.29,0-2.27,1.09-2.27,2.08v4.26h-1.29v-7.25h1.07Z"/>
        <path d="M117.36,53.79c2.11,0,3.17.98,3.17,2.47v.29c0,1.23-.67,1.93-1.84,2.25v.05c1.27.31,1.99,1.03,1.99,2.3v.35c0,1.52-1.1,2.5-3.17,2.5h-4.63v-10.2h4.47ZM114.22,58.36h2.9c1.36,0,2.08-.66,2.08-1.69v-.28c0-.95-.7-1.53-1.98-1.53h-3v3.49ZM114.22,62.93h3.12c1.35,0,1.98-.61,1.98-1.55v-.32c0-1.03-.71-1.7-2.19-1.7h-2.91v3.57Z"/>
        <path d="M124.12,56.75v4.75c0,.95.55,1.59,1.55,1.59,1.29,0,2.27-1.1,2.27-2.08v-4.26h1.27v7.25h-1.07l-.12-1.52c-.66,1.03-1.5,1.69-2.77,1.69-1.49,0-2.41-.98-2.41-2.48v-4.93h1.29Z"/>
        <path d="M132.29,56.75v-1.59l1.27-.35v1.95h2.36v1h-2.36v3.77c0,1.15.38,1.49,1.46,1.49h.51v1.01h-.78c-1.65,0-2.45-.64-2.45-2.27v-4h-1.32v-1h1.32Z"/>
        <path d="M137.79,56.75v-1.59l1.27-.35v1.95h2.36v1h-2.36v3.77c0,1.15.38,1.49,1.46,1.49h.51v1.01h-.78c-1.65,0-2.45-.64-2.45-2.27v-4h-1.32v-1h1.32Z"/>
        <path d="M149.44,60.06v.66c0,2.07-1.38,3.51-3.45,3.51s-3.45-1.44-3.45-3.49v-.67c0-2.07,1.32-3.54,3.46-3.54s3.43,1.46,3.43,3.54ZM143.82,59.94v.89c0,1.36.86,2.34,2.17,2.34s2.18-.98,2.18-2.34v-.89c0-1.35-.81-2.38-2.18-2.38s-2.17,1.03-2.17,2.38Z"/>
        <path d="M152.52,56.75l.12,1.52c.67-1.03,1.5-1.69,2.79-1.69,1.47,0,2.39.97,2.39,2.48v4.93h-1.29v-4.75c0-.95-.54-1.59-1.53-1.59-1.29,0-2.27,1.09-2.27,2.08v4.26h-1.29v-7.25h1.07Z"/>
      </g>
      <g>
        <path d="M50.5,94.98v9.04h5.36v1.16h-6.71v-10.2h1.35Z"/>
        <path d="M63.97,101.24v.66c0,2.07-1.38,3.51-3.45,3.51s-3.45-1.44-3.45-3.49v-.67c0-2.07,1.32-3.54,3.46-3.54s3.43,1.46,3.43,3.54ZM58.35,101.12v.89c0,1.36.86,2.34,2.17,2.34s2.18-.98,2.18-2.34v-.89c0-1.35-.81-2.38-2.18-2.38s-2.17,1.03-2.17,2.38Z"/>
        <path d="M70.74,102.7v-.03h1.2v.12c0,1.33-1.04,2.6-3.05,2.6-2.21,0-3.4-1.39-3.4-3.58v-.48c0-2.16,1.24-3.62,3.43-3.62,1.99,0,3.02,1.24,3.02,2.6v.12h-1.2v-.03c0-.8-.51-1.65-1.84-1.65-1.44,0-2.15,1.01-2.15,2.51v.6c0,1.5.71,2.47,2.13,2.47,1.32,0,1.85-.84,1.85-1.64Z"/>
        <path d="M75.15,94.58v7.52l3.37-4.17h1.46l-2.45,2.96,2.65,4.29h-1.42l-2.11-3.4-1.49,1.78v1.62h-1.29v-10.6h1.29Z"/>
        <path d="M86.85,105.18h-1.35v-10.2h4.46c2.24,0,3.29,1.04,3.29,2.73v.52c0,1.36-.89,2.39-2.44,2.68l2.83,4.27h-1.53l-2.74-4.18h-2.53v4.18ZM86.85,99.93h2.79c1.46,0,2.27-.69,2.27-1.73v-.41c0-1.12-.66-1.72-2.14-1.72h-2.91v3.86Z"/>
        <path d="M96.91,95.05v1.33h-1.46v-1.33h1.46ZM96.82,97.93v7.25h-1.29v-7.25h1.29Z"/>
        <path d="M100.45,97.93l.12,1.52c.67-1.03,1.5-1.69,2.79-1.69,1.47,0,2.39.97,2.39,2.48v4.93h-1.29v-4.75c0-.95-.54-1.59-1.53-1.59-1.29,0-2.27,1.09-2.27,2.08v4.26h-1.29v-7.25h1.07Z"/>
        <path d="M111.07,107.69c-2.44,0-3.65-.6-3.65-1.64,0-.69.58-1.13,1.73-1.35v-.03c-.77-.23-1.27-.54-1.27-1.09,0-.52.46-.87,1.27-1.15-.77-.41-1.18-1.13-1.18-1.98v-.28c0-1.41,1.21-2.41,3.03-2.41.43,0,.81.08,1.15.18,1.39-.15,1.58-.58,1.58-1.3h.97c.06.2.09.35.09.54,0,.78-.6,1.09-1.75,1.23.64.43,1.01.98,1.01,1.81v.25c0,1.38-1.13,2.39-3.05,2.39-.43,0-.83-.05-1.16-.15-.69.18-.87.41-.87.63,0,.41,1.04.63,2.15.63h.18c2.45,0,3.46.67,3.46,1.82s-1.3,1.9-3.69,1.9ZM113.62,105.92c0-.6-.78-.9-2.54-.9h-.21c-1.56,0-2.3.41-2.3.93,0,.55.78.92,2.53.92s2.53-.35,2.53-.95ZM112.81,100.49v-.34c0-.84-.63-1.47-1.81-1.47s-1.81.63-1.81,1.47v.32c0,.87.64,1.49,1.81,1.49s1.81-.61,1.81-1.47Z"/>
      </g>
      <g>
        <path d="M241.78,31.61v2.31h-3.26v7.89h-2.7v-7.89h-3.28v-2.31h9.24Z"/>
        <path d="M249.47,37.92v.35c0,2.48-1.58,3.78-3.88,3.78s-3.89-1.3-3.89-3.78v-.35c0-2.5,1.58-3.81,3.89-3.81s3.88,1.32,3.88,3.81ZM244.19,37.5v1.18c0,.9.52,1.49,1.41,1.49s1.38-.58,1.38-1.49v-1.18c0-.9-.51-1.49-1.38-1.49s-1.41.58-1.41,1.49Z"/>
        <path d="M253.11,34.35l.17,1.12c.57-.7,1.3-1.32,2.56-1.32,1.69,0,2.88,1.2,2.88,3.2v1.46c0,2.01-1.21,3.2-2.91,3.2-1.13,0-1.82-.51-2.33-1.03v3.28h-2.54v-9.91h2.18ZM253.44,37.45v1.27c0,.92.61,1.5,1.41,1.5.84,0,1.38-.57,1.38-1.49v-1.29c0-.95-.52-1.49-1.38-1.49-.8,0-1.41.57-1.41,1.49Z"/>
      </g>
      <g>
        <path d="M211.5,493.55c2.4,0,3.46,1.03,3.46,2.53v.35c0,1.19-.69,1.82-1.82,2.13v.05c1.27.32,1.95,1.04,1.95,2.16v.4c0,1.59-1.1,2.59-3.52,2.59h-5.27v-10.2h5.21ZM208.91,497.72h2.22c.8,0,1.24-.35,1.24-.98v-.26c0-.57-.43-.92-1.2-.92h-2.27v2.16ZM208.91,501.75h2.27c.8,0,1.24-.37,1.24-.98v-.28c0-.61-.44-1-1.29-1h-2.22v2.25Z"/>
        <path d="M224.11,499.86v.35c0,2.48-1.58,3.78-3.88,3.78s-3.89-1.3-3.89-3.78v-.35c0-2.5,1.58-3.82,3.89-3.82s3.88,1.32,3.88,3.82ZM218.82,499.43v1.18c0,.9.52,1.49,1.41,1.49s1.38-.58,1.38-1.49v-1.18c0-.9-.51-1.49-1.38-1.49s-1.41.58-1.41,1.49Z"/>
        <path d="M226.09,496.29v-1.5l2.53-.54v2.04h2.08v1.79h-2.08v2.71c0,.89.26,1.15,1.21,1.15h.4v1.81h-1.1c-2.24,0-3.03-.92-3.03-2.67v-3h-1.32v-1.79h1.32Z"/>
        <path d="M231.91,496.29v-1.5l2.53-.54v2.04h2.08v1.79h-2.08v2.71c0,.89.26,1.15,1.21,1.15h.4v1.81h-1.1c-2.24,0-3.03-.92-3.03-2.67v-3h-1.32v-1.79h1.32Z"/>
        <path d="M245.01,499.86v.35c0,2.48-1.58,3.78-3.88,3.78s-3.89-1.3-3.89-3.78v-.35c0-2.5,1.58-3.82,3.89-3.82s3.88,1.32,3.88,3.82ZM239.72,499.43v1.18c0,.9.52,1.49,1.41,1.49s1.38-.58,1.38-1.49v-1.18c0-.9-.51-1.49-1.38-1.49s-1.41.58-1.41,1.49Z"/>
        <path d="M249,503.75h-2.54v-7.46h2.18l.2,1.21c.61-.77,1.35-1.39,2.59-1.39,1.06,0,1.82.49,2.19,1.35.6-.74,1.38-1.35,2.63-1.35,1.52,0,2.45,1,2.45,2.6v5.04h-2.54v-4.6c0-.64-.29-1.07-1.01-1.07-.81,0-1.3.63-1.3,1.27v4.4h-2.54v-4.6c0-.64-.28-1.07-1.01-1.07-.8,0-1.29.63-1.29,1.27v4.4Z"/>
        <path d="M265.43,503.88c-1.42,0-2.27-.72-2.27-2.04,0-.75.23-1.33,1.07-1.75.69-.35,1.84-.58,3.63-.69v-.41c0-.67-.26-1.06-1.06-1.06-.75,0-1.07.35-1.07.92v.15h-2.21v-.2c0-1.46.95-2.74,3.37-2.74s3.43,1.21,3.43,3.05v2.57c0,.44.14.55.75.6v1.5h-.87c-1.41,0-1.88-.23-2.16-1.3-.58.86-1.33,1.39-2.62,1.39ZM266.46,502.3c.81,0,1.41-.52,1.41-1.3v-.52c-.95.08-1.49.2-1.81.35-.38.18-.47.43-.47.74,0,.47.29.74.87.74Z"/>
        <path d="M274.39,496.29l.2,1.24c.61-.78,1.39-1.42,2.63-1.42,1.55,0,2.5,1.03,2.5,2.65v4.99h-2.54v-4.55c0-.67-.31-1.12-1.07-1.12-.83,0-1.35.64-1.35,1.33v4.33h-2.54v-7.46h2.18Z"/>
        <path d="M288.95,493.15v10.6h-2.18l-.17-1.12c-.57.72-1.3,1.32-2.56,1.32-1.69,0-2.88-1.19-2.88-3.2v-1.44c0-2.02,1.21-3.2,2.91-3.2,1.13,0,1.82.49,2.33,1.01v-3.97h2.54ZM283.64,499.39v1.29c0,.93.54,1.49,1.38,1.49.8,0,1.41-.58,1.41-1.5v-1.27c0-.92-.61-1.49-1.41-1.49-.84,0-1.38.55-1.38,1.49Z"/>
        <path d="M208.97,509.55l4.23,6.1h.03l-.02-6.1h2.44v10.2h-2.65l-4.26-6.22h-.03l.02,6.22h-2.44v-10.2h2.68Z"/>
        <path d="M221.18,519.98c-2.53,0-3.88-1.44-3.88-3.77v-.21c0-2.34,1.43-3.94,3.8-3.94,2.56,0,3.69,1.61,3.69,3.77v.74h-5.18v.05c0,.98.49,1.52,1.61,1.52.95,0,1.38-.4,1.38-.81v-.03h2.19v.09c0,1.42-1.26,2.6-3.62,2.6ZM219.62,515.31h2.85c-.05-.92-.43-1.39-1.36-1.39s-1.43.49-1.49,1.39Z"/>
        <path d="M229.7,519.98c-2.53,0-3.88-1.44-3.88-3.77v-.21c0-2.34,1.42-3.94,3.8-3.94,2.56,0,3.69,1.61,3.69,3.77v.74h-5.18v.05c0,.98.49,1.52,1.61,1.52.95,0,1.38-.4,1.38-.81v-.03h2.19v.09c0,1.42-1.26,2.6-3.62,2.6ZM228.14,515.31h2.85c-.04-.92-.43-1.39-1.36-1.39s-1.42.49-1.49,1.39Z"/>
        <path d="M242.19,509.15v10.6h-2.17l-.17-1.12c-.57.72-1.3,1.32-2.56,1.32-1.68,0-2.88-1.2-2.88-3.2v-1.44c0-2.02,1.21-3.2,2.91-3.2,1.13,0,1.82.49,2.33,1.01v-3.97h2.54ZM236.89,515.39v1.29c0,.93.54,1.49,1.38,1.49.8,0,1.41-.58,1.41-1.5v-1.27c0-.92-.61-1.49-1.41-1.49-.84,0-1.38.55-1.38,1.49Z"/>
        <path d="M246.63,509.15v10.6h-2.54v-10.6h2.54Z"/>
        <path d="M251.99,519.98c-2.53,0-3.88-1.44-3.88-3.77v-.21c0-2.34,1.43-3.94,3.8-3.94,2.56,0,3.69,1.61,3.69,3.77v.74h-5.18v.05c0,.98.49,1.52,1.61,1.52.95,0,1.38-.4,1.38-.81v-.03h2.19v.09c0,1.42-1.26,2.6-3.62,2.6ZM250.43,515.31h2.85c-.05-.92-.43-1.39-1.36-1.39s-1.43.49-1.49,1.39Z"/>
        <path d="M268.45,509.55v2.18h-5.44v1.82h4.14v2.05h-4.14v1.98h5.44v2.18h-8.07v-10.2h8.07Z"/>
        <path d="M272.21,512.29l.2,1.24c.61-.78,1.39-1.42,2.63-1.42,1.55,0,2.5,1.03,2.5,2.65v4.99h-2.54v-4.55c0-.67-.31-1.12-1.07-1.12-.83,0-1.35.64-1.35,1.33v4.33h-2.54v-7.46h2.18Z"/>
        <path d="M286.77,509.15v10.6h-2.18l-.17-1.12c-.57.72-1.3,1.32-2.56,1.32-1.69,0-2.88-1.2-2.88-3.2v-1.44c0-2.02,1.21-3.2,2.91-3.2,1.13,0,1.82.49,2.33,1.01v-3.97h2.54ZM281.47,515.39v1.29c0,.93.54,1.49,1.38,1.49.8,0,1.41-.58,1.41-1.5v-1.27c0-.92-.61-1.49-1.41-1.49-.84,0-1.38.55-1.38,1.49Z"/>
      </g>
      <g>
        <path d="M50.52,124.85v10.2h-1.36v-10.2h1.36Z"/>
        <path d="M54.44,127.81l.12,1.52c.67-1.03,1.5-1.69,2.79-1.69,1.47,0,2.39.97,2.39,2.48v4.93h-1.29v-4.75c0-.95-.54-1.59-1.53-1.59-1.29,0-2.27,1.09-2.27,2.08v4.26h-1.29v-7.25h1.07Z"/>
        <path d="M68.55,124.45v10.6h-1.07l-.11-1.5c-.54.9-1.3,1.68-2.71,1.68-1.82,0-2.94-1.46-2.94-3.37v-.86c0-1.93,1.16-3.39,2.97-3.39,1.36,0,2.08.72,2.57,1.47v-4.64h1.29ZM62.99,131.04v.78c0,1.35.74,2.41,2.04,2.41,1.18,0,2.25-1.04,2.25-2.5v-.6c0-1.46-1.07-2.5-2.25-2.5-1.3,0-2.04,1.06-2.04,2.41Z"/>
        <path d="M72.49,124.93v1.33h-1.46v-1.33h1.46ZM72.4,127.81v7.25h-1.29v-7.25h1.29Z"/>
        <path d="M79.72,132.57v-.03h1.2v.12c0,1.33-1.04,2.6-3.05,2.6-2.21,0-3.4-1.39-3.4-3.58v-.48c0-2.16,1.24-3.62,3.43-3.62,1.99,0,3.02,1.24,3.02,2.6v.12h-1.2v-.03c0-.8-.51-1.65-1.84-1.65-1.44,0-2.15,1.01-2.15,2.51v.6c0,1.5.71,2.47,2.13,2.47,1.32,0,1.85-.84,1.85-1.64Z"/>
        <path d="M84.53,135.19c-1.35,0-2.13-.7-2.13-1.93,0-.8.32-1.39,1.18-1.82.71-.35,1.84-.6,3.72-.72v-.46c0-1.04-.54-1.61-1.7-1.61-1.09,0-1.76.52-1.76,1.39v.11h-1.17v-.15c0-1.32.97-2.39,2.96-2.39s2.91.98,2.91,2.67v2.96c0,.86.18,1,.92,1.01v.86h-.49c-.95,0-1.52-.28-1.64-1.39-.63.93-1.53,1.49-2.8,1.49ZM84.9,134.27c1.23,0,2.41-1,2.41-1.95v-.84c-1.42.11-2.36.28-2.9.55-.58.29-.75.66-.75,1.15,0,.67.37,1.09,1.24,1.09Z"/>
        <path d="M91.53,127.81v-1.59l1.27-.35v1.95h2.36v1h-2.36v3.77c0,1.15.38,1.49,1.46,1.49h.51v1.01h-.78c-1.65,0-2.45-.64-2.45-2.27v-4h-1.32v-1h1.32Z"/>
        <path d="M103.19,131.12v.66c0,2.07-1.38,3.51-3.45,3.51s-3.45-1.44-3.45-3.49v-.67c0-2.07,1.32-3.54,3.46-3.54s3.43,1.46,3.43,3.54ZM97.57,130.99v.89c0,1.36.86,2.34,2.17,2.34s2.18-.98,2.18-2.34v-.89c0-1.35-.81-2.38-2.18-2.38s-2.17,1.03-2.17,2.38Z"/>
        <path d="M106.27,127.81l.11,1.84c.44-1.04,1.23-1.95,2.59-1.95.2,0,.37.02.57.05v1.24c-.2-.03-.37-.06-.63-.06-1.33,0-2.42,1.06-2.42,2.25v3.88h-1.29v-7.25h1.07Z"/>
      </g>
      <g>
        <path d="M50.5,157.58v9.04h5.36v1.16h-6.71v-10.2h1.35Z"/>
        <path d="M63.97,163.84v.66c0,2.07-1.38,3.51-3.45,3.51s-3.45-1.44-3.45-3.49v-.67c0-2.07,1.32-3.54,3.46-3.54s3.43,1.46,3.43,3.54ZM58.35,163.72v.89c0,1.36.86,2.34,2.17,2.34s2.18-.98,2.18-2.34v-.89c0-1.35-.81-2.38-2.18-2.38s-2.17,1.03-2.17,2.38Z"/>
        <path d="M70.74,165.3v-.03h1.2v.12c0,1.33-1.04,2.6-3.05,2.6-2.21,0-3.4-1.39-3.4-3.58v-.48c0-2.16,1.24-3.62,3.43-3.62,1.99,0,3.02,1.24,3.02,2.6v.12h-1.2v-.03c0-.8-.51-1.65-1.84-1.65-1.44,0-2.15,1.01-2.15,2.51v.6c0,1.5.71,2.47,2.13,2.47,1.32,0,1.85-.84,1.85-1.64Z"/>
        <path d="M75.15,157.18v7.52l3.37-4.17h1.46l-2.45,2.96,2.65,4.29h-1.42l-2.11-3.4-1.49,1.78v1.62h-1.29v-10.6h1.29Z"/>
        <path d="M91.62,163.84v.66c0,2.07-1.38,3.51-3.45,3.51s-3.45-1.44-3.45-3.49v-.67c0-2.07,1.32-3.54,3.46-3.54s3.43,1.46,3.43,3.54ZM86,163.72v.89c0,1.36.86,2.34,2.17,2.34s2.18-.98,2.18-2.34v-.89c0-1.35-.81-2.38-2.18-2.38s-2.17,1.03-2.17,2.38Z"/>
        <path d="M94.7,160.53l.11,1.84c.44-1.04,1.23-1.95,2.59-1.95.2,0,.37.02.57.05v1.24c-.2-.03-.37-.06-.63-.06-1.33,0-2.42,1.06-2.42,2.25v3.88h-1.29v-7.25h1.07Z"/>
        <path d="M104.43,157.58v6.43c0,1.82,1.01,2.8,2.73,2.8s2.74-.98,2.74-2.8v-6.43h1.32v6.43c0,2.54-1.5,3.98-4.09,3.98s-4.06-1.44-4.06-3.98v-6.43h1.36Z"/>
        <path d="M114.9,160.53l.12,1.52c.67-1.03,1.5-1.69,2.79-1.69,1.47,0,2.39.97,2.39,2.48v4.93h-1.29v-4.75c0-.95-.54-1.59-1.53-1.59-1.29,0-2.27,1.09-2.27,2.08v4.26h-1.29v-7.25h1.07Z"/>
        <path d="M123.97,157.18v10.6h-1.29v-10.6h1.29Z"/>
        <path d="M132.91,163.84v.66c0,2.07-1.38,3.51-3.45,3.51s-3.45-1.44-3.45-3.49v-.67c0-2.07,1.32-3.54,3.46-3.54s3.43,1.46,3.43,3.54ZM127.29,163.72v.89c0,1.36.86,2.34,2.17,2.34s2.18-.98,2.18-2.34v-.89c0-1.35-.81-2.38-2.18-2.38s-2.17,1.03-2.17,2.38Z"/>
        <path d="M139.69,165.3v-.03h1.2v.12c0,1.33-1.04,2.6-3.05,2.6-2.21,0-3.4-1.39-3.4-3.58v-.48c0-2.16,1.24-3.62,3.43-3.62,1.99,0,3.02,1.24,3.02,2.6v.12h-1.2v-.03c0-.8-.51-1.65-1.84-1.65-1.44,0-2.15,1.01-2.15,2.51v.6c0,1.5.71,2.47,2.13,2.47,1.32,0,1.85-.84,1.85-1.64Z"/>
        <path d="M144.1,157.18v7.52l3.37-4.17h1.46l-2.45,2.96,2.65,4.29h-1.42l-2.11-3.4-1.49,1.78v1.62h-1.29v-10.6h1.29Z"/>
      </g>
      <g>
        <path d="M51.1,355.6l3.55,8.38h.03l3.54-8.38h1.95v10.2h-1.3v-8.67h-.03l-3.68,8.69h-1.06l-3.68-8.69h-.05v8.67h-1.23v-10.2h1.95Z"/>
        <path d="M65.92,366.02c-2.38,0-3.46-1.49-3.46-3.51v-.55c0-2.04,1.23-3.62,3.36-3.62s3.22,1.55,3.22,3.54v.57h-5.35v.17c0,1.35.63,2.36,2.27,2.36,1.24,0,1.92-.64,1.92-1.41v-.05h1.15v.09c0,1.38-1.18,2.41-3.09,2.41ZM63.68,361.65h4.14c-.05-1.33-.63-2.28-2.02-2.28-1.32,0-2.05.93-2.11,2.28Z"/>
        <path d="M77.41,355.2v10.6h-1.07l-.11-1.5c-.54.9-1.3,1.68-2.71,1.68-1.82,0-2.94-1.46-2.94-3.37v-.86c0-1.93,1.16-3.39,2.97-3.39,1.36,0,2.08.72,2.57,1.47v-4.64h1.29ZM71.85,361.79v.78c0,1.35.74,2.41,2.04,2.41,1.18,0,2.25-1.04,2.25-2.5v-.6c0-1.46-1.07-2.5-2.25-2.5-1.3,0-2.04,1.06-2.04,2.41Z"/>
        <path d="M81.34,355.68v1.33h-1.46v-1.33h1.46ZM81.25,358.56v7.25h-1.29v-7.25h1.29Z"/>
        <path d="M88.58,363.32v-.03h1.2v.12c0,1.33-1.04,2.6-3.05,2.6-2.21,0-3.4-1.39-3.4-3.58v-.48c0-2.16,1.24-3.62,3.43-3.62,1.99,0,3.02,1.24,3.02,2.6v.12h-1.2v-.03c0-.8-.51-1.65-1.84-1.65-1.44,0-2.15,1.01-2.15,2.51v.6c0,1.5.71,2.47,2.13,2.47,1.32,0,1.85-.84,1.85-1.64Z"/>
        <path d="M93.13,355.68v1.33h-1.46v-1.33h1.46ZM93.03,358.56v7.25h-1.29v-7.25h1.29Z"/>
        <path d="M96.67,358.56l.12,1.52c.67-1.03,1.5-1.69,2.79-1.69,1.47,0,2.39.97,2.39,2.48v4.93h-1.29v-4.75c0-.95-.54-1.59-1.53-1.59-1.29,0-2.27,1.09-2.27,2.08v4.26h-1.29v-7.25h1.07Z"/>
        <path d="M107.37,366.02c-2.38,0-3.46-1.49-3.46-3.51v-.55c0-2.04,1.23-3.62,3.36-3.62s3.22,1.55,3.22,3.54v.57h-5.35v.17c0,1.35.63,2.36,2.27,2.36,1.24,0,1.92-.64,1.92-1.41v-.05h1.15v.09c0,1.38-1.18,2.41-3.09,2.41ZM105.14,361.65h4.14c-.05-1.33-.63-2.28-2.02-2.28-1.32,0-2.05.93-2.11,2.28Z"/>
      </g>
      <line class="st37" x1="161.26" y1="64" x2="216.36" y2="64"/>
      <g>
        <path d="M57.69,420.56v.47h-1.33v-.38c0-1.13-.86-2.28-2.68-2.28-2.01,0-3.16,1.49-3.16,3.43v1.52c0,1.93,1.15,3.45,3.16,3.45,1.81,0,2.68-1.15,2.68-2.28v-.38h1.33v.47c0,1.69-1.29,3.32-4.03,3.32s-4.5-1.98-4.5-4.69v-1.29c0-2.71,1.68-4.69,4.52-4.69s4.01,1.62,4.01,3.32Z"/>
        <path d="M61.27,417.07v10.6h-1.29v-10.6h1.29Z"/>
        <path d="M66.81,427.88c-2.38,0-3.46-1.49-3.46-3.51v-.55c0-2.04,1.23-3.62,3.36-3.62s3.22,1.55,3.22,3.54v.57h-5.35v.17c0,1.35.63,2.36,2.27,2.36,1.24,0,1.92-.64,1.92-1.41v-.05h1.15v.09c0,1.38-1.18,2.41-3.09,2.41ZM64.57,423.52h4.14c-.05-1.33-.63-2.28-2.02-2.28-1.32,0-2.05.93-2.11,2.28Z"/>
        <path d="M73.59,427.8c-1.35,0-2.13-.7-2.13-1.93,0-.8.32-1.39,1.18-1.82.71-.35,1.84-.6,3.72-.72v-.46c0-1.04-.54-1.61-1.7-1.61-1.09,0-1.76.52-1.76,1.39v.11h-1.17v-.15c0-1.32.97-2.39,2.96-2.39s2.91.98,2.91,2.67v2.96c0,.86.18,1,.92,1.01v.86h-.49c-.95,0-1.52-.28-1.64-1.39-.63.93-1.53,1.49-2.8,1.49ZM73.96,426.89c1.23,0,2.41-1,2.41-1.95v-.84c-1.42.11-2.36.28-2.9.55-.58.29-.75.66-.75,1.15,0,.67.37,1.09,1.24,1.09Z"/>
        <path d="M81.21,420.42l.11,1.84c.44-1.04,1.23-1.95,2.59-1.95.2,0,.37.02.57.05v1.24c-.2-.03-.37-.06-.63-.06-1.33,0-2.42,1.06-2.42,2.25v3.88h-1.29v-7.25h1.07Z"/>
        <path d="M94.2,417.46c2.11,0,3.17.98,3.17,2.47v.29c0,1.23-.67,1.93-1.84,2.25v.05c1.27.31,1.99,1.03,1.99,2.3v.35c0,1.52-1.1,2.5-3.17,2.5h-4.63v-10.2h4.47ZM91.06,422.03h2.9c1.36,0,2.08-.66,2.08-1.69v-.28c0-.95-.7-1.53-1.98-1.53h-3v3.49ZM91.06,426.59h3.12c1.35,0,1.98-.61,1.98-1.55v-.32c0-1.03-.71-1.7-2.19-1.7h-2.91v3.57Z"/>
        <path d="M101.41,427.8c-1.35,0-2.13-.7-2.13-1.93,0-.8.32-1.39,1.18-1.82.71-.35,1.84-.6,3.72-.72v-.46c0-1.04-.54-1.61-1.7-1.61-1.09,0-1.76.52-1.76,1.39v.11h-1.17v-.15c0-1.32.97-2.39,2.96-2.39s2.91.98,2.91,2.67v2.96c0,.86.18,1,.92,1.01v.86h-.49c-.95,0-1.52-.28-1.64-1.39-.63.93-1.53,1.49-2.8,1.49ZM101.78,426.89c1.23,0,2.41-1,2.41-1.95v-.84c-1.42.11-2.36.28-2.9.55-.58.29-.75.66-.75,1.15,0,.67.37,1.09,1.24,1.09Z"/>
        <path d="M107.44,425.42v-.21h1.13v.17c0,.87.66,1.53,2.04,1.53,1.1,0,1.76-.46,1.76-1.2,0-.66-.41-.95-2.01-1.23-1.9-.32-2.76-.87-2.76-2.11,0-1.16,1.09-2.14,2.9-2.14,1.96,0,2.93.98,2.93,2.31v.17h-1.12v-.11c0-.86-.63-1.41-1.84-1.41-1,0-1.68.46-1.68,1.12s.54.93,2.02,1.21c1.93.32,2.76.84,2.76,2.13s-1.1,2.22-2.97,2.22c-2.19,0-3.16-1.07-3.16-2.45Z"/>
        <path d="M118.56,427.88c-2.38,0-3.46-1.49-3.46-3.51v-.55c0-2.04,1.23-3.62,3.36-3.62s3.22,1.55,3.22,3.54v.57h-5.35v.17c0,1.35.63,2.36,2.27,2.36,1.24,0,1.92-.64,1.92-1.41v-.05h1.15v.09c0,1.38-1.18,2.41-3.09,2.41ZM116.32,423.52h4.14c-.05-1.33-.63-2.28-2.02-2.28-1.32,0-2.05.93-2.11,2.28Z"/>
      </g>
      <g>
        <path d="M54.1,443.66c2.11,0,3.17.98,3.17,2.47v.29c0,1.23-.67,1.93-1.84,2.25v.05c1.27.31,1.99,1.03,1.99,2.3v.35c0,1.52-1.1,2.5-3.17,2.5h-4.63v-10.2h4.47ZM50.96,448.22h2.9c1.36,0,2.08-.66,2.08-1.69v-.28c0-.95-.7-1.53-1.98-1.53h-3v3.49ZM50.96,452.79h3.12c1.35,0,1.98-.61,1.98-1.55v-.32c0-1.03-.71-1.7-2.19-1.7h-2.91v3.57Z"/>
        <path d="M61.32,454c-1.35,0-2.13-.7-2.13-1.93,0-.8.32-1.39,1.18-1.82.71-.35,1.84-.6,3.72-.72v-.46c0-1.04-.54-1.61-1.7-1.61-1.09,0-1.76.52-1.76,1.39v.11h-1.16v-.15c0-1.32.96-2.39,2.96-2.39s2.91.98,2.91,2.67v2.96c0,.86.18,1,.92,1.01v.86h-.49c-.95,0-1.52-.28-1.64-1.39-.63.93-1.53,1.49-2.8,1.49ZM61.69,453.08c1.23,0,2.41-1,2.41-1.95v-.84c-1.42.11-2.36.28-2.9.55-.58.29-.75.66-.75,1.15,0,.67.37,1.09,1.24,1.09Z"/>
        <path d="M67.34,451.61v-.21h1.13v.17c0,.87.66,1.53,2.04,1.53,1.1,0,1.76-.46,1.76-1.2,0-.66-.41-.95-2.01-1.23-1.9-.32-2.76-.87-2.76-2.11,0-1.16,1.09-2.14,2.9-2.14,1.96,0,2.93.98,2.93,2.31v.17h-1.12v-.11c0-.86-.63-1.41-1.84-1.41-1,0-1.69.46-1.69,1.12s.54.93,2.02,1.21c1.93.32,2.76.84,2.76,2.13s-1.1,2.22-2.97,2.22c-2.19,0-3.16-1.07-3.16-2.45Z"/>
        <path d="M78.46,454.08c-2.38,0-3.46-1.49-3.46-3.51v-.55c0-2.04,1.23-3.62,3.36-3.62s3.22,1.55,3.22,3.54v.57h-5.35v.17c0,1.35.63,2.36,2.27,2.36,1.24,0,1.92-.64,1.92-1.41v-.05h1.15v.09c0,1.38-1.18,2.41-3.09,2.41ZM76.23,449.71h4.14c-.05-1.33-.63-2.28-2.02-2.28-1.32,0-2.05.93-2.11,2.28Z"/>
        <path d="M95.32,446.75v.47h-1.33v-.38c0-1.13-.86-2.28-2.68-2.28-2.01,0-3.16,1.49-3.16,3.43v1.52c0,1.93,1.15,3.45,3.16,3.45,1.81,0,2.68-1.15,2.68-2.28v-.38h1.33v.47c0,1.69-1.29,3.32-4.03,3.32s-4.5-1.98-4.5-4.69v-1.29c0-2.71,1.68-4.69,4.52-4.69s4.01,1.62,4.01,3.32Z"/>
        <path d="M99.15,454c-1.35,0-2.13-.7-2.13-1.93,0-.8.32-1.39,1.18-1.82.71-.35,1.84-.6,3.72-.72v-.46c0-1.04-.54-1.61-1.7-1.61-1.09,0-1.76.52-1.76,1.39v.11h-1.17v-.15c0-1.32.97-2.39,2.96-2.39s2.91.98,2.91,2.67v2.96c0,.86.18,1,.92,1.01v.86h-.49c-.95,0-1.52-.28-1.64-1.39-.63.93-1.53,1.49-2.8,1.49ZM99.51,453.08c1.23,0,2.41-1,2.41-1.95v-.84c-1.42.11-2.36.28-2.9.55-.58.29-.75.66-.75,1.15,0,.67.37,1.09,1.24,1.09Z"/>
        <path d="M106.76,446.61l.11,1.5c.55-.92,1.3-1.68,2.71-1.68,1.84,0,2.94,1.46,2.94,3.37v.86c0,1.93-1.15,3.37-2.97,3.37-1.36,0-2.08-.72-2.57-1.46v3.68h-1.29v-9.64h1.07ZM106.96,449.94v.6c0,1.46,1.07,2.5,2.25,2.5,1.3,0,2.04-1.07,2.04-2.41v-.78c0-1.35-.72-2.41-2.04-2.41-1.18,0-2.25,1.03-2.25,2.5Z"/>
      </g>
      <circle cx="216.36" cy="64" r="2.55"/>
      <line class="st37" x1="114.99" y1="364.8" x2="240.96" y2="364.8"/>
      <circle cx="240.96" cy="364.8" r="2.55"/>
      <line class="st37" x1="126.25" y1="427.67" x2="222.52" y2="427.67"/>
      <circle cx="222.52" cy="427.67" r="2.55"/>
      <line class="st37" x1="117.46" y1="453.27" x2="216.36" y2="453.27"/>
      <circle cx="216.36" cy="453.27" r="2.55"/>
      <circle cx="225.03" cy="167.78" r="2.55"/>
      <circle cx="228.43" cy="135.05" r="2.55"/>
      <circle cx="236.92" cy="104.7" r="2.55"/>
      <line class="st37" x1="111.68" y1="135.05" x2="228.43" y2="135.05"/>
      <line class="st37" x1="152.57" y1="167.78" x2="225.03" y2="167.78"/>
      <line class="st37" x1="117.99" y1="104.7" x2="237.51" y2="104.7"/>
      <polygon points="245.63 14.94 233.2 24.7 258.05 24.7 245.63 14.94"/>
      <polygon points="245.63 536.39 258.05 526.63 233.2 526.63 245.63 536.39"/>
    </g>
  </g>
</svg>