<?xml version="1.0" encoding="UTF-8"?>
<!-- Created with Inkscape (http://www.inkscape.org/) -->
<svg width="55.484mm" height="26.948mm" version="1.1" viewBox="0 0 55.484 26.948" xml:space="preserve" xmlns="http://www.w3.org/2000/svg" xmlns:xlink="http://www.w3.org/1999/xlink"><defs><style>
      .st0 {
        fill: url(#linear-gradient6);
      }

      .st0, .st1, .st2, .st3, .st4, .st5, .st6, .st7, .st8, .st9, .st10, .st11 {
        opacity: .44;
      }

      .st0, .st1, .st2, .st3, .st4, .st5, .st6, .st7, .st10, .st11 {
        mix-blend-mode: darken;
      }

      .st1 {
        fill: url(#linear-gradient4);
      }

      .st2 {
        fill: url(#linear-gradient5);
      }

      .st3 {
        fill: url(#linear-gradient7);
      }

      .st4 {
        fill: url(#linear-gradient3);
      }

      .st5 {
        fill: url(#linear-gradient1);
      }

      .st6 {
        fill: url(#linear-gradient2);
      }

      .st12 {
        fill: #58595b;
      }

      .st13 {
        fill: #414042;
      }

      .st14 {
        fill: #6d6e71;
      }

      .st15 {
        fill: url(#linear-gradient18);
      }

      .st16 {
        fill: url(#linear-gradient15);
      }

      .st17 {
        fill: url(#linear-gradient16);
      }

      .st18 {
        fill: url(#linear-gradient17);
      }

      .st19 {
        fill: url(#linear-gradient14);
      }

      .st20 {
        fill: url(#linear-gradient19);
      }

      .st21 {
        fill: url(#linear-gradient23);
      }

      .st22 {
        fill: url(#linear-gradient25);
      }

      .st23 {
        fill: url(#linear-gradient21);
      }

      .st24 {
        fill: url(#linear-gradient20);
      }

      .st7 {
        fill: url(#linear-gradient);
      }

      .st25 {
        fill: #efefef;
      }

      .st26 {
        fill: #4d4d4d;
      }

      .st27 {
        isolation: isolate;
      }

      .st28 {
        fill: #aeadb1;
      }

      .st29 {
        fill: url(#linear-gradient10);
        fill-opacity: 0;
        stroke: url(#linear-gradient11);
        stroke-opacity: .45;
      }

      .st29, .st30, .st31, .st32, .st33, .st34, .st35 {
        mix-blend-mode: overlay;
      }

      .st29, .st36 {
        stroke-width: 1.1px;
      }

      .st29, .st36, .st37, .st38, .st39, .st40, .st41, .st42, .st43, .st44, .st45, .st46, .st47, .st48, .st49, .st50, .st51, .st52, .st53, .st54, .st55, .st56, .st57, .st58, .st59, .st60, .st61, .st62, .st63, .st64, .st65, .st66, .st67, .st68, .st69, .st70 {
        stroke-miterlimit: 10;
      }

      .st71 {
        clip-path: url(#clippath-1);
      }

      .st72 {
        fill: url(#White_Black_2);
      }

      .st30 {
        fill: url(#linear-gradient24);
      }

      .st8 {
        fill: url(#linear-gradient22);
      }

      .st8, .st9 {
        mix-blend-mode: multiply;
      }

      .st9 {
        fill: url(#linear-gradient13);
      }

      .st73 {
        fill: url(#linear-gradient12);
        fill-opacity: .68;
        mix-blend-mode: color;
      }

      .st74 {
        fill: #fff;
      }

      .st75 {
        opacity: .22;
      }

      .st76 {
        opacity: .32;
      }

      .st32 {
        opacity: .49;
      }

      .st33 {
        opacity: .54;
      }

      .st34 {
        opacity: .58;
      }

      .st35 {
        opacity: .68;
      }

      .st77 {
        fill: #f2f2f2;
      }

      .st10 {
        fill: url(#linear-gradient61);
      }

      .st11 {
        fill: url(#linear-gradient26);
      }

      .st36 {
        fill: url(#linear-gradient8);
        fill-opacity: .42;
        stroke: url(#linear-gradient9);
      }

      .st37 {
        stroke: url(#linear-gradient27);
      }

      .st37, .st38, .st39, .st40, .st41, .st42, .st43, .st44, .st45, .st46, .st47, .st48, .st49, .st50, .st51, .st52, .st53, .st54, .st55, .st56, .st57, .st58, .st59, .st60, .st61, .st62, .st63, .st64, .st65, .st66, .st67, .st68, .st69, .st70 {
        fill: none;
        opacity: .57;
        stroke-linecap: round;
        stroke-width: 1.5px;
      }

      .st38 {
        stroke: url(#linear-gradient28);
      }

      .st39 {
        stroke: url(#linear-gradient29);
      }

      .st40 {
        stroke: url(#linear-gradient50);
      }

      .st41 {
        stroke: url(#linear-gradient52);
      }

      .st42 {
        stroke: url(#linear-gradient51);
      }

      .st43 {
        stroke: url(#linear-gradient57);
      }

      .st44 {
        stroke: url(#linear-gradient55);
      }

      .st45 {
        stroke: url(#linear-gradient56);
      }

      .st46 {
        stroke: url(#linear-gradient54);
      }

      .st47 {
        stroke: url(#linear-gradient53);
      }

      .st48 {
        stroke: url(#linear-gradient58);
      }

      .st49 {
        stroke: url(#linear-gradient59);
      }

      .st50 {
        stroke: url(#linear-gradient44);
      }

      .st51 {
        stroke: url(#linear-gradient40);
      }

      .st52 {
        stroke: url(#linear-gradient46);
      }

      .st53 {
        stroke: url(#linear-gradient38);
      }

      .st54 {
        stroke: url(#linear-gradient31);
      }

      .st55 {
        stroke: url(#linear-gradient60);
      }

      .st56 {
        stroke: url(#linear-gradient32);
      }

      .st57 {
        stroke: url(#linear-gradient30);
      }

      .st58 {
        stroke: url(#linear-gradient34);
      }

      .st59 {
        stroke: url(#linear-gradient39);
      }

      .st60 {
        stroke: url(#linear-gradient35);
      }

      .st61 {
        stroke: url(#linear-gradient37);
      }

      .st62 {
        stroke: url(#linear-gradient33);
      }

      .st63 {
        stroke: url(#linear-gradient36);
      }

      .st64 {
        stroke: url(#linear-gradient49);
      }

      .st65 {
        stroke: url(#linear-gradient47);
      }

      .st66 {
        stroke: url(#linear-gradient43);
      }

      .st67 {
        stroke: url(#linear-gradient45);
      }

      .st68 {
        stroke: url(#linear-gradient41);
      }

      .st69 {
        stroke: url(#linear-gradient48);
      }

      .st70 {
        stroke: url(#linear-gradient42);
      }

      .st78 {
        fill: #333;
      }

      .st79 {
        fill: #87888a;
      }

      .st80 {
        clip-path: url(#clippath);
      }
    </style><linearGradient id="linear-gradient" x1="-3188.6" x2="-3083.2" y1="-3478.8" y2="-3478.8" gradientTransform="translate(3307.4 3976.3)" gradientUnits="userSpaceOnUse"><stop stop-color="#231f20" offset=".02"/><stop stop-color="#2d292a" offset=".06"/><stop stop-color="#494647" offset=".12"/><stop stop-color="#777475" offset=".21"/><stop stop-color="#b6b4b5" offset=".31"/><stop stop-color="#fff" offset=".42"/><stop stop-color="#f6f6f6" offset=".43"/><stop stop-color="#b6b5b5" offset=".54"/><stop stop-color="#827f80" offset=".64"/><stop stop-color="#585556" offset=".74"/><stop stop-color="#3b3738" offset=".82"/><stop stop-color="#292526" offset=".9"/><stop stop-color="#231f20" offset=".95"/></linearGradient><linearGradient id="linear-gradient1" x1="-3179.2" x2="-3093.2" y1="-3524.1" y2="-3524.1" xlink:href="#linear-gradient"/><linearGradient id="linear-gradient2" x1="-3146.2" x2="-3126.1" y1="-3530.5" y2="-3530.5" xlink:href="#linear-gradient"/><linearGradient id="linear-gradient3" x1="-3146.2" x2="-3126.1" y1="-3518.4" y2="-3518.4" xlink:href="#linear-gradient"/><linearGradient id="linear-gradient4" x1="-3144.3" x2="-3128" y1="-3550.2" y2="-3550.2" xlink:href="#linear-gradient"/><linearGradient id="linear-gradient5" x1="-3149.1" x2="-3123.2" y1="-3566.9" y2="-3566.9" xlink:href="#linear-gradient"/><linearGradient id="linear-gradient6" x1="-3146" x2="-3126" y1="-3571.6" y2="-3571.6" xlink:href="#linear-gradient"/><linearGradient id="linear-gradient7" x1="-3165.5" x2="-3106.3" y1="-3502.8" y2="-3502.8" xlink:href="#linear-gradient"/><linearGradient id="linear-gradient8" x1="-3179.2" x2="-3093.2" y1="-3545.8" y2="-3545.8" gradientTransform="translate(3307.4 3976.3)" gradientUnits="userSpaceOnUse"><stop stop-color="#fff" offset="0"/><stop stop-color="#a7a9ac" offset="1"/></linearGradient><linearGradient id="linear-gradient9" x1="-3179.8" x2="-3092.6" y1="-3545.6" y2="-3545.6" gradientTransform="translate(3307.4 3976.3)" gradientUnits="userSpaceOnUse"><stop stop-color="#fff" offset="0"/><stop stop-color="#231f20" stop-opacity=".2" offset="1"/></linearGradient><linearGradient id="linear-gradient10" x1="-3178.6" x2="-3092.6" y1="-3545.8" y2="-3545.8" gradientTransform="translate(3307.4 3976.3)" gradientUnits="userSpaceOnUse"><stop stop-color="#fff" offset="0"/><stop stop-color="#a7a9ac" offset=".5"/><stop stop-color="#fff" offset=".96"/></linearGradient><linearGradient id="linear-gradient11" x1="-3179.2" x2="-3092" y1="-3545.6" y2="-3545.6" gradientTransform="translate(3307.4 3976.3)" gradientUnits="userSpaceOnUse"><stop stop-color="#808285" stop-opacity=".5" offset=".24"/><stop stop-color="#fff" offset="1"/></linearGradient><linearGradient id="linear-gradient12" x1="-3179.2" x2="-3120" y1="-3545.8" y2="-3545.8" gradientTransform="translate(3307.4 3976.3)" gradientUnits="userSpaceOnUse"><stop stop-color="#fff" stop-opacity=".3" offset="0"/><stop stop-color="#231f20" stop-opacity=".1" offset="1"/></linearGradient><linearGradient id="linear-gradient13" x1="-3179.2" x2="-3120" y1="-3545.8" y2="-3545.8" gradientTransform="translate(3307.4 3976.3)" gradientUnits="userSpaceOnUse"><stop stop-color="#fff" stop-opacity=".1" offset="0"/><stop stop-color="#818781" stop-opacity=".22" offset=".4"/><stop stop-color="#2d372d" stop-opacity=".3" offset="1"/></linearGradient><linearGradient id="linear-gradient14" x1="141.06" x2="154.46" y1="423.66" y2="423.66" gradientUnits="userSpaceOnUse"><stop stop-color="#231f20" offset="0"/><stop stop-color="#fff" offset="1"/></linearGradient><linearGradient id="linear-gradient15" x1="134.24" x2="206.85" y1="479.37" y2="479.37" gradientUnits="userSpaceOnUse"><stop stop-color="#fff" offset="0"/><stop stop-color="#231f20" offset="1"/></linearGradient><linearGradient id="linear-gradient16" x1="187.93" x2="201.32" y1="423.44" y2="423.44" xlink:href="#linear-gradient14"/><linearGradient id="linear-gradient17" x1="157.86" x2="184.87" y1="389.37" y2="389.37" xlink:href="#linear-gradient15"/><linearGradient id="linear-gradient18" x1="151.96" x2="190.14" y1="411.65" y2="411.65" xlink:href="#linear-gradient15"/><linearGradient id="linear-gradient19" x1="155.54" x2="186.56" y1="428.37" y2="428.37" xlink:href="#linear-gradient15"/><linearGradient id="linear-gradient20" x1="148.91" x2="193.2" y1="448.57" y2="448.57" xlink:href="#linear-gradient15"/><linearGradient id="linear-gradient21" x1="161.78" x2="180.33" y1="427.95" y2="427.95" gradientUnits="userSpaceOnUse"><stop stop-color="#231f20" offset="0"/><stop stop-color="#242021" offset=".29"/><stop stop-color="#2b2728" offset=".39"/><stop stop-color="#373334" offset=".46"/><stop stop-color="#474445" offset=".52"/><stop stop-color="#5d5a5b" offset=".58"/><stop stop-color="#787576" offset=".62"/><stop stop-color="#979696" offset=".66"/><stop stop-color="#bcbbbc" offset=".7"/><stop stop-color="#e5e4e5" offset=".73"/><stop stop-color="#fff" offset=".75"/></linearGradient><linearGradient id="White_Black_2" x1="152.93" x2="190.06" y1="444.86" y2="444.86" data-name="White, Black 2" gradientUnits="userSpaceOnUse"><stop stop-color="#fff" offset="0"/><stop stop-color="#231f20" offset="1"/></linearGradient><linearGradient id="linear-gradient22" x1="-3157.8" x2="-3114.9" y1="-3545.8" y2="-3545.8" xlink:href="#linear-gradient13"/><linearGradient id="linear-gradient23" x1="-3128.5" x2="-3106.6" y1="-3511.6" y2="-3511.6" xlink:href="#linear-gradient13"/><linearGradient id="linear-gradient24" x1="-3165.5" x2="-3107.5" y1="-3707.9" y2="-3707.9" gradientTransform="translate(3307.4 3976.3)" gradientUnits="userSpaceOnUse"><stop stop-color="#f1f2f2" offset="0"/><stop stop-color="#f0f1f1" stop-opacity=".95" offset=".05"/><stop stop-color="#f0f1f1" stop-opacity=".81" offset=".15"/><stop stop-color="#f0f0f0" stop-opacity=".58" offset=".28"/><stop stop-color="#efefef" stop-opacity=".27" offset=".43"/><stop stop-color="#efefef" stop-opacity=".1" offset=".51"/><stop stop-color="#231f20" offset="1"/></linearGradient><clipPath id="clippath"><path class="st26" d="m146.38 73.15v-8.79c0-3.03 1.68-5.82 4.36-7.24 2.06-1.1 4.48-1.29 6.69-0.55 5.55 1.86 16.89 5.09 25.76 3.96 3.75-0.48 6.41-0.9 8.29-1.26 2.37-0.44 4.55 1.37 4.55 3.78v10.1c0 0.29-0.24 0.53-0.53 0.53h-48.58c-0.29 0-0.53-0.24-0.53-0.53z"/></clipPath><linearGradient id="linear-gradient25" x1="-3161" x2="-3111.4" y1="-3911.4" y2="-3911.4" gradientTransform="translate(3307.4 3976.3)" gradientUnits="userSpaceOnUse"><stop stop-color="#fff" stop-opacity=".3" offset="0"/><stop stop-color="#2484c6" stop-opacity="0" offset="1"/></linearGradient><linearGradient id="linear-gradient26" x1="-3164.9" x2="-3107.5" y1="-3860.6" y2="-3860.6" gradientTransform="translate(3307.4 3976.3)" gradientUnits="userSpaceOnUse"><stop stop-color="#fff" stop-opacity=".1" offset="0"/><stop stop-color="#231f20" stop-opacity=".6" offset="1"/></linearGradient><clipPath id="clippath-1"><rect class="st11" x="142.47" y="73.68" width="57.48" height="84.1" rx="3.18" ry="3.18"/></clipPath><linearGradient id="linear-gradient27" x1="-3160.5" x2="-3159" xlink:href="#linear-gradient26"/><linearGradient id="linear-gradient28" x1="-3163.6" x2="-3162.1" xlink:href="#linear-gradient26"/><linearGradient id="linear-gradient29" x1="-3113.9" x2="-3112.4" xlink:href="#linear-gradient26"/><linearGradient id="linear-gradient30" x1="-3110.8" x2="-3109.3" xlink:href="#linear-gradient26"/><linearGradient id="linear-gradient31" x1="-3117" x2="-3115.5" xlink:href="#linear-gradient26"/><linearGradient id="linear-gradient32" x1="-3120.1" x2="-3118.6" xlink:href="#linear-gradient26"/><linearGradient id="linear-gradient33" x1="-3123.2" x2="-3121.7" xlink:href="#linear-gradient26"/><linearGradient id="linear-gradient34" x1="-3126.3" x2="-3124.8" xlink:href="#linear-gradient26"/><linearGradient id="linear-gradient35" x1="-3129.4" x2="-3127.9" xlink:href="#linear-gradient26"/><linearGradient id="linear-gradient36" x1="-3138.8" x2="-3137.2" xlink:href="#linear-gradient26"/><linearGradient id="linear-gradient37" x1="-3132.5" x2="-3131" xlink:href="#linear-gradient26"/><linearGradient id="linear-gradient38" x1="-3135.6" x2="-3134.1" xlink:href="#linear-gradient26"/><linearGradient id="linear-gradient39" x1="-3141.9" x2="-3140.4" xlink:href="#linear-gradient26"/><linearGradient id="linear-gradient40" x1="-3145" x2="-3143.5" xlink:href="#linear-gradient26"/><linearGradient id="linear-gradient41" x1="-3148.1" x2="-3146.6" xlink:href="#linear-gradient26"/><linearGradient id="linear-gradient42" x1="-3151.2" x2="-3149.7" xlink:href="#linear-gradient26"/><linearGradient id="linear-gradient43" x1="-3154.3" x2="-3152.8" xlink:href="#linear-gradient26"/><linearGradient id="linear-gradient44" x1="-3157.4" x2="-3155.9" xlink:href="#linear-gradient26"/><linearGradient id="linear-gradient45" x1="-3213.3" x2="-3211.8" xlink:href="#linear-gradient26"/><linearGradient id="linear-gradient46" x1="-3166.7" x2="-3165.2" xlink:href="#linear-gradient26"/><linearGradient id="linear-gradient47" x1="-3169.8" x2="-3168.3" xlink:href="#linear-gradient26"/><linearGradient id="linear-gradient48" x1="-3172.9" x2="-3171.4" xlink:href="#linear-gradient26"/><linearGradient id="linear-gradient49" x1="-3176" x2="-3174.6" xlink:href="#linear-gradient26"/><linearGradient id="linear-gradient50" x1="-3179.1" x2="-3177.7" xlink:href="#linear-gradient26"/><linearGradient id="linear-gradient51" x1="-3182.3" x2="-3180.8" xlink:href="#linear-gradient26"/><linearGradient id="linear-gradient52" x1="-3191.6" x2="-3190.1" xlink:href="#linear-gradient26"/><linearGradient id="linear-gradient53" x1="-3185.4" x2="-3183.9" xlink:href="#linear-gradient26"/><linearGradient id="linear-gradient54" x1="-3188.5" x2="-3187" xlink:href="#linear-gradient26"/><linearGradient id="linear-gradient55" x1="-3194.7" x2="-3193.2" xlink:href="#linear-gradient26"/><linearGradient id="linear-gradient56" x1="-3197.8" x2="-3196.3" xlink:href="#linear-gradient26"/><linearGradient id="linear-gradient57" x1="-3200.9" x2="-3199.4" xlink:href="#linear-gradient26"/><linearGradient id="linear-gradient58" x1="-3204" x2="-3202.5" xlink:href="#linear-gradient26"/><linearGradient id="linear-gradient59" x1="-3207.1" x2="-3205.6" xlink:href="#linear-gradient26"/><linearGradient id="linear-gradient60" x1="-3210.2" x2="-3208.7" xlink:href="#linear-gradient26"/><linearGradient id="linear-gradient61" x1="-3165.5" x2="-3107.5" y1="-3707.9" y2="-3707.9" gradientTransform="translate(3307.4 3976.3)" gradientUnits="userSpaceOnUse"><stop stop-opacity=".2" offset="0"/><stop stop-color="#040304" stop-opacity=".3" offset=".33"/><stop stop-color="#110f0f" stop-opacity=".6" offset=".69"/><stop stop-color="#231f20" offset="1"/></linearGradient><style>
      .st0 {
        fill: none;
      }

      .st1 {
        fill: url(#linear-gradient2);
      }

      .st2 {
        fill: url(#linear-gradient8);
      }

      .st2, .st3, .st4, .st5, .st6, .st7, .st8, .st9 {
        opacity: .25;
      }

      .st3 {
        fill: url(#linear-gradient7);
      }

      .st4 {
        fill: url(#linear-gradient5);
      }

      .st5 {
        fill: url(#linear-gradient3);
      }

      .st6 {
        fill: url(#linear-gradient6);
      }

      .st7 {
        fill: url(#linear-gradient9);
      }

      .st10 {
        fill: url(#linear-gradient1);
      }

      .st10, .st11, .st12 {
        opacity: .11;
      }

      .st11 {
        fill: url(#linear-gradient4);
      }

      .st13 {
        fill: #e6e6e6;
      }

      .st8 {
        fill: url(#White_Black);
      }

      .st12 {
        fill: url(#linear-gradient);
      }

      .st14 {
        fill: #fff;
      }

      .st15 {
        fill: #f2eeeb;
        opacity: .51;
      }

      .st16 {
        fill: #f2f2f2;
      }

      .st17 {
        fill: #333;
      }

      .st18 {
        fill: #b5b6b4;
      }

      .st19 {
        clip-path: url(#clippath);
      }

      .st20 {
        fill: #9fa09d;
      }
    </style><linearGradient id="linear-gradient-6" x1="5758.8" x2="5831.3" y1="191.94" y2="191.94" gradientTransform="matrix(-1 0 0 1 5970.6 0)" gradientUnits="userSpaceOnUse"><stop stop-color="#fff" offset="0"/><stop stop-color="#e1e1e1" offset=".14"/><stop stop-color="#969696" offset=".44"/><stop stop-color="#1e1e1e" offset=".89"/><stop offset="1"/></linearGradient><linearGradient id="linear-gradient1-7" x1="5795.5" x2="5795.5" y1="126.7" y2="96.14" gradientTransform="matrix(-1 0 0 1 5970.6 0)" gradientUnits="userSpaceOnUse"><stop offset="0"/><stop stop-color="#1e1e1e" offset=".11"/><stop stop-color="#969696" offset=".56"/><stop stop-color="#e1e1e1" offset=".86"/><stop stop-color="#fff" offset="1"/></linearGradient><linearGradient id="linear-gradient2-3" x1="5757.7" x2="5833.4" y1="191.94" y2="191.94" gradientTransform="matrix(-1 0 0 1 5970.6 0)" gradientUnits="userSpaceOnUse"><stop stop-color="#0a0a0a" offset="0"/><stop stop-color="#fff" offset=".26"/><stop stop-color="#fff" offset=".74"/><stop stop-color="#f5f5f5" offset=".76"/><stop stop-color="#dbdbdb" offset=".8"/><stop stop-color="#b1b1b1" offset=".85"/><stop stop-color="#777" offset=".9"/><stop stop-color="#2e2e2e" offset=".96"/><stop offset="1"/></linearGradient><linearGradient id="linear-gradient3-5" x1="5765.5" x2="5825.4" y1="111.43" y2="111.43" gradientTransform="matrix(-1 0 0 1 5970.6 0)" gradientUnits="userSpaceOnUse"><stop stop-color="#fff" offset="0"/><stop stop-color="#f5f5f5" offset=".08"/><stop stop-color="#dbdbdb" offset=".23"/><stop stop-color="#b1b1b1" offset=".41"/><stop stop-color="#777" offset=".62"/><stop stop-color="#2e2e2e" offset=".86"/><stop offset="1"/></linearGradient><linearGradient id="linear-gradient4-6" x1="5765.5" x2="5825.4" y1="98.95" y2="98.95" xlink:href="#linear-gradient1-7"/><linearGradient id="White_Black" x1="5763.5" x2="5827.4" y1="94.99" y2="94.99" data-name="White, Black" gradientTransform="matrix(-1 0 0 1 5970.6 0)" gradientUnits="userSpaceOnUse"><stop stop-color="#fff" offset="0"/><stop offset="1"/></linearGradient><linearGradient id="linear-gradient5-2" x1="5763.5" x2="5827.4" y1="103.56" y2="103.56" gradientTransform="matrix(-1 0 0 1 5970.6 0)" gradientUnits="userSpaceOnUse"><stop stop-color="#0a0a0a" offset="0"/><stop stop-color="#fff" offset=".26"/><stop stop-color="#f5f5f5" offset=".32"/><stop stop-color="#dbdbdb" offset=".43"/><stop stop-color="#b1b1b1" offset=".56"/><stop stop-color="#777" offset=".72"/><stop stop-color="#2e2e2e" offset=".9"/><stop offset="1"/></linearGradient><linearGradient id="linear-gradient6-9" x1="5763.5" x2="5827.4" y1="94.99" y2="94.99" xlink:href="#linear-gradient3-5"/><linearGradient id="linear-gradient7-1" x1="5763.5" x2="5827.4" y1="94.45" y2="94.45" xlink:href="#linear-gradient3-5"/><linearGradient id="linear-gradient8-2" x1="5767.3" x2="5823.4" y1="91.62" y2="91.62" xlink:href="#linear-gradient3-5"/><linearGradient id="linear-gradient9-7" x1="5787.7" x2="5803" y1="91.62" y2="91.62" xlink:href="#linear-gradient3-5"/><linearGradient id="linearGradient2564" x1="5795.5" x2="5795.5" y1="126.7" y2="96.14" gradientTransform="matrix(-1 0 0 1 5970.6 0)" gradientUnits="userSpaceOnUse" xlink:href="#linear-gradient1-7"/><linearGradient id="linearGradient2566" x1="141.06" x2="154.46" y1="423.66" y2="423.66" gradientUnits="userSpaceOnUse" xlink:href="#linear-gradient14"/><linearGradient id="linearGradient2568" x1="-3179.2" x2="-3120" y1="-3545.8" y2="-3545.8" gradientTransform="translate(3307.4 3976.3)" gradientUnits="userSpaceOnUse" xlink:href="#linear-gradient13"/><linearGradient id="linearGradient2570" x1="5765.5" x2="5825.4" y1="111.43" y2="111.43" gradientTransform="matrix(-1 0 0 1 5970.6 0)" gradientUnits="userSpaceOnUse" xlink:href="#linear-gradient3-5"/><linearGradient id="linearGradient2572" x1="-3188.6" x2="-3083.2" y1="-3478.8" y2="-3478.8" gradientTransform="translate(3307.4 3976.3)" gradientUnits="userSpaceOnUse" xlink:href="#linear-gradient"/><linearGradient id="linearGradient4946" x1="-3179.2" x2="-3093.2" y1="-3545.8" y2="-3545.8" gradientTransform="translate(3307.4 3976.3)" gradientUnits="userSpaceOnUse" xlink:href="#linear-gradient8"/><linearGradient id="linearGradient4948" x1="-3179.8" x2="-3092.6" y1="-3545.6" y2="-3545.6" gradientTransform="translate(3307.4 3976.3)" gradientUnits="userSpaceOnUse" xlink:href="#linear-gradient9"/><linearGradient id="linearGradient4950" x1="-3178.6" x2="-3092.6" y1="-3545.8" y2="-3545.8" gradientTransform="translate(3307.4 3976.3)" gradientUnits="userSpaceOnUse" xlink:href="#linear-gradient10"/><linearGradient id="linearGradient4952" x1="-3179.2" x2="-3092" y1="-3545.6" y2="-3545.6" gradientTransform="translate(3307.4 3976.3)" gradientUnits="userSpaceOnUse" xlink:href="#linear-gradient11"/><linearGradient id="linearGradient4954" x1="-3179.2" x2="-3120" y1="-3545.8" y2="-3545.8" gradientTransform="translate(3307.4 3976.3)" gradientUnits="userSpaceOnUse" xlink:href="#linear-gradient12"/><linearGradient id="linearGradient4966" x1="161.78" x2="180.33" y1="427.95" y2="427.95" gradientUnits="userSpaceOnUse" xlink:href="#linear-gradient21"/><linearGradient id="linearGradient4968" x1="152.93" x2="190.06" y1="444.86" y2="444.86" gradientUnits="userSpaceOnUse" xlink:href="#White_Black_2"/><linearGradient id="linearGradient4974" x1="-3165.5" x2="-3107.5" y1="-3707.9" y2="-3707.9" gradientTransform="translate(3307.4 3976.3)" gradientUnits="userSpaceOnUse" xlink:href="#linear-gradient24"/><linearGradient id="linearGradient4976" x1="-3161" x2="-3111.4" y1="-3911.4" y2="-3911.4" gradientTransform="translate(3307.4 3976.3)" gradientUnits="userSpaceOnUse" xlink:href="#linear-gradient25"/><linearGradient id="linearGradient5046" x1="-3165.5" x2="-3107.5" y1="-3707.9" y2="-3707.9" gradientTransform="translate(3307.4 3976.3)" gradientUnits="userSpaceOnUse" xlink:href="#linear-gradient61"/><linearGradient id="linearGradient5068" x1="5758.8" x2="5831.3" y1="191.94" y2="191.94" gradientTransform="matrix(-1 0 0 1 5970.6 0)" gradientUnits="userSpaceOnUse" xlink:href="#linear-gradient-6"/><linearGradient id="linearGradient5074" x1="5757.7" x2="5833.4" y1="191.94" y2="191.94" gradientTransform="matrix(-1 0 0 1 5970.6 0)" gradientUnits="userSpaceOnUse" xlink:href="#linear-gradient2-3"/><linearGradient id="linearGradient5082" x1="5763.5" x2="5827.4" y1="94.99" y2="94.99" gradientTransform="matrix(-1 0 0 1 5970.6 0)" gradientUnits="userSpaceOnUse" xlink:href="#White_Black"/><linearGradient id="linearGradient5084" x1="5763.5" x2="5827.4" y1="103.56" y2="103.56" gradientTransform="matrix(-1 0 0 1 5970.6 0)" gradientUnits="userSpaceOnUse" xlink:href="#linear-gradient5-2"/></defs><g transform="translate(-25.615 -148)"><text transform="scale(.26458)" fill="#ffffff" font-size="42.667px" style="shape-inside:url(#rect8182);white-space:pre" xml:space="preserve"/><text transform="scale(.26458)" fill="#ffffff" font-size="42.667px" style="shape-inside:url(#rect8188);white-space:pre" xml:space="preserve"/><g transform="matrix(.2936 0 0 .2936 18.094 104.55)"><path d="m25.774 148.16h91.779v91.466h-91.779z" fill="#fff" stroke="#dcdcdc" stroke-width=".31768"/><g transform="translate(6.9867 28.071)"><g transform="translate(5.317 .70212)"><g transform="matrix(.16111 0 0 .16111 43.139 113.59)" style="isolation:isolate"><g transform="translate(-70.81 32.35)"><path class="st12" d="m220.66 502.63c-3.49 3.93-8.87 6.18-12.89 8.23-1.87 0.95-3.77 1.87-5.73 2.63-9.21 3.59-19.06 5.43-28.94 5.43h-5.42c-13.63 0-26.92-3.89-38.63-10.88-3.2-1.91-6.67-3.67-8.56-7.05-2.12-3.79-2.69-9.23 0.75-12.44l0.84-0.81c0.73-0.7 1.32-1.54 1.74-2.46l4.2-9.08c0.07-0.14 0.25-0.18 0.36-0.07 1.98 2.03 17.19 16.79 41.14 16.79h3.27c24.04 0 39.26-14.85 41.16-16.81 0.1-0.11 0.28-0.08 0.35 0.05l5.21 9.33c0.47 0.85 1.11 1.6 1.87 2.21l0.1 0.08c3.65 2.92 3.18 8.13 1.18 11.95-0.55 1.06-1.24 2.01-2.01 2.89z" fill="url(#linearGradient2572)"/><path class="st7" d="m220.66 502.63c-3.49 3.93-8.87 6.18-12.89 8.23-1.87 0.95-3.77 1.87-5.73 2.63-9.21 3.59-19.06 5.43-28.94 5.43h-5.42c-13.63 0-26.92-3.89-38.63-10.88-3.2-1.91-6.67-3.67-8.56-7.05-2.12-3.79-2.69-9.23 0.75-12.44l0.84-0.81c0.73-0.7 1.32-1.54 1.74-2.46l4.2-9.08c0.07-0.14 0.25-0.18 0.36-0.07 1.98 2.03 17.19 16.79 41.14 16.79h3.27c24.04 0 39.26-14.85 41.16-16.81 0.1-0.11 0.28-0.08 0.35 0.05l5.21 9.33c0.47 0.85 1.11 1.6 1.87 2.21l0.1 0.08c3.65 2.92 3.18 8.13 1.18 11.95-0.55 1.06-1.24 2.01-2.01 2.89z" fill="url(#linearGradient1547)"/><path class="st14" d="m179.4 411.5v30.31s1.91 6.15 1.91 6.15v18.85h6.18c3.39 0 6.75 0.55 9.96 1.63l7.27 2.45c2.99 1.31 5.9 2.82 8.72 4.5l0.79 0.7-0.28 0.02c-1.9 1.96-17.13 16.81-41.16 16.81h-3.27c-23.96 0-39.16-14.76-41.14-16.79l-0.19-0.08c2.82-1.68 6.59-3.85 9.58-5.16l7.27-2.45c3.21-1.08 6.57-1.63 9.96-1.63h6.18v-18.85l1.91-6.15v-30.31h16.3z"/><path class="st5" d="m179.4 411.5v30.31s1.91 6.15 1.91 6.15v18.85h6.18c3.39 0 6.75 0.55 9.96 1.63l7.27 2.45c2.99 1.31 5.9 2.82 8.72 4.5l0.79 0.7-0.28 0.02c-1.9 1.96-17.13 16.81-41.16 16.81h-3.27c-23.96 0-39.16-14.76-41.14-16.79l-0.19-0.08c2.82-1.68 6.59-3.85 9.58-5.16l7.27-2.45c3.21-1.08 6.57-1.63 9.96-1.63h6.18v-18.85l1.91-6.15v-30.31h16.3z" fill="url(#linear-gradient1)"/><path class="st13" d="m196.69 467.69c0.24 1.43-11.07 3.72-24.92 3.72s-25.55-2.27-25.46-3.72c0.07-1.11 11.37-2.48 25.22-2.48s24.95 1.24 25.16 2.48z"/><path class="st13" d="m220.83 494.21c-23.11 19.61-60.51 21.83-87.07 8.14-3.87-2.05-7.63-4.35-11.04-7.1 7.16 5.02 15.15 8.77 23.49 11.22 24.91 6.92 53.73 3.59 74.63-12.26z"/><path class="st13" d="m208.64 487.49c1.36 3.17 2.19 6.48 2.45 9.92-1.37-3.17-2.18-6.48-2.45-9.92z"/><path class="st13" d="m136.98 487.49c-0.27 3.44-1.08 6.76-2.45 9.92 0.26-3.44 1.08-6.75 2.45-9.92z"/><g fill="url(#linearGradient2572)"><path class="st12" d="m196.69 467.69 4.05 3.23c0.41 0.33 0.45 0.94 0.09 1.32-0.73 0.76-2.23 2.26-5.73 3.36-27.67 8.67-47.19 0-47.19 0-3.41-1.36-5-2.6-5.73-3.36-0.37-0.38-0.33-0.99 0.09-1.32l4.05-3.23s24.24 8.36 50.38 0z"/><path class="st12" d="m161.18 448.14c0 0.95 4.5 1.71 10.06 1.71s10.06-0.77 10.06-1.71v17.84c0 0.95-4.5 1.71-10.06 1.71s-10.06-0.77-10.06-1.71z"/><path class="st12" d="m179.4 441.77c0 0.68-3.65 1.23-8.15 1.23s-8.15-0.55-8.15-1.23v-32.61h16.3z"/></g><path class="st6" d="m161.18 448.14v-0.18l1.91-6.15v-0.04c0 0.68 3.64 1.23 8.14 1.23s8.15-0.55 8.15-1.23v0.04l1.91 6.15v0.18c0 0.95-4.51 1.71-10.07 1.71s-10.06-0.76-10.06-1.71z" fill="url(#linear-gradient2)"/><path class="st4" d="m161.18 448.14c0 0.95 4.5 1.71 10.06 1.71s10.06-0.77 10.06-1.71v17.84c0 0.95-4.5 1.71-10.06 1.71s-10.06-0.77-10.06-1.71z" fill="url(#linear-gradient3)"/><path class="st1" d="m179.4 441.77c0 0.68-3.65 1.23-8.15 1.23s-8.15-0.55-8.15-1.23v-32.61h16.3z" fill="url(#linear-gradient4)"/><path class="st12" d="m161.91 406.51s-2.98 1.33-3.64 4.36c0 0 7.93 3.28 25.39-0.04 0.18-0.03 0.36-0.07 0.54-0.1 0 0 0.29-1.67-3.24-4.21h-19.05z" fill="url(#linearGradient2572)"/><path class="st12" d="m181.39 406.6c-0.68 0.35-1.46 0.55-2.29 0.55h-15.73c-0.72 0-1.41-0.15-2.02-0.42 1.46-2.54 5.41-4.37 10.06-4.37s8.46 1.76 9.98 4.24z" fill="url(#linearGradient2572)"/><path class="st2" d="m161.91 406.51s-2.98 1.33-3.64 4.36c0 0 7.93 3.28 25.39-0.04 0.18-0.03 0.36-0.07 0.54-0.1 0 0 0.29-1.67-3.24-4.21h-19.05z" fill="url(#linear-gradient5)"/><path class="st0" d="m181.39 406.6c-0.68 0.35-1.46 0.55-2.29 0.55h-15.73c-0.72 0-1.41-0.15-2.02-0.42 1.46-2.54 5.41-4.37 10.06-4.37s8.46 1.76 9.98 4.24z" fill="url(#linear-gradient6)"/><path class="st3" d="m196.69 467.69 4.05 3.23c0.41 0.33 0.45 0.94 0.09 1.32-0.73 0.76-2.23 2.26-5.73 3.36-27.67 8.67-47.19 0-47.19 0-3.41-1.36-5-2.6-5.73-3.36-0.37-0.38-0.33-0.99 0.09-1.32l4.05-3.23s24.24 8.36 50.38 0z" fill="url(#linear-gradient7)"/><path class="st36" d="m199.39 367.45 1.76 88.32c0.06 2.99 1.36 5.82 3.58 7.82l6.34 5.69c0.99 0.89 1.7 2.04 2.05 3.32l1.08 3.92s-15.63 17.02-41.37 17.02h-3.27c-25.73 0-41.37-17.02-41.37-17.02l1.08-3.92c0.35-1.28 1.07-2.43 2.05-3.32l6.34-5.69c2.22-2 3.52-4.83 3.58-7.82l1.76-88.32" fill="url(#linearGradient4946)" stroke="url(#linearGradient4948)"/><path class="st29" d="m199.96 367.45 1.76 88.32c0.06 2.99 1.36 5.82 3.58 7.82l6.34 5.69c0.99 0.89 1.7 2.04 2.05 3.32l1.08 3.92s-15.63 17.02-41.37 17.02h-3.27c-25.73 0-41.37-17.02-41.37-17.02l1.08-3.92c0.35-1.28 1.07-2.43 2.05-3.32l6.34-5.69c2.22-2 3.52-4.83 3.58-7.82l1.76-88.32" fill="url(#linearGradient4950)" stroke="url(#linearGradient4952)"/><path class="st73" d="m187.41 491.67c-4.4 1.16-9.28 1.88-14.58 1.88h-3.27c-25.73 0-41.37-17.03-41.37-17.03l1.08-3.92c0.35-1.29 1.07-2.44 2.06-3.32l6.33-5.69c2.23-2 3.52-4.83 3.59-7.82l1.75-88.32h7.76c-1.27 9.96-5.49 47.61 0.32 63.05 6.72 17.87 13.46 5.27 9.77 21.65-3.69 16.39-0.64 32.5 10.65 32.73 6.99 0.15 12.63 3.94 15.91 6.79z" fill="url(#linearGradient4954)"/><path class="st9" d="m187.41 491.67c-4.4 1.16-9.28 1.88-14.58 1.88h-3.27c-25.73 0-41.37-17.03-41.37-17.03l1.08-3.92c0.35-1.29 1.07-2.44 2.06-3.32l6.33-5.69c2.23-2 3.52-4.83 3.59-7.82l1.75-88.32h7.76c-1.27 9.96-5.49 47.61 0.32 63.05 6.72 17.87 16.25 12.68 6.73 26.51-16.88 24.52 2.4 27.64 13.7 27.87 6.99 0.15 12.63 3.94 15.91 6.79z" fill="url(#linearGradient1549)"/><g class="st31"><path class="st19" d="m153.91 369.74c-0.08 6.04-0.19 12.09-0.34 18.13-0.16 6.04-0.28 12.08-0.48 18.13l-0.58 18.12-0.69 18.12v0.09s-0.03 0.08-0.03 0.08l-1.74 4.37 0.03-0.16c-0.11 3.11-0.24 6.22-0.38 9.32l-0.21 4.66-0.1 2.33c-0.02 0.76-0.08 1.6-0.29 2.38-0.41 1.56-1.26 3.01-2.46 4.08-1.23 1.02-2.45 1.93-3.68 2.9l-0.91 0.71c-0.25 0.2-0.33 0.58-0.19 0.88 0.38 0.57 1.06 1.07 1.67 1.5 1.27 0.88 2.67 1.58 4.09 2.2-1.45-0.56-2.89-1.18-4.21-2.03-0.65-0.45-1.3-0.85-1.81-1.55-0.21-0.4-0.11-0.94 0.23-1.25l0.9-0.76c1.18-1 2.42-1.99 3.55-3 1.09-1.04 1.85-2.4 2.2-3.85 0.18-0.74 0.22-1.45 0.23-2.25l0.06-2.33 0.11-4.66c0.07-3.11 0.15-6.22 0.25-9.33v-0.08s0.03-0.08 0.03-0.08l1.71-4.38-0.03 0.17 0.61-18.12 0.71-18.12c0.23-6.04 0.55-12.08 0.81-18.11 0.28-6.04 0.61-12.07 0.96-18.11z" clip-path="url(#clippath)" fill="url(#linearGradient1551)"/></g><g class="st75"><path class="st16" d="m206.54 474.2c-2.57 1.9-5.31 3.58-8.16 5.04-2.87 1.44-5.85 2.65-8.92 3.62-6.13 1.95-12.65 2.68-19.05 2.57-6.43 0.01-12.91-0.92-18.99-3.04-3.04-1.05-5.99-2.34-8.82-3.85-2.82-1.54-5.51-3.29-8.03-5.25 5.31 3.56 11.06 6.41 17.12 8.29 3.03 0.92 6.12 1.68 9.25 2.14 3.14 0.46 6.29 0.61 9.47 0.61 3.21 0.05 6.35-0.01 9.5-0.4 3.15-0.37 6.25-1.03 9.31-1.87 6.1-1.73 11.93-4.43 17.33-7.85z" fill="url(#linearGradient1553)"/></g><g class="st34"><path class="st17" d="m188.48 369.74c0.35 6.01 0.68 12.02 0.96 18.03 0.27 6.01 0.58 12.02 0.81 18.04l0.71 18.04 0.61 18.05-0.03-0.17 1.71 4.36 0.03 0.08v0.08c0.1 3.1 0.19 6.2 0.26 9.3l0.11 4.65 0.06 2.32c0 0.79 0.05 1.5 0.23 2.24 0.35 1.45 1.12 2.8 2.21 3.83 1.13 1 2.37 1.99 3.55 2.98l0.9 0.75c0.34 0.31 0.43 0.85 0.22 1.25-0.52 0.7-1.17 1.09-1.82 1.54-1.32 0.84-2.75 1.46-4.2 2.01 1.42-0.62 2.81-1.32 4.08-2.18 0.61-0.43 1.28-0.93 1.67-1.49 0.15-0.3 0.06-0.67-0.18-0.88l-0.91-0.71c-1.23-0.96-2.45-1.87-3.67-2.88-1.2-1.07-2.05-2.51-2.47-4.06-0.21-0.77-0.28-1.61-0.3-2.37l-0.1-2.32-0.21-4.65c-0.15-3.1-0.27-6.2-0.39-9.29l0.03 0.16-1.74-4.35-0.03-0.08v-0.09l-0.69-18.04-0.58-18.05c-0.2-6.02-0.32-12.03-0.48-18.05-0.15-6.02-0.26-12.04-0.34-18.06z" fill="url(#linear-gradient16)"/></g><g class="st33"><path class="st18" d="m158.41 370.43c0.12 4.01 0.18 8.02 0.27 12.03l0.15 12.03 0.05 6.01v1.5c0.01 0.52 0 0.98 0.07 1.42 0.15 0.89 0.57 1.74 1.2 2.39 0.62 0.66 1.43 1.13 2.32 1.32 0.46 0.11 0.86 0.12 1.38 0.11h1.5l6.01-0.03 6.01 0.02h1.5c0.52 0.02 0.92 0 1.38-0.11 0.87-0.2 1.7-0.67 2.32-1.33s1.05-1.5 1.2-2.39c0.08-0.44 0.06-0.9 0.07-1.42v-1.5s0.06-6.01 0.06-6.01l0.15-12.03c0.09-4.01 0.14-8.02 0.27-12.03 0.12 4.01 0.18 8.02 0.27 12.03l0.15 12.03 0.05 6.01v1.5c0 0.48 0.03 1.03-0.06 1.58-0.17 1.09-0.68 2.11-1.43 2.92s-1.74 1.38-2.81 1.64c-0.52 0.13-1.13 0.16-1.61 0.15h-1.5l-6.01 0.03-6.01-0.02h-1.5c-0.48 0-1.09-0.03-1.61-0.16-1.07-0.25-2.07-0.83-2.82-1.64-0.75-0.8-1.26-1.83-1.43-2.92-0.09-0.55-0.07-1.1-0.07-1.58v-1.5s0.06-6.01 0.06-6.01l0.15-12.03c0.09-4.01 0.14-8.02 0.27-12.03z" fill="url(#linear-gradient17)"/></g><g class="st31"><path class="st15" d="m189.51 408.83c0.04 0.88-0.67 1.58-1.33 2.07-0.7 0.5-1.46 0.88-2.24 1.22-1.57 0.64-3.21 1.08-4.86 1.41-3.3 0.67-6.67 0.92-10.03 0.94-3.36-0.02-6.73-0.27-10.03-0.93-1.65-0.33-3.29-0.77-4.86-1.41-0.78-0.33-1.54-0.72-2.24-1.22-0.67-0.48-1.38-1.19-1.33-2.07 0.1 0.86 0.84 1.39 1.51 1.79 0.71 0.4 1.48 0.68 2.27 0.92 1.57 0.48 3.19 0.78 4.82 1.03 3.26 0.46 6.56 0.65 9.86 0.65s6.6-0.18 9.86-0.64c1.63-0.24 3.25-0.54 4.82-1.03 0.78-0.24 1.55-0.52 2.27-0.92 0.67-0.41 1.41-0.93 1.51-1.79z" fill="url(#linear-gradient18)"/></g><g class="st35"><path class="st20" d="m156.09 411.1c0.12 3.78 0.18 7.56 0.27 11.34l0.15 11.34 0.06 5.67c0.02 0.75 0.55 1.45 1.23 1.99 0.67 0.55 1.49 0.98 2.33 1.32 3.41 1.38 7.21 1.78 10.92 1.8 3.71-0.02 7.51-0.42 10.92-1.8 0.84-0.35 1.66-0.77 2.33-1.32 0.67-0.54 1.2-1.24 1.23-1.99l0.06-5.67 0.15-11.34c0.09-3.78 0.15-7.56 0.27-11.34 0.12 3.78 0.18 7.56 0.27 11.34l0.15 11.34c0.03 1.89 0.05 3.78 0.05 5.67-0.03 1.19-0.8 2.11-1.56 2.74-0.78 0.65-1.67 1.11-2.56 1.49-3.61 1.49-7.49 1.92-11.31 1.97-3.82-0.06-7.69-0.48-11.31-1.98-0.9-0.38-1.78-0.84-2.56-1.49-0.76-0.63-1.53-1.55-1.56-2.73 0-1.9 0.02-3.78 0.05-5.67l0.15-11.34c0.09-3.78 0.14-7.56 0.27-11.34z" fill="url(#linear-gradient19)"/></g><g class="st31"><path class="st24" d="m192.52 445.1c0.06 1.02-0.69 1.9-1.46 2.5-0.78 0.63-1.67 1.1-2.57 1.52-1.82 0.81-3.74 1.35-5.67 1.77-3.87 0.83-7.82 1.15-11.77 1.17-3.94-0.02-7.9-0.33-11.77-1.17-1.93-0.42-3.85-0.96-5.67-1.77-0.9-0.42-1.79-0.89-2.57-1.52-0.77-0.6-1.52-1.48-1.46-2.5 0.1 1 0.89 1.7 1.67 2.21 0.8 0.52 1.7 0.88 2.61 1.19 1.82 0.63 3.72 1.03 5.62 1.35 3.82 0.61 7.7 0.85 11.57 0.85s7.75-0.24 11.57-0.85c1.9-0.32 3.8-0.71 5.62-1.35 0.91-0.31 1.8-0.68 2.61-1.19 0.78-0.51 1.57-1.2 1.67-2.21z" fill="url(#linear-gradient20)"/></g><g class="st32"><path class="st23" d="m162.33 412.93c0.19 6.02 0.31 12.04 0.38 18.06l0.06 4.51 0.02 2.26v1.13c0 0.22 0 0.32 0.04 0.44s0.1 0.24 0.18 0.36c0.34 0.48 0.98 0.85 1.62 1.12 0.65 0.28 1.35 0.48 2.06 0.64 1.42 0.31 2.9 0.43 4.37 0.42 1.47 0 2.94-0.11 4.37-0.42 0.71-0.16 1.41-0.36 2.06-0.64 0.64-0.28 1.27-0.65 1.62-1.12 0.08-0.12 0.14-0.24 0.18-0.36 0.03-0.12 0.03-0.22 0.03-0.44v-1.13l0.03-2.26 0.06-4.51c0.08-6.02 0.19-12.04 0.38-18.06 0.19 6.02 0.31 12.04 0.38 18.06l0.07 4.51 0.02 2.26v1.13c0 0.16 0.01 0.44-0.05 0.69-0.07 0.24-0.18 0.46-0.31 0.66-0.55 0.76-1.29 1.15-2 1.49-0.73 0.33-1.48 0.56-2.23 0.74-1.51 0.35-3.06 0.5-4.6 0.52-1.54-0.02-3.08-0.16-4.6-0.52-0.76-0.18-1.51-0.41-2.23-0.74-0.72-0.34-1.46-0.73-2-1.49-0.13-0.19-0.24-0.41-0.31-0.66s-0.06-0.53-0.06-0.68v-1.13l0.03-2.26 0.06-4.51c0.07-6.02 0.19-12.04 0.38-18.06z" fill="url(#linearGradient4966)"/></g><g class="st76"><path class="st72" d="m189.51 444.86c0 0.2-0.16 0.35-0.32 0.46s-0.33 0.2-0.51 0.28c-0.35 0.15-0.72 0.27-1.1 0.37-0.74 0.2-1.5 0.35-2.26 0.48-1.52 0.26-3.05 0.44-4.59 0.59-3.07 0.3-6.16 0.47-9.25 0.54-3.09 0.06-6.18 0.04-9.28-0.15-1.55-0.11-3.09-0.24-4.64-0.48-0.77-0.12-1.54-0.27-2.32-0.47-0.39-0.1-0.78-0.22-1.17-0.39-0.2-0.09-0.4-0.18-0.61-0.33-0.18-0.14-0.51-0.36-0.55-0.9 0.04-0.54 0.37-0.76 0.55-0.9 0.21-0.15 0.41-0.24 0.61-0.33 0.4-0.17 0.78-0.28 1.17-0.39 0.77-0.2 1.55-0.35 2.32-0.47 1.54-0.24 3.09-0.37 4.64-0.48 3.09-0.19 6.19-0.21 9.28-0.15 3.09 0.07 6.17 0.24 9.25 0.54 1.54 0.15 3.07 0.33 4.59 0.59 0.76 0.13 1.52 0.28 2.26 0.48 0.37 0.1 0.74 0.21 1.1 0.37 0.18 0.08 0.35 0.16 0.51 0.28 0.15 0.11 0.31 0.26 0.32 0.46zm0 0c-0.01-0.2-0.17-0.35-0.32-0.45-0.16-0.11-0.33-0.2-0.51-0.27-0.35-0.15-0.73-0.26-1.1-0.36-0.75-0.2-1.5-0.34-2.26-0.46-1.52-0.24-3.06-0.37-4.6-0.48-3.08-0.19-6.16-0.21-9.23-0.15-3.08 0.07-6.15 0.24-9.2 0.54-1.53 0.14-3.05 0.33-4.55 0.58-0.75 0.12-1.49 0.27-2.21 0.47-0.35 0.1-0.71 0.21-1.02 0.34-0.15 0.07-0.3 0.14-0.4 0.22-0.13 0.07-0.11 0.16-0.09 0.01-0.02-0.15-0.04-0.06 0.09 0.01 0.1 0.08 0.25 0.15 0.4 0.22 0.31 0.14 0.67 0.24 1.02 0.34 0.71 0.19 1.46 0.34 2.21 0.47 1.5 0.25 3.02 0.44 4.55 0.58 3.05 0.3 6.12 0.47 9.2 0.54 3.08 0.06 6.16 0.04 9.23-0.15 1.54-0.11 3.07-0.24 4.6-0.48 0.76-0.12 1.52-0.26 2.26-0.46 0.37-0.1 0.74-0.21 1.1-0.36 0.18-0.08 0.35-0.16 0.51-0.27 0.16-0.1 0.31-0.26 0.32-0.45z" fill="url(#linearGradient4968)"/></g><path class="st8" d="m149.59 445.1c0 2.29 9.61 6.45 21.47 6.45s21.47-4.16 21.47-6.45l-1.45-3.8-1.15-31.78-3.91 1.58v28.33c0 3.13-6.7 5.68-14.96 5.68s-14.96-2.54-14.96-5.68v-28.33l-3.65-1.12-1.1 30.26-1.77 4.86z" fill="url(#linear-gradient22)"/><path class="st21" d="m192.52 445.75s1.21 0.83-3.01 2.36v20.18s-3.11 14.13-10.61 15.4c0 0 11.96-3.15 20.45-8.95 0 0 2.4-1.28 1.09-2.33s-6.95-3.22-7.31-10.64-0.61-16.02-0.61-16.02z" fill="url(#linear-gradient23)"/><path class="st25" d="m195.86 159.8h-49.85c-2.26 0-4.09 1.83-4.09 4.09v203.47c0 5.34 12.99 9.68 29.01 9.68s29.01-4.33 29.01-9.68v-203.47c0-2.26-1.83-4.09-4.09-4.09z"/><path class="st30" d="m195.86 159.8h-49.85c-2.26 0-4.09 1.83-4.09 4.09v203.47c0 5.34 12.99 9.68 29.01 9.68s29.01-4.33 29.01-9.68v-203.47c0-2.26-1.83-4.09-4.09-4.09z" fill="url(#linearGradient4974)"/><path class="st28" d="m145.9 155.77h50.61v4.03h-50.61z" fill="#aeadb1"/><path class="st78" d="m196.03 73.68v-9.64c0-2.84-1.57-5.44-4.07-6.77l-0.49-0.26c-1.93-1.03-4.2-1.22-6.27-0.52-5.47 1.85-16.99 5.18-25.98 4.03-0.12-0.02-0.24-0.03-0.36-0.05-6.62-0.86-12.48 4.29-12.48 10.96v2.24h49.65z"/><path class="st26" d="m146.38 73.15v-8.79c0-3.03 1.68-5.82 4.36-7.24 2.06-1.1 4.48-1.29 6.69-0.55 5.55 1.86 16.89 5.09 25.76 3.96 3.75-0.48 6.41-0.9 8.29-1.26 2.37-0.44 4.55 1.37 4.55 3.78v10.1c0 0.29-0.24 0.53-0.53 0.53h-48.58c-0.29 0-0.53-0.24-0.53-0.53z"/><g class="st80" clip-path="url(#clippath)"><path class="st78" d="m156.31 54.87h6.62v21.9h-6.62z" fill="#333"/><path class="st78" d="m180.91 54.87h6.62v21.9h-6.62z" fill="#333"/><path class="st22" d="m146.38 73.15v-8.79c0-3.03 1.68-5.82 4.36-7.24 2.06-1.1 4.48-1.29 6.69-0.55 5.55 1.86 16.89 5.09 25.76 3.96 3.75-0.48 6.41-0.9 8.29-1.26 2.37-0.44 4.55 1.37 4.55 3.78v10.1c0 0.29-0.24 0.53-0.53 0.53h-48.58c-0.29 0-0.53-0.24-0.53-0.53z" fill="url(#linearGradient4976)"/></g><path class="st25" d="m145.65 73.68h51.12c1.7617 0 3.18 1.4183 3.18 3.18v77.74c0 1.7617-1.4183 3.18-3.18 3.18h-51.12c-1.7617 0-3.18-1.4183-3.18-3.18v-77.74c0-1.7617 1.4183-3.18 3.18-3.18z" fill="#efefef"/><path class="st11" d="m145.65 73.68h51.12c1.7617 0 3.18 1.4183 3.18 3.18v77.74c0 1.7617-1.4183 3.18-3.18 3.18h-51.12c-1.7617 0-3.18-1.4183-3.18-3.18v-77.74c0-1.7617 1.4183-3.18 3.18-3.18z" fill="url(#linearGradient1555)" opacity=".11" style="mix-blend-mode:darken"/><g class="st71" clip-path="url(#clippath-1)" fill="none" stroke-linecap="round" stroke-miterlimit="10" stroke-width="1.5px"><path class="st37" d="m147.65 76.3v78.87" opacity=".57" stroke="url(#linear-gradient27)"/><path class="st38" d="m144.54 76.3v78.87" opacity=".57" stroke="url(#linear-gradient28)"/><path class="st39" d="m194.27 76.3v78.87" opacity=".57" stroke="url(#linear-gradient29)"/><path class="st57" d="m197.38 76.3v78.87" opacity=".57" stroke="url(#linear-gradient30)"/><path class="st54" d="m191.16 76.3v78.87" opacity=".57" stroke="url(#linear-gradient31)"/><path class="st56" d="m188.05 76.3v78.87" opacity=".57" stroke="url(#linear-gradient32)"/><path class="st62" d="m184.94 76.3v78.87" opacity=".57" stroke="url(#linear-gradient33)"/><path class="st58" d="m181.84 76.3v78.87" opacity=".57" stroke="url(#linear-gradient34)"/><path class="st60" d="m178.73 76.3v78.87" opacity=".57" stroke="url(#linear-gradient35)"/><path class="st63" d="m169.4 76.3v78.87" opacity=".57" stroke="url(#linear-gradient36)"/><path class="st61" d="m175.62 76.3v78.87" opacity=".57" stroke="url(#linear-gradient37)"/><path class="st53" d="m172.51 76.3v78.87" opacity=".57" stroke="url(#linear-gradient38)"/><path class="st59" d="m166.3 76.3v78.87" opacity=".57" stroke="url(#linear-gradient39)"/><path class="st51" d="m163.19 76.3v78.87" opacity=".57" stroke="url(#linear-gradient40)"/><path class="st68" d="m160.08 76.3v78.87" opacity=".57" stroke="url(#linear-gradient41)"/><path class="st70" d="m156.97 76.3v78.87" opacity=".57" stroke="url(#linear-gradient42)"/><path class="st66" d="m153.86 76.3v78.87" opacity=".57" stroke="url(#linear-gradient43)"/><path class="st50" d="m150.75 76.3v78.87" opacity=".57" stroke="url(#linear-gradient44)"/><path class="st67" d="m94.81 76.3v78.87" opacity=".57" stroke="url(#linear-gradient45)"/><path class="st52" d="m141.43 76.3v78.87" opacity=".57" stroke="url(#linear-gradient46)"/><path class="st65" d="m138.32 76.3v78.87" opacity=".57" stroke="url(#linear-gradient47)"/><path class="st69" d="m135.21 76.3v78.87" opacity=".57" stroke="url(#linear-gradient48)"/><path class="st64" d="m132.11 76.3v78.87" opacity=".57" stroke="url(#linear-gradient49)"/><path class="st40" d="m129 76.3v78.87" opacity=".57" stroke="url(#linear-gradient50)"/><path class="st42" d="m125.89 76.3v78.87" opacity=".57" stroke="url(#linear-gradient51)"/><path class="st41" d="m116.57 76.3v78.87" opacity=".57" stroke="url(#linear-gradient52)"/><path class="st47" d="m122.78 76.3v78.87" opacity=".57" stroke="url(#linear-gradient53)"/><path class="st46" d="m119.67 76.3v78.87" opacity=".57" stroke="url(#linear-gradient54)"/><path class="st44" d="m113.46 76.3v78.87" opacity=".57" stroke="url(#linear-gradient55)"/><path class="st45" d="m110.35 76.3v78.87" opacity=".57" stroke="url(#linear-gradient56)"/><path class="st43" d="m107.24 76.3v78.87" opacity=".57" stroke="url(#linear-gradient57)"/><path class="st48" d="m104.13 76.3v78.87" opacity=".57" stroke="url(#linear-gradient58)"/><path class="st49" d="m101.02 76.3v78.87" opacity=".57" stroke="url(#linear-gradient59)"/><path class="st55" d="m97.92 76.3v78.87" opacity=".57" stroke="url(#linear-gradient60)"/></g><path class="st10" d="m195.86 159.8h-49.85c-2.26 0-4.09 1.83-4.09 4.09v203.47c0 5.34 12.99 9.68 29.01 9.68s29.01-4.33 29.01-9.68v-203.47c0-2.26-1.83-4.09-4.09-4.09z" fill="url(#linearGradient5046)"/><path d="m184.52 272.18v78.76c-4.06 0.73-8.68 1.13-13.59 1.13-16.01 0-29.01-4.32-29.01-9.67l-0.3-74.18c4.69 3.96 13.3 5.09 29.31 5.09 4.91 0 9.53-0.42 13.59-1.13z"/><path class="st79" d="m144.61 130.38h0.01c0.99166 0 1.79 0.79834 1.79 1.79v18.28c0 0.99166-0.79834 1.79-1.79 1.79h-0.01c-0.99166 0-1.79-0.79834-1.79-1.79v-18.28c0-0.99166 0.79834-1.79 1.79-1.79z" fill="#87888a"/><g fill="#fff"><path class="st74" d="m154.41 290.51v48.92l-6.65-1.05v-48.92z"/><path class="st74" d="m163.98 306.92v34.03l-4.83-0.77v-34.03z"/><path class="st74" d="m163.98 283.35v18.4l-4.83-0.77v-18.4z"/></g><g fill="#333"><path class="st78" transform="rotate(-90 183.7 240.34)" d="m183.03 236.62h1.33v7.44h-1.33z"/><path class="st78" transform="rotate(-90,183.69,222)" d="m183.03 218.28h1.33v7.44h-1.33z"/><path class="st78" transform="rotate(-90,183.69,188.86)" d="m183.03 185.14h1.33v7.44h-1.33z"/><path class="st78" transform="rotate(-90 183.7 216.82)" d="m183.03 213.09h1.33v7.44h-1.33z"/><path class="st78" transform="rotate(-90,183.69,229.78)" d="m183.03 226.06h1.33v7.44h-1.33z"/><path class="st78" transform="rotate(-90,183.69,227.06)" d="m183.36 223.34h0.66v7.44h-0.66z"/><path class="st78" transform="rotate(-90 183.7 225.42)" d="m183.36 221.7h0.66v7.44h-0.66z"/><path class="st78" transform="rotate(-90,183.69,223.88)" d="m183.36 220.16h0.66v7.44h-0.66z"/><path class="st78" transform="rotate(-90,183.69,208.78)" d="m183.36 205.05h0.66v7.44h-0.66z"/><path class="st78" transform="rotate(-90,183.69,207.14)" d="m183.36 203.42h0.66v7.44h-0.66z"/><path class="st78" transform="rotate(-90,183.69,205.6)" d="m183.36 201.87h0.66v7.44h-0.66z"/><path class="st78" transform="rotate(-90,183.69,193.53)" d="m183.36 189.81h0.66v7.44h-0.66z"/><path class="st78" transform="rotate(-90,183.69,191.9)" d="m183.36 188.18h0.66v7.44h-0.66z"/><path class="st78" transform="rotate(-90,183.69,231.18)" d="m183.36 227.46h0.66v7.44h-0.66z"/><path class="st78" transform="rotate(-90,183.69,190.35)" d="m183.36 186.63h0.66v7.44h-0.66z"/><path class="st78" transform="rotate(-90,183.69,215.05)" d="m183.36 211.32h0.66v7.44h-0.66z"/><path class="st78" transform="rotate(-90,183.69,220.42)" d="m183.36 216.7h0.66v7.44h-0.66z"/><path class="st78" transform="rotate(-90 183.7 238.92)" d="m183.36 235.19h0.66v7.44h-0.66z"/><path class="st78" transform="rotate(-90,183.69,233.43)" d="m183.03 229.71h1.33v7.44h-1.33z"/><path class="st78" transform="rotate(-90 183.7 218.78)" d="m183.03 215.06h1.33v7.44h-1.33z"/><path class="st78" transform="rotate(-90,183.69,212.42)" d="m182.17 208.7h3.04v7.44h-3.04z"/><path class="st78" transform="rotate(-90,183.69,236.63)" d="m182.17 232.91h3.04v7.44h-3.04z"/><path class="st78" transform="rotate(-90,183.69,201.48)" d="m181.7 197.76h3.99v7.44h-3.99z"/><path class="st78" transform="rotate(-90,183.69,196.58)" d="m181.7 192.86h3.99v7.44h-3.99z"/></g><g fill="#333"><path class="st78" transform="rotate(-90 148.8 263.54)" d="m146.99 261.72h3.62v3.62h-3.62z"/><path class="st78" transform="rotate(-90 148.8 252.16)" d="m146.99 250.35h3.62v3.62h-3.62z"/><path class="st78" transform="rotate(-90 160.02 252.16)" d="m158.2 250.35h3.62v3.62h-3.62z"/><path class="st78" transform="rotate(-90 160.02 263.54)" d="m158.2 261.72h3.62v3.62h-3.62z"/><path class="st78" transform="rotate(-90 147.42 260.94)" d="m146.99 260.51h0.87v0.87h-0.87z"/><path class="st78" transform="rotate(-90 148.4 254.96)" d="m148.15 254.71h0.52v0.52h-0.52z"/><path class="st78" transform="rotate(-90,151.93,260.09)" d="m151.67 259.83h0.52v0.52h-0.52z"/><path class="st78" transform="rotate(-90 151.36 250.76)" d="m151.11 250.5h0.52v0.52h-0.52z"/><path class="st78" transform="rotate(-90 151.42 254.42)" d="m151.17 254.17h0.52v0.52h-0.52z"/><path class="st78" transform="rotate(-90,153.8,256.59)" d="m153.54 256.33h0.52v0.52h-0.52z"/><path class="st78" transform="rotate(-90,152.19,257.45)" d="m151.93 257.19h0.52v0.52h-0.52z"/><path class="st78" transform="rotate(-90 157.78 258.08)" d="m157.52 257.83h0.52v0.52h-0.52z"/><path class="st78" transform="rotate(-90 151.68 263.36)" d="m151.42 263.1h0.52v0.52h-0.52z"/><path class="st78" transform="rotate(-90,155.39,265.1)" d="m155.15 264.85h0.49v0.49h-0.49z"/><path class="st78" transform="rotate(-90,151.05,253.41)" d="m150.8 253.16h0.49v0.49h-0.49z"/><path class="st78" transform="rotate(-90,160.46,261.13)" d="m160.22 260.88h0.49v0.49h-0.49z"/><path class="st78" transform="rotate(-90 159.82 260.08)" d="m159.58 259.84h0.49v0.49h-0.49z"/><path class="st78" transform="rotate(-90,148.58,261.13)" d="m148.34 260.88h0.49v0.49h-0.49z"/><path class="st78" transform="rotate(-90,157.78,265.1)" d="m157.54 264.85h0.49v0.49h-0.49z"/><path class="st78" transform="rotate(-90,151.25,259.32)" d="m150.99 259.06h0.52v0.52h-0.52z"/><path class="st78" transform="rotate(-90 157.52 250.6)" d="m157.26 250.35h0.52v0.52h-0.52z"/><path class="st78" transform="rotate(-90 154.84 253.66)" d="m154.58 253.41h0.52v0.52h-0.52z"/><path class="st78" transform="rotate(-90 156.02 256.44)" d="m155.77 256.18h0.52v0.52h-0.52z"/><path class="st78" transform="rotate(-90,160.01,258.34)" d="m159.76 258.08h0.52v0.52h-0.52z"/><path class="st78" transform="rotate(-90,160.96,254.53)" d="m160.7 254.27h0.52v0.52h-0.52z"/><path class="st78" transform="rotate(-90,151.05,260.94)" d="m150.62 260.51h0.87v0.87h-0.87z"/><path class="st78" transform="rotate(-90 150.18 260.94)" d="m149.75 260.51h0.87v0.87h-0.87z"/><path class="st78" transform="rotate(180 159.34 257.9)" d="m158.9 256.44h0.87v2.93h-0.87z"/><path class="st78" transform="rotate(-90 157.64 260.94)" d="m157.21 259.48h0.87v2.93h-0.87z"/><path class="st78" transform="rotate(-90 153.98 254.96)" d="m153.54 254.53h0.87v0.87h-0.87z"/><path class="st78" transform="rotate(-90 153.8 264.06)" d="m153.36 263.45h0.87v1.23h-0.87z"/><path class="st78" transform="rotate(-90 155.48 264.04)" d="m155.04 263.61h0.87v0.87h-0.87z"/><path class="st78" transform="rotate(-90 148.58 259.66)" d="m148.15 259.22h0.87v0.87h-0.87z"/><path class="st78" transform="rotate(-90,154.05,260.09)" d="m153.18 259.22h1.73v1.73h-1.73z"/><path class="st78" transform="rotate(-90 149.74 258.78)" d="m148.88 257.91h1.73v1.73h-1.73z"/><path class="st78" transform="rotate(-90,153.18,254.53)" d="m152.32 253.66h1.73v1.73h-1.73z"/><path class="st78" transform="rotate(-90,159.15,255.19)" d="m158.28 254.32h1.73v1.73h-1.73z"/><path class="st78" transform="rotate(-90 151.68 262.6)" d="m151.25 262.17h0.87v0.87h-0.87z"/><path class="st78" transform="rotate(-90 153.62 262.6)" d="m153.18 262.17h0.87v0.87h-0.87z"/><path class="st78" transform="rotate(-90 152.54 263.54)" d="m152.12 263.1h0.87v0.87h-0.87z"/><path class="st78" transform="rotate(-90 147.42 258.78)" d="m146.99 258.34h0.87v0.87h-0.87z"/><path class="st78" transform="rotate(-90,148.15,256.16)" d="m147.72 255.72h0.87v0.87h-0.87z"/><path class="st78" transform="rotate(-90 149.02 257.7)" d="m148.58 257.27h0.87v0.87h-0.87z"/><path class="st78" transform="rotate(-90,150.18,256.84)" d="m149.75 256.41h0.87v0.87h-0.87z"/><path class="st78" transform="rotate(-90,149.45,255.72)" d="m149.02 255.29h0.87v0.87h-0.87z"/><path class="st78" transform="rotate(-90,152.75,255.72)" d="m152.32 255.29h0.87v0.87h-0.87z"/><path class="st78" transform="rotate(-90 152.12 252.66)" d="m151.68 252.23h0.87v0.87h-0.87z"/><path class="st78" transform="rotate(-90,152.55,251.19)" d="m152.12 250.76h0.87v0.87h-0.87z"/><path class="st78" transform="rotate(-90,156.03,254.53)" d="m155.59 254.1h0.87v0.87h-0.87z"/><path class="st78" transform="rotate(-90,158.5,259.32)" d="m158.06 258.89h0.87v0.87h-0.87z"/><path class="st78" transform="rotate(-90,158.93,255.49)" d="m158.5 255.06h0.87v0.87h-0.87z"/><path class="st78" transform="rotate(-90,161.39,256.84)" d="m160.96 256.41h0.87v0.87h-0.87z"/><path class="st78" transform="rotate(-90,157.21,264.05)" d="m156.78 263.61h0.87v0.87h-0.87z"/><path class="st78" transform="rotate(-90,156.34,263.18)" d="m155.91 262.75h0.87v0.87h-0.87z"/><path class="st78" transform="rotate(-90 156.68 251.72)" d="m156.24 251.29h0.87v0.87h-0.87z"/><path class="st78" transform="rotate(-90,159.58,254.86)" d="m159.15 254.42h0.87v0.87h-0.87z"/><path class="st78" transform="rotate(-90 161.4 255.3)" d="m160.63 254.86h1.53v0.87h-1.53z"/><path class="st78" transform="rotate(-90 157.78 260.08)" d="m157.34 259.65h0.87v0.87h-0.87z"/><path class="st78" transform="rotate(-90 153.98 251.82)" d="m152.67 251.38h2.6v0.87h-2.6z"/><path class="st78" transform="rotate(-90 155.9 251.82)" d="m154.61 251.38h2.6v0.87h-2.6z"/><path class="st78" transform="rotate(-90,152.55,259.65)" d="m150.83 259.22h3.45v0.87h-3.45z"/><path class="st78" transform="rotate(-90 161.4 259.66)" d="m159.67 259.22h3.45v0.87h-3.45z"/><path class="st78" transform="rotate(-90,151.05,256.06)" d="m149.52 255.63h3.06v0.87h-3.06z"/><path class="st78" transform="rotate(-90,147.43,256.06)" d="m145.9 255.63h3.06v0.87h-3.06z"/><path class="st78" transform="rotate(-90 156.34 259.66)" d="m154.62 259.22h3.45v0.87h-3.45z"/><path class="st78" transform="rotate(-90,154.84,256.06)" d="m153.31 255.63h3.06v0.87h-3.06z"/><path class="st78" transform="rotate(-90 157.2 254.28)" d="m155.68 253.85h3.06v0.87h-3.06z"/><path class="st78" transform="rotate(180,158.74,256.84)" d="m157.02 256.41h3.45v0.87h-3.45z"/><path class="st78" transform="rotate(180 155.14 258.34)" d="m153.62 257.91h3.06v0.87h-3.06z"/><path class="st78" transform="rotate(180 156.24 262.06)" d="m154.71 261.63h3.06v0.87h-3.06z"/><path class="st78" transform="rotate(180 152.55 264.92)" d="m151.02 264.48h3.06v0.87h-3.06z"/></g><path class="st78" d="m147.43 186.96h4.51v54.48h-4.51z" fill="#333"/><path class="st78" d="m157.96 210.57h2.7v30.86h-2.7z" fill="#333"/><path class="st12" d="m220.66 502.63c-3.49 3.93-8.87 6.18-12.89 8.23-1.87 0.95-3.77 1.87-5.73 2.63-9.21 3.59-19.06 5.43-28.94 5.43h-5.42c-13.63 0-26.92-3.89-38.63-10.88-3.2-1.91-6.67-3.67-8.56-7.05-2.12-3.79-2.69-9.23 0.75-12.44l0.84-0.81c0.73-0.7 1.32-1.54 1.74-2.46l4.2-9.08c0.07-0.14 0.25-0.18 0.36-0.07 1.98 2.03 17.19 16.79 41.14 16.79h3.27c24.04 0 39.26-14.85 41.16-16.81 0.1-0.11 0.28-0.08 0.35 0.05l5.21 9.33c0.47 0.85 1.11 1.6 1.87 2.21l0.1 0.08c3.65 2.92 3.18 8.13 1.18 11.95-0.55 1.06-1.24 2.01-2.01 2.89z" fill="url(#linearGradient2572)"/><path class="st7" d="m220.66 502.63c-3.49 3.93-8.87 6.18-12.89 8.23-1.87 0.95-3.77 1.87-5.73 2.63-9.21 3.59-19.06 5.43-28.94 5.43h-5.42c-13.63 0-26.92-3.89-38.63-10.88-3.2-1.91-6.67-3.67-8.56-7.05-2.12-3.79-2.69-9.23 0.75-12.44l0.84-0.81c0.73-0.7 1.32-1.54 1.74-2.46l4.2-9.08c0.07-0.14 0.25-0.18 0.36-0.07 1.98 2.03 17.19 16.79 41.14 16.79h3.27c24.04 0 39.26-14.85 41.16-16.81 0.1-0.11 0.28-0.08 0.35 0.05l5.21 9.33c0.47 0.85 1.11 1.6 1.87 2.21l0.1 0.08c3.65 2.92 3.18 8.13 1.18 11.95-0.55 1.06-1.24 2.01-2.01 2.89z" fill="url(#linearGradient1547)"/><path class="st14" d="m179.4 411.5v30.31s1.91 6.15 1.91 6.15v18.85h6.18c3.39 0 6.75 0.55 9.96 1.63l7.27 2.45c2.99 1.31 5.9 2.82 8.72 4.5l0.79 0.7-0.28 0.02c-1.9 1.96-17.13 16.81-41.16 16.81h-3.27c-23.96 0-39.16-14.76-41.14-16.79l-0.19-0.08c2.82-1.68 6.59-3.85 9.58-5.16l7.27-2.45c3.21-1.08 6.57-1.63 9.96-1.63h6.18v-18.85l1.91-6.15v-30.31h16.3z"/><path class="st5" d="m179.4 411.5v30.31s1.91 6.15 1.91 6.15v18.85h6.18c3.39 0 6.75 0.55 9.96 1.63l7.27 2.45c2.99 1.31 5.9 2.82 8.72 4.5l0.79 0.7-0.28 0.02c-1.9 1.96-17.13 16.81-41.16 16.81h-3.27c-23.96 0-39.16-14.76-41.14-16.79l-0.19-0.08c2.82-1.68 6.59-3.85 9.58-5.16l7.27-2.45c3.21-1.08 6.57-1.63 9.96-1.63h6.18v-18.85l1.91-6.15v-30.31h16.3z" fill="url(#linear-gradient1)"/><path class="st13" d="m196.69 467.69c0.24 1.43-11.07 3.72-24.92 3.72s-25.55-2.27-25.46-3.72c0.07-1.11 11.37-2.48 25.22-2.48s24.95 1.24 25.16 2.48z"/><path class="st13" d="m220.83 494.21c-23.11 19.61-60.51 21.83-87.07 8.14-3.87-2.05-7.63-4.35-11.04-7.1 7.16 5.02 15.15 8.77 23.49 11.22 24.91 6.92 53.73 3.59 74.63-12.26z"/><path class="st13" d="m208.64 487.49c1.36 3.17 2.19 6.48 2.45 9.92-1.37-3.17-2.18-6.48-2.45-9.92z"/><path class="st13" d="m136.98 487.49c-0.27 3.44-1.08 6.76-2.45 9.92 0.26-3.44 1.08-6.75 2.45-9.92z"/><g fill="url(#linearGradient2572)"><path class="st12" d="m196.69 467.69 4.05 3.23c0.41 0.33 0.45 0.94 0.09 1.32-0.73 0.76-2.23 2.26-5.73 3.36-27.67 8.67-47.19 0-47.19 0-3.41-1.36-5-2.6-5.73-3.36-0.37-0.38-0.33-0.99 0.09-1.32l4.05-3.23s24.24 8.36 50.38 0z"/><path class="st12" d="m161.18 448.14c0 0.95 4.5 1.71 10.06 1.71s10.06-0.77 10.06-1.71v17.84c0 0.95-4.5 1.71-10.06 1.71s-10.06-0.77-10.06-1.71z"/><path class="st12" d="m179.4 441.77c0 0.68-3.65 1.23-8.15 1.23s-8.15-0.55-8.15-1.23v-32.61h16.3z"/></g><path class="st6" d="m161.18 448.14v-0.18l1.91-6.15v-0.04c0 0.68 3.64 1.23 8.14 1.23s8.15-0.55 8.15-1.23v0.04l1.91 6.15v0.18c0 0.95-4.51 1.71-10.07 1.71s-10.06-0.76-10.06-1.71z" fill="url(#linear-gradient2)"/><path class="st4" d="m161.18 448.14c0 0.95 4.5 1.71 10.06 1.71s10.06-0.77 10.06-1.71v17.84c0 0.95-4.5 1.71-10.06 1.71s-10.06-0.77-10.06-1.71z" fill="url(#linear-gradient3)"/><path class="st1" d="m179.4 441.77c0 0.68-3.65 1.23-8.15 1.23s-8.15-0.55-8.15-1.23v-32.61h16.3z" fill="url(#linear-gradient4)"/><path class="st12" d="m161.91 406.51s-2.98 1.33-3.64 4.36c0 0 7.93 3.28 25.39-0.04 0.18-0.03 0.36-0.07 0.54-0.1 0 0 0.29-1.67-3.24-4.21h-19.05z" fill="url(#linearGradient2572)"/><path class="st12" d="m181.39 406.6c-0.68 0.35-1.46 0.55-2.29 0.55h-15.73c-0.72 0-1.41-0.15-2.02-0.42 1.46-2.54 5.41-4.37 10.06-4.37s8.46 1.76 9.98 4.24z" fill="url(#linearGradient2572)"/><path class="st2" d="m161.91 406.51s-2.98 1.33-3.64 4.36c0 0 7.93 3.28 25.39-0.04 0.18-0.03 0.36-0.07 0.54-0.1 0 0 0.29-1.67-3.24-4.21h-19.05z" fill="url(#linear-gradient5)"/><path class="st0" d="m181.39 406.6c-0.68 0.35-1.46 0.55-2.29 0.55h-15.73c-0.72 0-1.41-0.15-2.02-0.42 1.46-2.54 5.41-4.37 10.06-4.37s8.46 1.76 9.98 4.24z" fill="url(#linear-gradient6)"/><path class="st3" d="m196.69 467.69 4.05 3.23c0.41 0.33 0.45 0.94 0.09 1.32-0.73 0.76-2.23 2.26-5.73 3.36-27.67 8.67-47.19 0-47.19 0-3.41-1.36-5-2.6-5.73-3.36-0.37-0.38-0.33-0.99 0.09-1.32l4.05-3.23s24.24 8.36 50.38 0z" fill="url(#linear-gradient7)"/><path class="st36" d="m199.39 367.45 1.76 88.32c0.06 2.99 1.36 5.82 3.58 7.82l6.34 5.69c0.99 0.89 1.7 2.04 2.05 3.32l1.08 3.92s-15.63 17.02-41.37 17.02h-3.27c-25.73 0-41.37-17.02-41.37-17.02l1.08-3.92c0.35-1.28 1.07-2.43 2.05-3.32l6.34-5.69c2.22-2 3.52-4.83 3.58-7.82l1.76-88.32" fill="url(#linearGradient4946)" stroke="url(#linearGradient4948)"/><path class="st29" d="m199.96 367.45 1.76 88.32c0.06 2.99 1.36 5.82 3.58 7.82l6.34 5.69c0.99 0.89 1.7 2.04 2.05 3.32l1.08 3.92s-15.63 17.02-41.37 17.02h-3.27c-25.73 0-41.37-17.02-41.37-17.02l1.08-3.92c0.35-1.28 1.07-2.43 2.05-3.32l6.34-5.69c2.22-2 3.52-4.83 3.58-7.82l1.76-88.32" fill="url(#linearGradient4950)" stroke="url(#linearGradient4952)"/><path class="st73" d="m187.41 491.67c-4.4 1.16-9.28 1.88-14.58 1.88h-3.27c-25.73 0-41.37-17.03-41.37-17.03l1.08-3.92c0.35-1.29 1.07-2.44 2.06-3.32l6.33-5.69c2.23-2 3.52-4.83 3.59-7.82l1.75-88.32h7.76c-1.27 9.96-5.49 47.61 0.32 63.05 6.72 17.87 13.46 5.27 9.77 21.65-3.69 16.39-0.64 32.5 10.65 32.73 6.99 0.15 12.63 3.94 15.91 6.79z" fill="url(#linearGradient4954)"/><path class="st9" d="m187.41 491.67c-4.4 1.16-9.28 1.88-14.58 1.88h-3.27c-25.73 0-41.37-17.03-41.37-17.03l1.08-3.92c0.35-1.29 1.07-2.44 2.06-3.32l6.33-5.69c2.23-2 3.52-4.83 3.59-7.82l1.75-88.32h7.76c-1.27 9.96-5.49 47.61 0.32 63.05 6.72 17.87 16.25 12.68 6.73 26.51-16.88 24.52 2.4 27.64 13.7 27.87 6.99 0.15 12.63 3.94 15.91 6.79z" fill="url(#linearGradient1549)"/><g class="st31"><path class="st19" d="m153.91 369.74c-0.08 6.04-0.19 12.09-0.34 18.13-0.16 6.04-0.28 12.08-0.48 18.13l-0.58 18.12-0.69 18.12v0.09s-0.03 0.08-0.03 0.08l-1.74 4.37 0.03-0.16c-0.11 3.11-0.24 6.22-0.38 9.32l-0.21 4.66-0.1 2.33c-0.02 0.76-0.08 1.6-0.29 2.38-0.41 1.56-1.26 3.01-2.46 4.08-1.23 1.02-2.45 1.93-3.68 2.9l-0.91 0.71c-0.25 0.2-0.33 0.58-0.19 0.88 0.38 0.57 1.06 1.07 1.67 1.5 1.27 0.88 2.67 1.58 4.09 2.2-1.45-0.56-2.89-1.18-4.21-2.03-0.65-0.45-1.3-0.85-1.81-1.55-0.21-0.4-0.11-0.94 0.23-1.25l0.9-0.76c1.18-1 2.42-1.99 3.55-3 1.09-1.04 1.85-2.4 2.2-3.85 0.18-0.74 0.22-1.45 0.23-2.25l0.06-2.33 0.11-4.66c0.07-3.11 0.15-6.22 0.25-9.33v-0.08s0.03-0.08 0.03-0.08l1.71-4.38-0.03 0.17 0.61-18.12 0.71-18.12c0.23-6.04 0.55-12.08 0.81-18.11 0.28-6.04 0.61-12.07 0.96-18.11z" clip-path="url(#clippath)" fill="url(#linearGradient1551)"/></g><g class="st75"><path class="st16" d="m206.54 474.2c-2.57 1.9-5.31 3.58-8.16 5.04-2.87 1.44-5.85 2.65-8.92 3.62-6.13 1.95-12.65 2.68-19.05 2.57-6.43 0.01-12.91-0.92-18.99-3.04-3.04-1.05-5.99-2.34-8.82-3.85-2.82-1.54-5.51-3.29-8.03-5.25 5.31 3.56 11.06 6.41 17.12 8.29 3.03 0.92 6.12 1.68 9.25 2.14 3.14 0.46 6.29 0.61 9.47 0.61 3.21 0.05 6.35-0.01 9.5-0.4 3.15-0.37 6.25-1.03 9.31-1.87 6.1-1.73 11.93-4.43 17.33-7.85z" fill="url(#linearGradient1553)"/></g><g class="st34"><path class="st17" d="m188.48 369.74c0.35 6.01 0.68 12.02 0.96 18.03 0.27 6.01 0.58 12.02 0.81 18.04l0.71 18.04 0.61 18.05-0.03-0.17 1.71 4.36 0.03 0.08v0.08c0.1 3.1 0.19 6.2 0.26 9.3l0.11 4.65 0.06 2.32c0 0.79 0.05 1.5 0.23 2.24 0.35 1.45 1.12 2.8 2.21 3.83 1.13 1 2.37 1.99 3.55 2.98l0.9 0.75c0.34 0.31 0.43 0.85 0.22 1.25-0.52 0.7-1.17 1.09-1.82 1.54-1.32 0.84-2.75 1.46-4.2 2.01 1.42-0.62 2.81-1.32 4.08-2.18 0.61-0.43 1.28-0.93 1.67-1.49 0.15-0.3 0.06-0.67-0.18-0.88l-0.91-0.71c-1.23-0.96-2.45-1.87-3.67-2.88-1.2-1.07-2.05-2.51-2.47-4.06-0.21-0.77-0.28-1.61-0.3-2.37l-0.1-2.32-0.21-4.65c-0.15-3.1-0.27-6.2-0.39-9.29l0.03 0.16-1.74-4.35-0.03-0.08v-0.09l-0.69-18.04-0.58-18.05c-0.2-6.02-0.32-12.03-0.48-18.05-0.15-6.02-0.26-12.04-0.34-18.06z" fill="url(#linear-gradient16)"/></g><g class="st33"><path class="st18" d="m158.41 370.43c0.12 4.01 0.18 8.02 0.27 12.03l0.15 12.03 0.05 6.01v1.5c0.01 0.52 0 0.98 0.07 1.42 0.15 0.89 0.57 1.74 1.2 2.39 0.62 0.66 1.43 1.13 2.32 1.32 0.46 0.11 0.86 0.12 1.38 0.11h1.5l6.01-0.03 6.01 0.02h1.5c0.52 0.02 0.92 0 1.38-0.11 0.87-0.2 1.7-0.67 2.32-1.33s1.05-1.5 1.2-2.39c0.08-0.44 0.06-0.9 0.07-1.42v-1.5s0.06-6.01 0.06-6.01l0.15-12.03c0.09-4.01 0.14-8.02 0.27-12.03 0.12 4.01 0.18 8.02 0.27 12.03l0.15 12.03 0.05 6.01v1.5c0 0.48 0.03 1.03-0.06 1.58-0.17 1.09-0.68 2.11-1.43 2.92s-1.74 1.38-2.81 1.64c-0.52 0.13-1.13 0.16-1.61 0.15h-1.5l-6.01 0.03-6.01-0.02h-1.5c-0.48 0-1.09-0.03-1.61-0.16-1.07-0.25-2.07-0.83-2.82-1.64-0.75-0.8-1.26-1.83-1.43-2.92-0.09-0.55-0.07-1.1-0.07-1.58v-1.5s0.06-6.01 0.06-6.01l0.15-12.03c0.09-4.01 0.14-8.02 0.27-12.03z" fill="url(#linear-gradient17)"/></g><g class="st31"><path class="st15" d="m189.51 408.83c0.04 0.88-0.67 1.58-1.33 2.07-0.7 0.5-1.46 0.88-2.24 1.22-1.57 0.64-3.21 1.08-4.86 1.41-3.3 0.67-6.67 0.92-10.03 0.94-3.36-0.02-6.73-0.27-10.03-0.93-1.65-0.33-3.29-0.77-4.86-1.41-0.78-0.33-1.54-0.72-2.24-1.22-0.67-0.48-1.38-1.19-1.33-2.07 0.1 0.86 0.84 1.39 1.51 1.79 0.71 0.4 1.48 0.68 2.27 0.92 1.57 0.48 3.19 0.78 4.82 1.03 3.26 0.46 6.56 0.65 9.86 0.65s6.6-0.18 9.86-0.64c1.63-0.24 3.25-0.54 4.82-1.03 0.78-0.24 1.55-0.52 2.27-0.92 0.67-0.41 1.41-0.93 1.51-1.79z" fill="url(#linear-gradient18)"/></g><g class="st35"><path class="st20" d="m156.09 411.1c0.12 3.78 0.18 7.56 0.27 11.34l0.15 11.34 0.06 5.67c0.02 0.75 0.55 1.45 1.23 1.99 0.67 0.55 1.49 0.98 2.33 1.32 3.41 1.38 7.21 1.78 10.92 1.8 3.71-0.02 7.51-0.42 10.92-1.8 0.84-0.35 1.66-0.77 2.33-1.32 0.67-0.54 1.2-1.24 1.23-1.99l0.06-5.67 0.15-11.34c0.09-3.78 0.15-7.56 0.27-11.34 0.12 3.78 0.18 7.56 0.27 11.34l0.15 11.34c0.03 1.89 0.05 3.78 0.05 5.67-0.03 1.19-0.8 2.11-1.56 2.74-0.78 0.65-1.67 1.11-2.56 1.49-3.61 1.49-7.49 1.92-11.31 1.97-3.82-0.06-7.69-0.48-11.31-1.98-0.9-0.38-1.78-0.84-2.56-1.49-0.76-0.63-1.53-1.55-1.56-2.73 0-1.9 0.02-3.78 0.05-5.67l0.15-11.34c0.09-3.78 0.14-7.56 0.27-11.34z" fill="url(#linear-gradient19)"/></g><g class="st31"><path class="st24" d="m192.52 445.1c0.06 1.02-0.69 1.9-1.46 2.5-0.78 0.63-1.67 1.1-2.57 1.52-1.82 0.81-3.74 1.35-5.67 1.77-3.87 0.83-7.82 1.15-11.77 1.17-3.94-0.02-7.9-0.33-11.77-1.17-1.93-0.42-3.85-0.96-5.67-1.77-0.9-0.42-1.79-0.89-2.57-1.52-0.77-0.6-1.52-1.48-1.46-2.5 0.1 1 0.89 1.7 1.67 2.21 0.8 0.52 1.7 0.88 2.61 1.19 1.82 0.63 3.72 1.03 5.62 1.35 3.82 0.61 7.7 0.85 11.57 0.85s7.75-0.24 11.57-0.85c1.9-0.32 3.8-0.71 5.62-1.35 0.91-0.31 1.8-0.68 2.61-1.19 0.78-0.51 1.57-1.2 1.67-2.21z" fill="url(#linear-gradient20)"/></g><g class="st32"><path class="st23" d="m162.33 412.93c0.19 6.02 0.31 12.04 0.38 18.06l0.06 4.51 0.02 2.26v1.13c0 0.22 0 0.32 0.04 0.44s0.1 0.24 0.18 0.36c0.34 0.48 0.98 0.85 1.62 1.12 0.65 0.28 1.35 0.48 2.06 0.64 1.42 0.31 2.9 0.43 4.37 0.42 1.47 0 2.94-0.11 4.37-0.42 0.71-0.16 1.41-0.36 2.06-0.64 0.64-0.28 1.27-0.65 1.62-1.12 0.08-0.12 0.14-0.24 0.18-0.36 0.03-0.12 0.03-0.22 0.03-0.44v-1.13l0.03-2.26 0.06-4.51c0.08-6.02 0.19-12.04 0.38-18.06 0.19 6.02 0.31 12.04 0.38 18.06l0.07 4.51 0.02 2.26v1.13c0 0.16 0.01 0.44-0.05 0.69-0.07 0.24-0.18 0.46-0.31 0.66-0.55 0.76-1.29 1.15-2 1.49-0.73 0.33-1.48 0.56-2.23 0.74-1.51 0.35-3.06 0.5-4.6 0.52-1.54-0.02-3.08-0.16-4.6-0.52-0.76-0.18-1.51-0.41-2.23-0.74-0.72-0.34-1.46-0.73-2-1.49-0.13-0.19-0.24-0.41-0.31-0.66s-0.06-0.53-0.06-0.68v-1.13l0.03-2.26 0.06-4.51c0.07-6.02 0.19-12.04 0.38-18.06z" fill="url(#linearGradient4966)"/></g><g class="st76"><path class="st72" d="m189.51 444.86c0 0.2-0.16 0.35-0.32 0.46s-0.33 0.2-0.51 0.28c-0.35 0.15-0.72 0.27-1.1 0.37-0.74 0.2-1.5 0.35-2.26 0.48-1.52 0.26-3.05 0.44-4.59 0.59-3.07 0.3-6.16 0.47-9.25 0.54-3.09 0.06-6.18 0.04-9.28-0.15-1.55-0.11-3.09-0.24-4.64-0.48-0.77-0.12-1.54-0.27-2.32-0.47-0.39-0.1-0.78-0.22-1.17-0.39-0.2-0.09-0.4-0.18-0.61-0.33-0.18-0.14-0.51-0.36-0.55-0.9 0.04-0.54 0.37-0.76 0.55-0.9 0.21-0.15 0.41-0.24 0.61-0.33 0.4-0.17 0.78-0.28 1.17-0.39 0.77-0.2 1.55-0.35 2.32-0.47 1.54-0.24 3.09-0.37 4.64-0.48 3.09-0.19 6.19-0.21 9.28-0.15 3.09 0.07 6.17 0.24 9.25 0.54 1.54 0.15 3.07 0.33 4.59 0.59 0.76 0.13 1.52 0.28 2.26 0.48 0.37 0.1 0.74 0.21 1.1 0.37 0.18 0.08 0.35 0.16 0.51 0.28 0.15 0.11 0.31 0.26 0.32 0.46zm0 0c-0.01-0.2-0.17-0.35-0.32-0.45-0.16-0.11-0.33-0.2-0.51-0.27-0.35-0.15-0.73-0.26-1.1-0.36-0.75-0.2-1.5-0.34-2.26-0.46-1.52-0.24-3.06-0.37-4.6-0.48-3.08-0.19-6.16-0.21-9.23-0.15-3.08 0.07-6.15 0.24-9.2 0.54-1.53 0.14-3.05 0.33-4.55 0.58-0.75 0.12-1.49 0.27-2.21 0.47-0.35 0.1-0.71 0.21-1.02 0.34-0.15 0.07-0.3 0.14-0.4 0.22-0.13 0.07-0.11 0.16-0.09 0.01-0.02-0.15-0.04-0.06 0.09 0.01 0.1 0.08 0.25 0.15 0.4 0.22 0.31 0.14 0.67 0.24 1.02 0.34 0.71 0.19 1.46 0.34 2.21 0.47 1.5 0.25 3.02 0.44 4.55 0.58 3.05 0.3 6.12 0.47 9.2 0.54 3.08 0.06 6.16 0.04 9.23-0.15 1.54-0.11 3.07-0.24 4.6-0.48 0.76-0.12 1.52-0.26 2.26-0.46 0.37-0.1 0.74-0.21 1.1-0.36 0.18-0.08 0.35-0.16 0.51-0.27 0.16-0.1 0.31-0.26 0.32-0.45z" fill="url(#linearGradient4968)"/></g><path class="st8" d="m149.59 445.1c0 2.29 9.61 6.45 21.47 6.45s21.47-4.16 21.47-6.45l-1.45-3.8-1.15-31.78-3.91 1.58v28.33c0 3.13-6.7 5.68-14.96 5.68s-14.96-2.54-14.96-5.68v-28.33l-3.65-1.12-1.1 30.26-1.77 4.86z" fill="url(#linear-gradient22)"/><path class="st21" d="m192.52 445.75s1.21 0.83-3.01 2.36v20.18s-3.11 14.13-10.61 15.4c0 0 11.96-3.15 20.45-8.95 0 0 2.4-1.28 1.09-2.33s-6.95-3.22-7.31-10.64-0.61-16.02-0.61-16.02z" fill="url(#linear-gradient23)"/><path class="st25" d="m195.86 159.8h-49.85c-2.26 0-4.09 1.83-4.09 4.09v203.47c0 5.34 12.99 9.68 29.01 9.68s29.01-4.33 29.01-9.68v-203.47c0-2.26-1.83-4.09-4.09-4.09z"/><path class="st30" d="m195.86 159.8h-49.85c-2.26 0-4.09 1.83-4.09 4.09v203.47c0 5.34 12.99 9.68 29.01 9.68s29.01-4.33 29.01-9.68v-203.47c0-2.26-1.83-4.09-4.09-4.09z" fill="url(#linearGradient4974)"/><path class="st28" d="m145.9 155.77h50.61v4.03h-50.61z" fill="#aeadb1"/><path class="st78" d="m196.03 73.68v-9.64c0-2.84-1.57-5.44-4.07-6.77l-0.49-0.26c-1.93-1.03-4.2-1.22-6.27-0.52-5.47 1.85-16.99 5.18-25.98 4.03-0.12-0.02-0.24-0.03-0.36-0.05-6.62-0.86-12.48 4.29-12.48 10.96v2.24h49.65z"/><path class="st26" d="m146.38 73.15v-8.79c0-3.03 1.68-5.82 4.36-7.24 2.06-1.1 4.48-1.29 6.69-0.55 5.55 1.86 16.89 5.09 25.76 3.96 3.75-0.48 6.41-0.9 8.29-1.26 2.37-0.44 4.55 1.37 4.55 3.78v10.1c0 0.29-0.24 0.53-0.53 0.53h-48.58c-0.29 0-0.53-0.24-0.53-0.53z"/><g class="st80" clip-path="url(#clippath)"><path class="st78" d="m156.31 54.87h6.62v21.9h-6.62z" fill="#333"/><path class="st78" d="m180.91 54.87h6.62v21.9h-6.62z" fill="#333"/><path class="st22" d="m146.38 73.15v-8.79c0-3.03 1.68-5.82 4.36-7.24 2.06-1.1 4.48-1.29 6.69-0.55 5.55 1.86 16.89 5.09 25.76 3.96 3.75-0.48 6.41-0.9 8.29-1.26 2.37-0.44 4.55 1.37 4.55 3.78v10.1c0 0.29-0.24 0.53-0.53 0.53h-48.58c-0.29 0-0.53-0.24-0.53-0.53z" fill="url(#linearGradient4976)"/></g><path class="st25" d="m145.65 73.68h51.12c1.7617 0 3.18 1.4183 3.18 3.18v77.74c0 1.7617-1.4183 3.18-3.18 3.18h-51.12c-1.7617 0-3.18-1.4183-3.18-3.18v-77.74c0-1.7617 1.4183-3.18 3.18-3.18z" fill="#efefef"/><path class="st11" d="m145.65 73.68h51.12c1.7617 0 3.18 1.4183 3.18 3.18v77.74c0 1.7617-1.4183 3.18-3.18 3.18h-51.12c-1.7617 0-3.18-1.4183-3.18-3.18v-77.74c0-1.7617 1.4183-3.18 3.18-3.18z" fill="url(#linearGradient1555)" opacity=".11" style="mix-blend-mode:darken"/><g class="st71" clip-path="url(#clippath-1)" fill="none" stroke-linecap="round" stroke-miterlimit="10" stroke-width="1.5px"><path class="st37" d="m147.65 76.3v78.87" opacity=".57" stroke="url(#linear-gradient27)"/><path class="st38" d="m144.54 76.3v78.87" opacity=".57" stroke="url(#linear-gradient28)"/><path class="st39" d="m194.27 76.3v78.87" opacity=".57" stroke="url(#linear-gradient29)"/><path class="st57" d="m197.38 76.3v78.87" opacity=".57" stroke="url(#linear-gradient30)"/><path class="st54" d="m191.16 76.3v78.87" opacity=".57" stroke="url(#linear-gradient31)"/><path class="st56" d="m188.05 76.3v78.87" opacity=".57" stroke="url(#linear-gradient32)"/><path class="st62" d="m184.94 76.3v78.87" opacity=".57" stroke="url(#linear-gradient33)"/><path class="st58" d="m181.84 76.3v78.87" opacity=".57" stroke="url(#linear-gradient34)"/><path class="st60" d="m178.73 76.3v78.87" opacity=".57" stroke="url(#linear-gradient35)"/><path class="st63" d="m169.4 76.3v78.87" opacity=".57" stroke="url(#linear-gradient36)"/><path class="st61" d="m175.62 76.3v78.87" opacity=".57" stroke="url(#linear-gradient37)"/><path class="st53" d="m172.51 76.3v78.87" opacity=".57" stroke="url(#linear-gradient38)"/><path class="st59" d="m166.3 76.3v78.87" opacity=".57" stroke="url(#linear-gradient39)"/><path class="st51" d="m163.19 76.3v78.87" opacity=".57" stroke="url(#linear-gradient40)"/><path class="st68" d="m160.08 76.3v78.87" opacity=".57" stroke="url(#linear-gradient41)"/><path class="st70" d="m156.97 76.3v78.87" opacity=".57" stroke="url(#linear-gradient42)"/><path class="st66" d="m153.86 76.3v78.87" opacity=".57" stroke="url(#linear-gradient43)"/><path class="st50" d="m150.75 76.3v78.87" opacity=".57" stroke="url(#linear-gradient44)"/><path class="st67" d="m94.81 76.3v78.87" opacity=".57" stroke="url(#linear-gradient45)"/><path class="st52" d="m141.43 76.3v78.87" opacity=".57" stroke="url(#linear-gradient46)"/><path class="st65" d="m138.32 76.3v78.87" opacity=".57" stroke="url(#linear-gradient47)"/><path class="st69" d="m135.21 76.3v78.87" opacity=".57" stroke="url(#linear-gradient48)"/><path class="st64" d="m132.11 76.3v78.87" opacity=".57" stroke="url(#linear-gradient49)"/><path class="st40" d="m129 76.3v78.87" opacity=".57" stroke="url(#linear-gradient50)"/><path class="st42" d="m125.89 76.3v78.87" opacity=".57" stroke="url(#linear-gradient51)"/><path class="st41" d="m116.57 76.3v78.87" opacity=".57" stroke="url(#linear-gradient52)"/><path class="st47" d="m122.78 76.3v78.87" opacity=".57" stroke="url(#linear-gradient53)"/><path class="st46" d="m119.67 76.3v78.87" opacity=".57" stroke="url(#linear-gradient54)"/><path class="st44" d="m113.46 76.3v78.87" opacity=".57" stroke="url(#linear-gradient55)"/><path class="st45" d="m110.35 76.3v78.87" opacity=".57" stroke="url(#linear-gradient56)"/><path class="st43" d="m107.24 76.3v78.87" opacity=".57" stroke="url(#linear-gradient57)"/><path class="st48" d="m104.13 76.3v78.87" opacity=".57" stroke="url(#linear-gradient58)"/><path class="st49" d="m101.02 76.3v78.87" opacity=".57" stroke="url(#linear-gradient59)"/><path class="st55" d="m97.92 76.3v78.87" opacity=".57" stroke="url(#linear-gradient60)"/></g><path class="st10" d="m195.86 159.8h-49.85c-2.26 0-4.09 1.83-4.09 4.09v203.47c0 5.34 12.99 9.68 29.01 9.68s29.01-4.33 29.01-9.68v-203.47c0-2.26-1.83-4.09-4.09-4.09z" fill="url(#linearGradient5046)"/><path d="m184.52 272.18v78.76c-4.06 0.73-8.68 1.13-13.59 1.13-16.01 0-29.01-4.32-29.01-9.67l-0.3-74.18c4.69 3.96 13.3 5.09 29.31 5.09 4.91 0 9.53-0.42 13.59-1.13z"/><path class="st79" d="m144.61 130.38h0.01c0.99166 0 1.79 0.79834 1.79 1.79v18.28c0 0.99166-0.79834 1.79-1.79 1.79h-0.01c-0.99166 0-1.79-0.79834-1.79-1.79v-18.28c0-0.99166 0.79834-1.79 1.79-1.79z" fill="#87888a"/><g fill="#fff"><path class="st74" d="m154.41 290.51v48.92l-6.65-1.05v-48.92z"/><path class="st74" d="m163.98 306.92v34.03l-4.83-0.77v-34.03z"/><path class="st74" d="m163.98 283.35v18.4l-4.83-0.77v-18.4z"/></g><g fill="#333"><path class="st78" transform="rotate(-90 183.7 240.34)" d="m183.03 236.62h1.33v7.44h-1.33z"/><path class="st78" transform="rotate(-90,183.69,222)" d="m183.03 218.28h1.33v7.44h-1.33z"/><path class="st78" transform="rotate(-90,183.69,188.86)" d="m183.03 185.14h1.33v7.44h-1.33z"/><path class="st78" transform="rotate(-90 183.7 216.82)" d="m183.03 213.09h1.33v7.44h-1.33z"/><path class="st78" transform="rotate(-90,183.69,229.78)" d="m183.03 226.06h1.33v7.44h-1.33z"/><path class="st78" transform="rotate(-90,183.69,227.06)" d="m183.36 223.34h0.66v7.44h-0.66z"/><path class="st78" transform="rotate(-90 183.7 225.42)" d="m183.36 221.7h0.66v7.44h-0.66z"/><path class="st78" transform="rotate(-90,183.69,223.88)" d="m183.36 220.16h0.66v7.44h-0.66z"/><path class="st78" transform="rotate(-90,183.69,208.78)" d="m183.36 205.05h0.66v7.44h-0.66z"/><path class="st78" transform="rotate(-90,183.69,207.14)" d="m183.36 203.42h0.66v7.44h-0.66z"/><path class="st78" transform="rotate(-90,183.69,205.6)" d="m183.36 201.87h0.66v7.44h-0.66z"/><path class="st78" transform="rotate(-90,183.69,193.53)" d="m183.36 189.81h0.66v7.44h-0.66z"/><path class="st78" transform="rotate(-90,183.69,191.9)" d="m183.36 188.18h0.66v7.44h-0.66z"/><path class="st78" transform="rotate(-90,183.69,231.18)" d="m183.36 227.46h0.66v7.44h-0.66z"/><path class="st78" transform="rotate(-90,183.69,190.35)" d="m183.36 186.63h0.66v7.44h-0.66z"/><path class="st78" transform="rotate(-90,183.69,215.05)" d="m183.36 211.32h0.66v7.44h-0.66z"/><path class="st78" transform="rotate(-90,183.69,220.42)" d="m183.36 216.7h0.66v7.44h-0.66z"/><path class="st78" transform="rotate(-90 183.7 238.92)" d="m183.36 235.19h0.66v7.44h-0.66z"/><path class="st78" transform="rotate(-90,183.69,233.43)" d="m183.03 229.71h1.33v7.44h-1.33z"/><path class="st78" transform="rotate(-90 183.7 218.78)" d="m183.03 215.06h1.33v7.44h-1.33z"/><path class="st78" transform="rotate(-90,183.69,212.42)" d="m182.17 208.7h3.04v7.44h-3.04z"/><path class="st78" transform="rotate(-90,183.69,236.63)" d="m182.17 232.91h3.04v7.44h-3.04z"/><path class="st78" transform="rotate(-90,183.69,201.48)" d="m181.7 197.76h3.99v7.44h-3.99z"/><path class="st78" transform="rotate(-90,183.69,196.58)" d="m181.7 192.86h3.99v7.44h-3.99z"/></g><g fill="#333"><path class="st78" transform="rotate(-90 148.8 263.54)" d="m146.99 261.72h3.62v3.62h-3.62z"/><path class="st78" transform="rotate(-90 148.8 252.16)" d="m146.99 250.35h3.62v3.62h-3.62z"/><path class="st78" transform="rotate(-90 160.02 252.16)" d="m158.2 250.35h3.62v3.62h-3.62z"/><path class="st78" transform="rotate(-90 160.02 263.54)" d="m158.2 261.72h3.62v3.62h-3.62z"/><path class="st78" transform="rotate(-90 147.42 260.94)" d="m146.99 260.51h0.87v0.87h-0.87z"/><path class="st78" transform="rotate(-90 148.4 254.96)" d="m148.15 254.71h0.52v0.52h-0.52z"/><path class="st78" transform="rotate(-90,151.93,260.09)" d="m151.67 259.83h0.52v0.52h-0.52z"/><path class="st78" transform="rotate(-90 151.36 250.76)" d="m151.11 250.5h0.52v0.52h-0.52z"/><path class="st78" transform="rotate(-90 151.42 254.42)" d="m151.17 254.17h0.52v0.52h-0.52z"/><path class="st78" transform="rotate(-90,153.8,256.59)" d="m153.54 256.33h0.52v0.52h-0.52z"/><path class="st78" transform="rotate(-90,152.19,257.45)" d="m151.93 257.19h0.52v0.52h-0.52z"/><path class="st78" transform="rotate(-90 157.78 258.08)" d="m157.52 257.83h0.52v0.52h-0.52z"/><path class="st78" transform="rotate(-90 151.68 263.36)" d="m151.42 263.1h0.52v0.52h-0.52z"/><path class="st78" transform="rotate(-90,155.39,265.1)" d="m155.15 264.85h0.49v0.49h-0.49z"/><path class="st78" transform="rotate(-90,151.05,253.41)" d="m150.8 253.16h0.49v0.49h-0.49z"/><path class="st78" transform="rotate(-90,160.46,261.13)" d="m160.22 260.88h0.49v0.49h-0.49z"/><path class="st78" transform="rotate(-90 159.82 260.08)" d="m159.58 259.84h0.49v0.49h-0.49z"/><path class="st78" transform="rotate(-90,148.58,261.13)" d="m148.34 260.88h0.49v0.49h-0.49z"/><path class="st78" transform="rotate(-90,157.78,265.1)" d="m157.54 264.85h0.49v0.49h-0.49z"/><path class="st78" transform="rotate(-90,151.25,259.32)" d="m150.99 259.06h0.52v0.52h-0.52z"/><path class="st78" transform="rotate(-90 157.52 250.6)" d="m157.26 250.35h0.52v0.52h-0.52z"/><path class="st78" transform="rotate(-90 154.84 253.66)" d="m154.58 253.41h0.52v0.52h-0.52z"/><path class="st78" transform="rotate(-90 156.02 256.44)" d="m155.77 256.18h0.52v0.52h-0.52z"/><path class="st78" transform="rotate(-90,160.01,258.34)" d="m159.76 258.08h0.52v0.52h-0.52z"/><path class="st78" transform="rotate(-90,160.96,254.53)" d="m160.7 254.27h0.52v0.52h-0.52z"/><path class="st78" transform="rotate(-90,151.05,260.94)" d="m150.62 260.51h0.87v0.87h-0.87z"/><path class="st78" transform="rotate(-90 150.18 260.94)" d="m149.75 260.51h0.87v0.87h-0.87z"/><path class="st78" transform="rotate(180 159.34 257.9)" d="m158.9 256.44h0.87v2.93h-0.87z"/><path class="st78" transform="rotate(-90 157.64 260.94)" d="m157.21 259.48h0.87v2.93h-0.87z"/><path class="st78" transform="rotate(-90 153.98 254.96)" d="m153.54 254.53h0.87v0.87h-0.87z"/><path class="st78" transform="rotate(-90 153.8 264.06)" d="m153.36 263.45h0.87v1.23h-0.87z"/><path class="st78" transform="rotate(-90 155.48 264.04)" d="m155.04 263.61h0.87v0.87h-0.87z"/><path class="st78" transform="rotate(-90 148.58 259.66)" d="m148.15 259.22h0.87v0.87h-0.87z"/><path class="st78" transform="rotate(-90,154.05,260.09)" d="m153.18 259.22h1.73v1.73h-1.73z"/><path class="st78" transform="rotate(-90 149.74 258.78)" d="m148.88 257.91h1.73v1.73h-1.73z"/><path class="st78" transform="rotate(-90,153.18,254.53)" d="m152.32 253.66h1.73v1.73h-1.73z"/><path class="st78" transform="rotate(-90,159.15,255.19)" d="m158.28 254.32h1.73v1.73h-1.73z"/><path class="st78" transform="rotate(-90 151.68 262.6)" d="m151.25 262.17h0.87v0.87h-0.87z"/><path class="st78" transform="rotate(-90 153.62 262.6)" d="m153.18 262.17h0.87v0.87h-0.87z"/><path class="st78" transform="rotate(-90 152.54 263.54)" d="m152.12 263.1h0.87v0.87h-0.87z"/><path class="st78" transform="rotate(-90 147.42 258.78)" d="m146.99 258.34h0.87v0.87h-0.87z"/><path class="st78" transform="rotate(-90,148.15,256.16)" d="m147.72 255.72h0.87v0.87h-0.87z"/><path class="st78" transform="rotate(-90 149.02 257.7)" d="m148.58 257.27h0.87v0.87h-0.87z"/><path class="st78" transform="rotate(-90,150.18,256.84)" d="m149.75 256.41h0.87v0.87h-0.87z"/><path class="st78" transform="rotate(-90,149.45,255.72)" d="m149.02 255.29h0.87v0.87h-0.87z"/><path class="st78" transform="rotate(-90,152.75,255.72)" d="m152.32 255.29h0.87v0.87h-0.87z"/><path class="st78" transform="rotate(-90 152.12 252.66)" d="m151.68 252.23h0.87v0.87h-0.87z"/><path class="st78" transform="rotate(-90,152.55,251.19)" d="m152.12 250.76h0.87v0.87h-0.87z"/><path class="st78" transform="rotate(-90,156.03,254.53)" d="m155.59 254.1h0.87v0.87h-0.87z"/><path class="st78" transform="rotate(-90,158.5,259.32)" d="m158.06 258.89h0.87v0.87h-0.87z"/><path class="st78" transform="rotate(-90,158.93,255.49)" d="m158.5 255.06h0.87v0.87h-0.87z"/><path class="st78" transform="rotate(-90,161.39,256.84)" d="m160.96 256.41h0.87v0.87h-0.87z"/><path class="st78" transform="rotate(-90,157.21,264.05)" d="m156.78 263.61h0.87v0.87h-0.87z"/><path class="st78" transform="rotate(-90,156.34,263.18)" d="m155.91 262.75h0.87v0.87h-0.87z"/><path class="st78" transform="rotate(-90 156.68 251.72)" d="m156.24 251.29h0.87v0.87h-0.87z"/><path class="st78" transform="rotate(-90,159.58,254.86)" d="m159.15 254.42h0.87v0.87h-0.87z"/><path class="st78" transform="rotate(-90 161.4 255.3)" d="m160.63 254.86h1.53v0.87h-1.53z"/><path class="st78" transform="rotate(-90 157.78 260.08)" d="m157.34 259.65h0.87v0.87h-0.87z"/><path class="st78" transform="rotate(-90 153.98 251.82)" d="m152.67 251.38h2.6v0.87h-2.6z"/><path class="st78" transform="rotate(-90 155.9 251.82)" d="m154.61 251.38h2.6v0.87h-2.6z"/><path class="st78" transform="rotate(-90,152.55,259.65)" d="m150.83 259.22h3.45v0.87h-3.45z"/><path class="st78" transform="rotate(-90 161.4 259.66)" d="m159.67 259.22h3.45v0.87h-3.45z"/><path class="st78" transform="rotate(-90,151.05,256.06)" d="m149.52 255.63h3.06v0.87h-3.06z"/><path class="st78" transform="rotate(-90,147.43,256.06)" d="m145.9 255.63h3.06v0.87h-3.06z"/><path class="st78" transform="rotate(-90 156.34 259.66)" d="m154.62 259.22h3.45v0.87h-3.45z"/><path class="st78" transform="rotate(-90,154.84,256.06)" d="m153.31 255.63h3.06v0.87h-3.06z"/><path class="st78" transform="rotate(-90 157.2 254.28)" d="m155.68 253.85h3.06v0.87h-3.06z"/><path class="st78" transform="rotate(180,158.74,256.84)" d="m157.02 256.41h3.45v0.87h-3.45z"/><path class="st78" transform="rotate(180 155.14 258.34)" d="m153.62 257.91h3.06v0.87h-3.06z"/><path class="st78" transform="rotate(180 156.24 262.06)" d="m154.71 261.63h3.06v0.87h-3.06z"/><path class="st78" transform="rotate(180 152.55 264.92)" d="m151.02 264.48h3.06v0.87h-3.06z"/></g><path class="st78" d="m147.43 186.96h4.51v54.48h-4.51z" fill="#333"/><path class="st78" d="m157.96 210.57h2.7v30.86h-2.7z" fill="#333"/></g></g></g></g><path d="m122.65 148.16h91.779v91.466h-91.779z" fill="#fff" stroke="#dcdcdc" stroke-width=".31768"/><g transform="translate(42.818 28.231)"><g transform="matrix(.26551 0 0 .26551 84.643 16.121)"><g transform="translate(-21.155 386.77)"><path class="st15" d="m138.2 154.11v101.72c0 5.19 16.47 9.39 36.8 9.39 20.32 0 36.8-4.2 36.8-9.39v-101.72c0-3.5-0.13-7.44-2.09-10.48-2.05-3.18-5.48-5.93-8.76-7.75-2.07-1.15-3.37-2.79-3.37-5.16v-12.06h-45.16v12.06c0 2.13-1.26 3.75-2.96 4.91-2.43 1.65-4.75 3.1-6.81 5.23-1.79 1.85-3.26 3.71-3.71 6.3-0.4 2.28-0.73 4.63-0.73 6.95z"/><path class="st12" d="m139.25 154.11v101.72c0 5.19 16.24 9.39 36.27 9.39s36.28-4.2 36.28-9.39v-101.72c0-3.5-0.13-7.44-2.06-10.48-2.03-3.18-5.41-5.93-8.63-7.75-2.04-1.15-3.32-2.79-3.32-5.16v-12.06h-44.51v12.06c0 2.13-1.24 3.75-2.92 4.91-2.39 1.65-4.69 3.1-6.71 5.23-1.76 1.85-3.21 3.71-3.66 6.3-0.4 2.28-0.72 4.63-0.72 6.95z" fill="url(#linearGradient5068)"/><path class="st10" d="m198.62 107.9v13.69c-0.26 4.58-10.58 5.11-23.63 5.11s-23.63-1.42-23.63-5.11v-13.69-5.44c0-3.5 10.64-6.33 23.75-6.33 13.12 0 23.5 2.56 23.5 6.06v5.71z" fill="url(#linearGradient2564)"/><path class="st15" d="m166.42 235.24v-61.18c0-4.53-12.1-8.31-28.22-9.19v64.34c0 2.61 2.03 4.75 4.63 4.93 8.84 0.6 16.07 1.86 20.1 3.47 1.67 0.67 3.49-0.57 3.49-2.37z"/><path class="st0" d="m166.42 234.12v-69.02" fill="none" opacity=".44" style="mix-blend-mode:darken"/><path class="st14" d="m143 253.08c-10.15 5.79 20.69 7.98 23.43 7.86 10.02 0.35 20.1 0.14 30.01-1.3 19.85-3.1 12.62-7.25-2.06-9.18-9.8-1.36-20.16-1.4-30.07-1.15 9.94-0.57 20.28-0.79 30.16 0.45 3.1 0.28 20.87 2.81 13.13 7.82-3.44 1.76-7.28 2.34-11.03 2.97-5 0.72-10.04 1.08-15.07 1.25-10.07 0.29-20.19-0.07-30.12-1.82-2.87-0.5-15.47-3.2-8.38-6.9z"/><path class="st14" d="m197.6 186.88v46.69c0 5.61-4.19 10.34-9.76 10.99-4.34 0.5-9.14 0.78-14.19 0.78-19.58 0-35.45-4.21-35.45-9.38v-66.51c0 3.77 15.87 6.82 35.45 6.82 4.27 0 8.37-0.14 12.16-0.41 6.39-0.45 11.8 4.62 11.8 11.02z"/><g class="st19" clip-path="url(#clippath)" fill="url(#linearGradient2566)"><path class="st17" d="m157.21 171.12h46.86v86.05h-46.86z" fill="#333"/></g><g class="st9" fill="url(#linearGradient2568)"><path class="st1" d="m137.15 255.83v-101.72c0-2.57 0.4-5.16 0.75-7.13 0.48-2.75 1.95-4.73 3.99-6.85 1.84-1.91 3.84-3.26 5.96-4.68l1.02-0.69c1.66-1.13 2.51-2.49 2.51-4.04v-13.11h47.25v13.11c0 1.83 0.9 3.18 2.83 4.25 3.87 2.14 7.19 5.1 9.13 8.1 2.09 3.23 2.26 7.23 2.26 11.05v101.72c0 6.78-19.5 10.44-37.85 10.44s-37.85-3.66-37.85-10.44zm16.32-136.12v11.01c0 2.25-1.18 4.25-3.42 5.78-0.35 0.24-0.69 0.47-1.03 0.7-2.02 1.36-3.93 2.65-5.62 4.4-1.78 1.84-3.04 3.53-3.44 5.75-0.33 1.89-0.71 4.36-0.71 6.77v101.72c0 1.49 2.62 3.74 9.99 5.62 6.87 1.75 16.02 2.72 25.76 2.72 9.75 0 18.89-0.96 25.76-2.72 7.37-1.88 9.99-4.14 9.99-5.62v-101.72c0-3.5-0.15-7.16-1.93-9.91-1.76-2.72-4.81-5.42-8.39-7.4-2.6-1.44-3.91-3.49-3.91-6.08v-11.01h-43.06z" fill="url(#linearGradient5074)"/></g><path class="st14" d="m157.66 130.72c0.28 3.81-1.95 7.44-5.03 9.58-2.92 2.22-6.75 4.2-8.01 7.81-0.72 3.38-0.72 6.79-0.77 10.25-0.08 3.25-0.2 7.89-0.4 11.09-0.21-3.18-0.32-7.85-0.4-11.09-0.05-2.71-0.21-5.69 0.23-8.37 0.08-0.46 0.24-1.64 0.33-2.08 1.37-4.07 5.46-6.16 8.58-8.27 3.03-1.91 5.32-5.17 5.49-8.92z"/><path class="st14" d="m204.89 147.63c-11.51 7.18-36.7 6.76-49.7 3.49 2.09 0.29 4.17 0.57 6.27 0.73 10.44 0.89 21.02 0.74 31.4-0.78 4.12-0.68 8.32-1.44 12.03-3.44z"/><path class="st14" d="m193.68 131.94c-11.57 2.71-23.85 2.75-35.48 0.32 11.8 0.99 23.7 0.97 35.48-0.32z"/><path class="st14" d="m207 161.04a2.82 5.63 0 0 1-2.82 5.63 2.82 5.63 0 0 1-2.82-5.63 2.82 5.63 0 0 1 2.82-5.63 2.82 5.63 0 0 1 2.82 5.63z" fill="#fff"/><path class="st13" d="m191.59 256.37c5.16-3.05-10.65-4.11-12.14-4.08-5.19-0.18-10.42-0.07-15.56 0.67-3.6 0.47-10.52 2.2-2.76 4.07 6.36 1.4 12.92 1.42 19.41 1.28-6.5 0.35-13.1 0.49-19.51-0.88-3.6-0.7-6.13-2.66-1.07-4.14 6.35-1.63 13-1.62 19.5-1.38 1.57-0.06 17.48 1.44 12.13 4.44z"/><path class="st13" d="m205.03 99.47c0 3.95-13.41 3.71-29.95 3.71s-29.95 0.23-29.95-3.71v16.77c0 3.95 13.41 7.15 29.95 7.15s29.95-3.2 29.95-7.15z"/><path class="st5" d="m205.03 99.47c0 3.95-13.41 3.71-29.95 3.71s-29.95 0.23-29.95-3.71v16.77c0 3.95 13.41 7.15 29.95 7.15s29.95-3.2 29.95-7.15z" fill="url(#linearGradient2570)"/><path class="st11" d="m145.13 95.44c0-3.37 13.41-6.09 29.95-6.09s29.95 2.73 29.95 6.09v7.02c0 3.37-13.41 6.09-29.95 6.09s-29.95-2.73-29.95-6.09z" fill="url(#linear-gradient4-6)"/><path class="st18" d="m143.16 90.88c0-3.95 14.29-7.15 31.92-7.15s31.92 3.2 31.92 7.15v8.23c0 3.95-14.29 7.15-31.92 7.15s-31.92-3.2-31.92-7.15z"/><path class="st8" d="m143.16 90.88c0-3.95 14.29-7.15 31.92-7.15s31.92 3.2 31.92 7.15v8.23c0 3.95-14.29 7.15-31.92 7.15s-31.92-3.2-31.92-7.15z" fill="url(#linearGradient5082)"/><path class="st20" d="m207 90.88a31.92 7.15 0 0 1-31.92 7.15 31.92 7.15 0 0 1-31.92-7.15 31.92 7.15 0 0 1 31.92-7.15 31.92 7.15 0 0 1 31.92 7.15z" fill="#9fa09d"/><path class="st18" d="m203.06 91.62a27.98 5.09 0 0 1-27.98 5.09 27.98 5.09 0 0 1-27.98-5.09 27.98 5.09 0 0 1 27.98-5.09 27.98 5.09 0 0 1 27.98 5.09z" fill="#b5b6b4"/><path class="st4" d="m175.08 83.73c17.63 0 31.92 3.2 31.92 7.15v8.23c0 0.87-0.7 1.7-1.97 2.47v14.66c-0.33 4.91-13.41 7.15-29.95 7.15s-29.95-3.2-29.95-7.15v-14.66c-1.27-0.77-1.97-1.6-1.97-2.47v-8.23c0-3.95 14.29-7.15 31.92-7.15z" fill="url(#linearGradient5084)"/><path class="st6" d="m143.16 90.88c0-3.95 14.29-7.15 31.92-7.15s31.92 3.2 31.92 7.15v8.23c0 3.95-14.29 7.15-31.92 7.15s-31.92-3.2-31.92-7.15z" fill="url(#linear-gradient6-9)"/><path class="st3" d="m143.16 90.88c0.32 4.3 11.77 5.64 15.35 6.18 12.5 1.49 33.77 1.77 45.34-2.88 1.37-0.65 3.06-1.61 3.15-3.3h-1.39c-0.06 1-1.38 1.77-2.31 2.24-12.45 5.51-39.51 5.14-52.69 1.42-1.81-0.61-5.74-1.69-6.06-3.66h-1.39z" fill="url(#linear-gradient7-1)"/><path class="st2" d="m147.1 91.62c0.48-2.94 10.7-4.01 13.41-4.38 9.68-1.05 19.47-1.13 29.16-0.17 18.19 1.9 18.09 7.21 0 9.09-9.69 0.96-19.48 0.88-29.16-0.17-2.66-0.37-12.94-1.44-13.41-4.38zm0 0c0.31 1.95 4.52 2.72 6.21 3.18 11.92 2.33 24.27 2.16 36.31 0.97 17.55-2.06 17.42-6.24 0-8.29-12.04-1.2-24.39-1.37-36.31 0.96-1.64 0.44-5.92 1.23-6.21 3.18z" fill="url(#linear-gradient8-2)"/><path class="st7" d="m167.54 91.62c0.59-1.82 15.15-2.19 15.32 0-0.2 2.21-14.77 1.8-15.32 0zm0 0c0.89 1.91 13.53 1.47 14.84 0-1.35-1.48-13.98-1.9-14.84 0z" fill="url(#linear-gradient9-7)"/><g fill="#fff"><path class="st14" d="m172.04 236.03-6.55-0.27v-50.04l6.55 0.21z"/><path class="st14" d="m178.77 224.29h6.55v11.74h-6.55z"/><path class="st14" d="m178.77 185.93h6.55v22.42h-6.55z"/></g><path class="st17" d="m150 225.55-6.55-0.52v-36.57l6.55 0.77z" fill="#333"/><path class="st17" d="m155.19 225.91-3.28-0.36v-35.89l3.28 0.29z" fill="#333"/></g></g><g transform="translate(.46807 .76574)"><g transform="matrix(.26551 0 0 .26551 84.643 16.121)"><g transform="translate(-21.155 386.77)"><path class="st15" d="m138.2 154.11v101.72c0 5.19 16.47 9.39 36.8 9.39 20.32 0 36.8-4.2 36.8-9.39v-101.72c0-3.5-0.13-7.44-2.09-10.48-2.05-3.18-5.48-5.93-8.76-7.75-2.07-1.15-3.37-2.79-3.37-5.16v-12.06h-45.16v12.06c0 2.13-1.26 3.75-2.96 4.91-2.43 1.65-4.75 3.1-6.81 5.23-1.79 1.85-3.26 3.71-3.71 6.3-0.4 2.28-0.73 4.63-0.73 6.95z"/><path class="st12" d="m139.25 154.11v101.72c0 5.19 16.24 9.39 36.27 9.39s36.28-4.2 36.28-9.39v-101.72c0-3.5-0.13-7.44-2.06-10.48-2.03-3.18-5.41-5.93-8.63-7.75-2.04-1.15-3.32-2.79-3.32-5.16v-12.06h-44.51v12.06c0 2.13-1.24 3.75-2.92 4.91-2.39 1.65-4.69 3.1-6.71 5.23-1.76 1.85-3.21 3.71-3.66 6.3-0.4 2.28-0.72 4.63-0.72 6.95z" fill="url(#linearGradient5068)"/><path class="st10" d="m198.62 107.9v13.69c-0.26 4.58-10.58 5.11-23.63 5.11s-23.63-1.42-23.63-5.11v-13.69-5.44c0-3.5 10.64-6.33 23.75-6.33 13.12 0 23.5 2.56 23.5 6.06v5.71z" fill="url(#linearGradient2564)"/><path class="st15" d="m166.42 235.24v-61.18c0-4.53-12.1-8.31-28.22-9.19v64.34c0 2.61 2.03 4.75 4.63 4.93 8.84 0.6 16.07 1.86 20.1 3.47 1.67 0.67 3.49-0.57 3.49-2.37z"/><path class="st0" d="m166.42 234.12v-69.02" fill="none" opacity=".44" style="mix-blend-mode:darken"/><path class="st14" d="m143 253.08c-10.15 5.79 20.69 7.98 23.43 7.86 10.02 0.35 20.1 0.14 30.01-1.3 19.85-3.1 12.62-7.25-2.06-9.18-9.8-1.36-20.16-1.4-30.07-1.15 9.94-0.57 20.28-0.79 30.16 0.45 3.1 0.28 20.87 2.81 13.13 7.82-3.44 1.76-7.28 2.34-11.03 2.97-5 0.72-10.04 1.08-15.07 1.25-10.07 0.29-20.19-0.07-30.12-1.82-2.87-0.5-15.47-3.2-8.38-6.9z"/><path class="st14" d="m197.6 186.88v46.69c0 5.61-4.19 10.34-9.76 10.99-4.34 0.5-9.14 0.78-14.19 0.78-19.58 0-35.45-4.21-35.45-9.38v-66.51c0 3.77 15.87 6.82 35.45 6.82 4.27 0 8.37-0.14 12.16-0.41 6.39-0.45 11.8 4.62 11.8 11.02z"/><g class="st19" clip-path="url(#clippath)" fill="url(#linearGradient2566)"><path class="st17" d="m157.21 171.12h46.86v86.05h-46.86z" fill="#333"/></g><g class="st9" fill="url(#linearGradient2568)"><path class="st1" d="m137.15 255.83v-101.72c0-2.57 0.4-5.16 0.75-7.13 0.48-2.75 1.95-4.73 3.99-6.85 1.84-1.91 3.84-3.26 5.96-4.68l1.02-0.69c1.66-1.13 2.51-2.49 2.51-4.04v-13.11h47.25v13.11c0 1.83 0.9 3.18 2.83 4.25 3.87 2.14 7.19 5.1 9.13 8.1 2.09 3.23 2.26 7.23 2.26 11.05v101.72c0 6.78-19.5 10.44-37.85 10.44s-37.85-3.66-37.85-10.44zm16.32-136.12v11.01c0 2.25-1.18 4.25-3.42 5.78-0.35 0.24-0.69 0.47-1.03 0.7-2.02 1.36-3.93 2.65-5.62 4.4-1.78 1.84-3.04 3.53-3.44 5.75-0.33 1.89-0.71 4.36-0.71 6.77v101.72c0 1.49 2.62 3.74 9.99 5.62 6.87 1.75 16.02 2.72 25.76 2.72 9.75 0 18.89-0.96 25.76-2.72 7.37-1.88 9.99-4.14 9.99-5.62v-101.72c0-3.5-0.15-7.16-1.93-9.91-1.76-2.72-4.81-5.42-8.39-7.4-2.6-1.44-3.91-3.49-3.91-6.08v-11.01h-43.06z" fill="url(#linearGradient5074)"/></g><path class="st14" d="m157.66 130.72c0.28 3.81-1.95 7.44-5.03 9.58-2.92 2.22-6.75 4.2-8.01 7.81-0.72 3.38-0.72 6.79-0.77 10.25-0.08 3.25-0.2 7.89-0.4 11.09-0.21-3.18-0.32-7.85-0.4-11.09-0.05-2.71-0.21-5.69 0.23-8.37 0.08-0.46 0.24-1.64 0.33-2.08 1.37-4.07 5.46-6.16 8.58-8.27 3.03-1.91 5.32-5.17 5.49-8.92z"/><path class="st14" d="m204.89 147.63c-11.51 7.18-36.7 6.76-49.7 3.49 2.09 0.29 4.17 0.57 6.27 0.73 10.44 0.89 21.02 0.74 31.4-0.78 4.12-0.68 8.32-1.44 12.03-3.44z"/><path class="st14" d="m193.68 131.94c-11.57 2.71-23.85 2.75-35.48 0.32 11.8 0.99 23.7 0.97 35.48-0.32z"/><path class="st14" d="m207 161.04a2.82 5.63 0 0 1-2.82 5.63 2.82 5.63 0 0 1-2.82-5.63 2.82 5.63 0 0 1 2.82-5.63 2.82 5.63 0 0 1 2.82 5.63z" fill="#fff"/><path class="st13" d="m191.59 256.37c5.16-3.05-10.65-4.11-12.14-4.08-5.19-0.18-10.42-0.07-15.56 0.67-3.6 0.47-10.52 2.2-2.76 4.07 6.36 1.4 12.92 1.42 19.41 1.28-6.5 0.35-13.1 0.49-19.51-0.88-3.6-0.7-6.13-2.66-1.07-4.14 6.35-1.63 13-1.62 19.5-1.38 1.57-0.06 17.48 1.44 12.13 4.44z"/><path class="st13" d="m205.03 99.47c0 3.95-13.41 3.71-29.95 3.71s-29.95 0.23-29.95-3.71v16.77c0 3.95 13.41 7.15 29.95 7.15s29.95-3.2 29.95-7.15z"/><path class="st5" d="m205.03 99.47c0 3.95-13.41 3.71-29.95 3.71s-29.95 0.23-29.95-3.71v16.77c0 3.95 13.41 7.15 29.95 7.15s29.95-3.2 29.95-7.15z" fill="url(#linearGradient2570)"/><path class="st11" d="m145.13 95.44c0-3.37 13.41-6.09 29.95-6.09s29.95 2.73 29.95 6.09v7.02c0 3.37-13.41 6.09-29.95 6.09s-29.95-2.73-29.95-6.09z" fill="url(#linear-gradient4-6)"/><path class="st18" d="m143.16 90.88c0-3.95 14.29-7.15 31.92-7.15s31.92 3.2 31.92 7.15v8.23c0 3.95-14.29 7.15-31.92 7.15s-31.92-3.2-31.92-7.15z"/><path class="st8" d="m143.16 90.88c0-3.95 14.29-7.15 31.92-7.15s31.92 3.2 31.92 7.15v8.23c0 3.95-14.29 7.15-31.92 7.15s-31.92-3.2-31.92-7.15z" fill="url(#linearGradient5082)"/><path class="st20" d="m207 90.88a31.92 7.15 0 0 1-31.92 7.15 31.92 7.15 0 0 1-31.92-7.15 31.92 7.15 0 0 1 31.92-7.15 31.92 7.15 0 0 1 31.92 7.15z" fill="#9fa09d"/><path class="st18" d="m203.06 91.62a27.98 5.09 0 0 1-27.98 5.09 27.98 5.09 0 0 1-27.98-5.09 27.98 5.09 0 0 1 27.98-5.09 27.98 5.09 0 0 1 27.98 5.09z" fill="#b5b6b4"/><path class="st4" d="m175.08 83.73c17.63 0 31.92 3.2 31.92 7.15v8.23c0 0.87-0.7 1.7-1.97 2.47v14.66c-0.33 4.91-13.41 7.15-29.95 7.15s-29.95-3.2-29.95-7.15v-14.66c-1.27-0.77-1.97-1.6-1.97-2.47v-8.23c0-3.95 14.29-7.15 31.92-7.15z" fill="url(#linearGradient5084)"/><path class="st6" d="m143.16 90.88c0-3.95 14.29-7.15 31.92-7.15s31.92 3.2 31.92 7.15v8.23c0 3.95-14.29 7.15-31.92 7.15s-31.92-3.2-31.92-7.15z" fill="url(#linear-gradient6-9)"/><path class="st3" d="m143.16 90.88c0.32 4.3 11.77 5.64 15.35 6.18 12.5 1.49 33.77 1.77 45.34-2.88 1.37-0.65 3.06-1.61 3.15-3.3h-1.39c-0.06 1-1.38 1.77-2.31 2.24-12.45 5.51-39.51 5.14-52.69 1.42-1.81-0.61-5.74-1.69-6.06-3.66h-1.39z" fill="url(#linear-gradient7-1)"/><path class="st2" d="m147.1 91.62c0.48-2.94 10.7-4.01 13.41-4.38 9.68-1.05 19.47-1.13 29.16-0.17 18.19 1.9 18.09 7.21 0 9.09-9.69 0.96-19.48 0.88-29.16-0.17-2.66-0.37-12.94-1.44-13.41-4.38zm0 0c0.31 1.95 4.52 2.72 6.21 3.18 11.92 2.33 24.27 2.16 36.31 0.97 17.55-2.06 17.42-6.24 0-8.29-12.04-1.2-24.39-1.37-36.31 0.96-1.64 0.44-5.92 1.23-6.21 3.18z" fill="url(#linear-gradient8-2)"/><path class="st7" d="m167.54 91.62c0.59-1.82 15.15-2.19 15.32 0-0.2 2.21-14.77 1.8-15.32 0zm0 0c0.89 1.91 13.53 1.47 14.84 0-1.35-1.48-13.98-1.9-14.84 0z" fill="url(#linear-gradient9-7)"/><g fill="#fff"><path class="st14" d="m165.49 235.76v-50.04l6.55 0.21v50.1z"/><path class="st14" d="m178.77 224.29h6.55v11.74h-6.55z"/><path class="st14" d="m178.77 185.93h6.55v22.42h-6.55z"/></g><path class="st17" d="m143.45 225.03v-36.57l6.55 0.77v36.32z" fill="#333"/><path class="st17" d="m151.91 225.55v-35.89l3.28 0.29v35.96z" fill="#333"/></g></g></g></g><g transform="translate(-11.451 48.324)"><path d="m54.6 110.01a7.1938 7.1938 0 0 1-7.1938 7.1938 7.1938 7.1938 0 0 1-7.1938-7.1938 7.1938 7.1938 0 0 1 7.1938-7.1938 7.1938 7.1938 0 0 1 7.1938 7.1938z" fill="#2ab2ff" stroke-width=".26458"/><g transform="matrix(.26458 0 0 .26458 29.686 10.176)" fill="#fff" style="shape-inside:url(#rect8194);white-space:pre" aria-label="1"><path d="m72.647 392.58h-3.6693v-21.291q0-1.8347 0.04267-2.944 0.04267-1.1093 0.128-2.304-0.68267 0.68267-1.2373 1.152-0.55467 0.46933-1.408 1.1947l-3.2427 2.6453-1.9627-2.5173 8.2347-6.4h3.1147z"/></g></g><g transform="translate(85.427 48.324)"><path d="m54.6 110.01a7.1938 7.1938 0 0 1-7.1938 7.1938 7.1938 7.1938 0 0 1-7.1938-7.1938 7.1938 7.1938 0 0 1 7.1938-7.1938 7.1938 7.1938 0 0 1 7.1938 7.1938z" fill="#2ab2ff" stroke-width=".26458"/><g transform="matrix(.26458 0 0 .26458 28.986 10.232)" fill="#fff" style="shape-inside:url(#rect9991);white-space:pre" aria-label="2"><path d="m79.687 392.58h-20.139v-3.1147l7.9787-8.064q2.304-2.304 3.8827-4.096t2.3893-3.4987q0.81067-1.7493 0.81067-3.7973 0-2.5173-1.4933-3.7973-1.4933-1.3227-3.8827-1.3227-2.2187 0-3.9253 0.768-1.664 0.768-3.4133 2.1333l-2.0053-2.5173q1.792-1.4933 4.096-2.5173 2.3467-1.0667 5.248-1.0667 4.2667 0 6.7413 2.176 2.4747 2.1333 2.4747 5.9307 0 2.3893-0.98133 4.48t-2.7307 4.1387q-1.7493 2.0053-4.096 4.3093l-6.3573 6.272v0.17067h15.403z"/></g></g></g></g></svg>
